<?xml version="1.0" standalone="no"?>
<!DOCTYPE svg PUBLIC "-//W3C//DTD SVG 1.1//EN" "http://www.w3.org/Graphics/SVG/1.1/DTD/svg11.dtd" >
<svg xmlns="http://www.w3.org/2000/svg">
<metadata></metadata>
<defs>
<font id="atticantique" horiz-adv-x="1228" >
<font-face units-per-em="2048" ascent="1638" descent="-410" />
<missing-glyph horiz-adv-x="819" />
<glyph horiz-adv-x="2048" />
<glyph horiz-adv-x="2048" />
<glyph unicode="&#xd;" horiz-adv-x="819" />
<glyph unicode=" "  horiz-adv-x="819" />
<glyph unicode="&#x09;" horiz-adv-x="819" />
<glyph unicode="&#xa0;" horiz-adv-x="819" />
<glyph unicode="!" horiz-adv-x="573" d="M105 135q0 32 16 67q7 17 15 34q14 22 43 34l42 19q3 2 8 2q9 0 22 -6q21 -10 27 -11q18 4 27 4q17 0 40 -12q26 -14 31 -29t7 -18q37 -37 37 -105q0 -31 -10 -48q-9 -29 -45 -76q-22 -14 -27 -19q-14 -16 -28 -16q-2 0 -40 8q-20 4 -53 8q-30 8 -59 43q-10 12 -31 37 q-22 45 -22 84zM117 1354q0 79 43 152q5 8 61 30q21 8 25 10q18 6 43 6q39 0 59 -10q24 -18 41 -28q66 -42 65 -121q1 -50 -5 -142q-21 -82 -17 -109q2 -13 2 -30q0 -43 -16 -76l-8 -40q-2 -17 -15 -39q-2 -5 -13.5 -43t-19.5 -113q-6 -68 -17 -95q-17 -38 -17 -104 q0 -35 -31 -115q-12 -47 -31 -47q-12 0 -31 29q-12 18 -12 25q0 -1 10 17q10 16 5 30q-14 41 -12 73q2 54 1 52q0 18 -12 54q-16 48 -17 53q-6 26 -5 50q2 62 1 50q0 14 -8 53q-9 44 -11 97q-3 71 -36 130q-12 22 -12 73v25q0 11 -5 52.5t-5 50.5z" />
<glyph unicode="&#x22;" horiz-adv-x="720" d="M88 1394q0 96 41 116q29 22 61 22q47 0 74 -50q16 -28 14 -69q0 -12 -0.5 -28t-0.5 -19q1 -13 -7 -45q-8 -35 -8 -43l-6 -68q-6 -19 -25 -168q-2 -7 3 -20q2 -7 -7 -19q2 -10 2 -17q0 -38 -32 -38q-55 0 -55 62q0 12 5 28q-24 135 -24 129q2 8 2 15v12q0 21 -20 61 q-14 29 -15 105q-2 6 -2 34zM398 1329q4 54 4 82q0 26 1 33q6 20 12 41q10 24 27 33q21 10 56 10q53 0 76 -31q10 -14 18 -51v-90q-4 -6 -4 -10q-4 -16 -2 -29q2 -14 2 -37q0 -25 -4 -37q-10 -19 -25 -51q-4 -17 -2 -35v-33q0 -79 -15 -116q2 -22 -10.5 -40t-31.5 -18 q-26 0 -50 37q-8 12 -4 23q5 13 0 22q-15 34 -22 54l8 32q4 16 4 31q0 22 -10 53q1 37 -14 100q-14 17 -14 27z" />
<glyph unicode="#" horiz-adv-x="1024" d="M25 528q-10 43 16 62q6 4 41 14q2 1 4 1q6 0 17.5 -3.5t17.5 -3.5h35q37 10 49 10h10q25 -4 51 -6l16 57q2 29 3 127q0 28 6 60t6 47q-12 0 -45 6q-30 5 -37 4q-31 -5 -61 12q-29 -2 -45 -1q-35 0 -35 51q8 70 24 67q35 8 82 10q16 -7 37 -14q10 0 51 12q14 4 39 -2 q-2 8 -2 25q0 59 29 138q22 62 22 105q0 9 -2 31t-2 27q0 14 6 37q0 77 64 96q10 5 20 5q55 0 56 -83q-14 -164 -45 -374q12 0 19.5 -5.5t13.5 -5.5q10 0 33 6t32 6q3 0 24 -8t35 -8t44 6q0 35 12 85.5t12 78.5q-1 34 36 142q2 9 -2 44q-6 38 -6 45q0 25 13 50q34 45 59 45 q26 0 45 -39q26 -29 27 -72q0 -26 -12 -63q-12 -124 -33 -178q-12 -32 -12 -56q6 -35 5 -53q0 -16 -8 -39l23 -8q17 4 27 4h18q11 0 32 -3l20 -3q16 0 42 6q15 4 36 -26q16 -21 16 -42q0 -8 -2 -16q-21 -53 -50 -53q-2 0 -19.5 5t-25.5 5q-21 -8 -45 -10q-11 -2 -40 11.5 t-32 13.5q-14 0 -14 -21q-12 -121 -37 -201q-8 -26 -8 -96q12 0 34 -2q11 -1 17 -1t8 1q8 2 20 1q18 0 43 -3q42 -6 62 -13q18 6 31 7q22 0 23 -45q-4 -45 -7 -51q-6 -21 -26 -21q-7 0 -36.5 8.5t-41.5 8.5q-14 0 -47 -11q-14 -4 -22 -4q-35 4 -68 8q0 -55 -15.5 -100 t-15.5 -57q0 -25 2 -41q2 -17 -6 -27q-21 -25 -20 -76q0 -42 -16 -100q0 -100 -68 -100q-44 0 -58 14.5t-14 56.5v22q30 55 41 181q3 41 23 111q16 62 16 112q-29 8 -39 8q-14 0 -21 -4q-22 -6 -30 -6q-21 8 -64 8q-8 0 -29.5 -2t-29.5 -2q0 -51 -15.5 -106.5t-15.5 -77.5 q0 -3 -10 -58.5t-10 -88.5v-29q0 -62 -26 -103q-15 -25 -56 -24q-55 0 -51 26q0 13 -4.5 37.5t-4.5 28.5q0 18 9 43q8 10 16 18q14 37 14 152q0 29 12 63q9 22 19 49q2 10 0 30t-4 36q-29 -6 -45 -6q-25 0 -59 14q-15 6 -43 1q-27 -6 -31 -5q-34 0 -47 55zM398 612 q8 0 24 -4t32 0q18 4 44 4q16 0 39 -9t26 -9q18 0 41 10q0 61 8 86q18 55 23 127l4 65q-29 6 -55 15q-9 -2 -14 -2h-13q-1 0 -24 7q-19 6 -37 1q-26 -7 -48 -7q-8 0 -14 1v-23q0 -15 -4 -34l-13 -114q-5 -42 -15 -72z" />
<glyph unicode="$" horiz-adv-x="1136" d="M66 450q0 29 14 40q26 18 30 22q18 18 48 22q16 2 32 3q10 8 31 8q19 -2 25 -3q17 -14 35 -26q30 -30 30 -78q0 -11 -1 -22q-9 -48 -60 -90q-38 -33 -39 -72q0 -20 26 -53q14 -18 29 -37q18 -21 78 -21q39 -8 74 -8q94 0 94 80q0 18 -14 76q-6 24 -7 41q0 15 3 29l4 26 q0 3 -4 33t-4 47q0 20 18 69.5t18 71.5q0 80 -49 111l-67 23q-38 34 -107 80q-76 52 -105 112q-2 6 -26 35q-7 9 -12 47q-6 46 -18 80q-10 24 -13 37q0 14 13 37q15 29 19 47q7 28 19 41q39 38 55 80q13 18 39 47q20 17 80 45q50 24 78 57q17 24 55 24q22 0 27 18q4 15 4 83 q0 42 12 70q10 25 21 25q2 0 4 -1q20 -1 36 -61q17 -68 23 -74q7 -9 25 -31q13 -16 27 -16q5 0 22.5 -6.5t36.5 -6.5q79 0 98 -41q6 -14 30 -24l32 -12q16 -26 50 -63q14 -7 27 -51.5t8 -69.5q-4 -24 -9 -80q-18 -54 -103 -79q-27 -7 -51 7q-28 10 -73 32q-14 9 -33 32 q-31 26 -31 44q0 20 21 44q14 14 15 30q8 20 15 30q21 35 17 44q-31 50 -46 49q-13 -2 -22 -5q-22 -7 -29 -24q-8 -21 -8 -53q0 -9 2 -49.5t2 -53.5v-24q-4 -16 -4 -23q-14 -57 -15 -122q0 -121 32 -130q63 -23 190 -73q107 -45 117 -90q24 -30 57 -79q6 -15 22.5 -38 t16.5 -87v-40q0 -23 -1.5 -67.5t-1.5 -65.5q-2 -22 -20.5 -46t-21.5 -40q-5 -18 -38 -59q-12 -22 -29 -36q-21 -16 -26 -22q-54 -68 -88 -88q-45 -21 -89 -39q-22 -8 -79 -38q-18 -10 -55 -67q-34 -53 -45 -53q-10 0 -18 9q-13 7 -34 57q-22 53 -44 69q-78 16 -121 29 q-126 37 -140 83l-40 60q-8 18 -20 25q-13 4 -25 11q-5 5 -9 15.5t-6 12.5q-33 39 -32 84v61q-4 38 -4 43zM303 1166q0 -82 16 -112q13 -11 29 -26q11 -12 18 -25q2 -5 41 -24q6 -4 11 -4q13 4 16 8q51 16 52 51q0 18 5 69.5t5 53.5q-2 9 -2 35v47q0 53 -8 67q-35 64 -72 64 q-25 0 -53 -32q-18 -27 -27 -37q-16 -10 -20 -21q-10 -26 -11 -114zM617 482q4 -17 4 -28q4 -16 4 -29.5t3.5 -36t3.5 -34.5q0 -21 -6 -48q-8 -40 -5 -50q22 -66 69 -66q40 0 60 21q9 9 18 37q4 6 16 16q22 18 38 59q9 16 17 32q15 26 15 47q0 12 -6 55q-3 23 -8 33 q-19 30 -27 47q-20 46 -31 57q-34 37 -92 36q-6 2 -11 2q-38 0 -49 -57q-14 -49 -13 -73v-20z" />
<glyph unicode="%" horiz-adv-x="1466" d="M55 1130q0 16 2 55.5t2 40.5q0 14 11 40q12 29 13 39q3 18 31.5 56t47.5 47q10 5 31 31.5t45 38.5q11 6 65 46q28 20 82 20q6 0 21.5 4t29.5 2q77 -10 125 -32q19 -9 117 -82q8 -6 44 -58q10 -14 17 -36q13 -36 27 -78q13 -34 12 -70q0 -22 -4 -43q-10 -53 -10 -61 q0 -55 -29 -92q-43 -55 -53 -83q-114 -114 -237 -114q-5 0 -19.5 4.5t-20.5 4.5t-11 -3q-17 -13 -36 -13q-18 0 -81 26t-76 28q-71 68 -129 201q-17 16 -17 81zM162 62q0 33 14 48q26 30 35 48q15 30 51 61q53 47 70 67q32 41 49 80q38 90 49 105q21 22 37 39q23 39 96 118 q37 30 54 44q16 19 61 82l111 152q45 63 93 120l121 140q30 34 51 81q15 33 137 163q91 97 124 97q28 0 57 -25q10 -8 10 -16q0 -10 -28 -47q-18 -24 -41 -55q-12 -31 -58 -109q-22 -24 -37 -34q-22 -16 -122 -134l-84 -98q-31 -64 -97 -176q-52 -70 -93 -117 q-38 -42 -91 -112q-18 -23 -73 -74q-33 -29 -73 -83q-56 -76 -81.5 -106t-52.5 -59q-28 -35 -42 -72q-14 -32 -30 -47q-39 -34 -88 -102q-24 -32 -47 -42q-11 -4 -23 -7q-12 -10 -27 -10q-22 0 -26 8q-6 13 -6 72zM252 1147q0 -21 10 -39q4 -21 4 -54v-28q0 -22 11 -31 q13 -11 20 -47.5t17 -40.5q114 -49 104 -49q10 0 41 18t35 19q2 30 24 71q7 5 12 25q6 23 11 29q16 22 16 104q0 113 -24 138q-7 50 -39 123q-10 24 -17 49q-9 33 -59 32q-50 9 -62 9q-9 0 -12 -2q-58 -64 -58 -105q2 -22 3 -34q0 1 -15 -52q-14 -47 -10 -60q5 -10 0 -24 q-12 -43 -12 -51zM692 289q0 22 17 67q10 29 10 58q-2 17 -2 22q0 31 18 50q2 21 63 104q36 38 91 60q85 37 94 42q32 18 55 13q31 -9 52 -9q18 2 26 2q23 0 98 -30q9 -2 36.5 -35t44.5 -38q24 -7 30 -13q17 -25 35 -49q10 -11 14 -23q20 -43 44 -107q2 -12 1 -34v-62 q0 -14 3 -26q0 -25 -3 -33q-13 -19 -45 -99q-14 -46 -24 -51q-26 -26 -52 -53q-10 -3 -25 -8t-34 -31q-23 -33 -57 -32q-9 0 -48.5 3t-46.5 2q-79 -4 -89 -4q-15 0 -51 11q-39 13 -54 15t-37 22q-24 23 -45 29q-34 10 -49 65q-23 82 -44 111q-26 36 -26 61zM901 246 q5 -45 21 -86q5 -8 24 -31q12 -14 16 -31l3 -18q3 0 29 -29t38 -33q17 -6 29 -8q40 0 63 59q17 40 64 77q6 6 6 20q0 6 -4 37t-4 43q0 32 9 64q8 26 7 28q-25 53 -24 84q2 18 2 31q0 59 -42 89l-32 25q-2 14 -52 15q-38 0 -63 -12q-18 -16 -43 -54q-1 -5 -18 -20 q-7 -7 -10 -48q-4 -70 -10 -112q-11 -82 -9 -90z" />
<glyph unicode="&#x26;" horiz-adv-x="1616" d="M54 502q0 20 13 51q23 49 33 106q13 30 58 66l65 53q15 15 78 26.5t80 25.5q10 8 21 18q13 15 12 29q0 6 -2 12q-39 70 -78 225q-10 41 -11 64q0 18 9 36q18 42 18 74q0 83 37 105q14 7 27 41q19 47 68 60q8 2 75 7q29 2 60 17q63 45 145 44q106 0 213 -75 q91 -65 116 -125q6 -22 7 -47q0 -33 -4 -53q-8 -38 -35 -121q-18 -54 -51 -87q-13 -12 -62 -40q-37 -63 -148 -64q-33 0 -44 12q-6 7 -6 15q0 33 83 65q19 7 27 40q5 30 10 61t5 57q0 18 -16.5 64t-16.5 65q0 59 -46 87q-22 14 -30 15q-33 13 -62 13q-90 0 -123 -117 q-6 -22 -5 -47q0 -52 24 -123q15 -45 35 -92q11 -39 48 -77q34 -34 33 -40q0 -6 -13 -29q-4 -8 5 -22q31 -38 80 -129q6 -18 19 -54q27 -66 55 -102q34 -43 72 -88q2 -4 49 -51q27 -26 41 -51q16 -28 39 -70q18 -33 33 -26q62 64 72 151q5 53 14 141q16 147 16 124 q0 48 -47 64q-23 9 -51 7q-59 -2 -44 -2q-61 0 -60 43q0 41 55 63q18 7 22 11q18 18 27 22q18 6 73 7q90 0 152 -13q79 -30 133 -30q85 0 110 -36q15 -20 -34 -84q-10 -16 -31 -26q-65 -33 -82 -45q-18 -17 -36 -62q-20 -54 -29 -67q-14 -39 -48 -107q-7 -17 -19 -84 q-11 -62 -30 -93q-16 -26 -44 -60q-19 -22 9 -33q14 -3 125 -61q38 -13 144 -13q98 0 99 -55q-1 -17 -15 -41q-16 -15 -81 -29q-62 -14 -101 -14q-24 0 -103 -42q-29 -16 -88 -16q-142 0 -250 79q-41 37 -46 41q-4 -2 -11 -7q-18 -12 -57 -16q-14 -4 -60 -61 q-27 -22 -223 -23q-89 0 -148 12q-81 17 -157 68q-131 87 -138 163q-7 79 -42 128q-9 16 -8 39q2 62 1 57q0 17 -1 24q-8 31 -8 52zM291 584q0 -78 13 -106q7 -15 15 -29q6 -26 21 -79q19 -62 56.5 -117.5t53.5 -72.5q14 -10 58 -33q27 -26 116 -67q77 -21 118 -21 q30 0 52 15q35 22 50 26q7 2 29 5q2 2 4 5q-14 16 -43 58q-84 118 -109 176l-49 92q-24 41 -51 62q-18 20 -23 35q-10 30 -36 69q-25 37 -32 61q-15 61 -71 99q-2 1 -57 -36q-14 -10 -28 -17q-2 -1 -40 -41q-16 -17 -35 -38q-12 -18 -12 -46z" />
<glyph unicode="'" horiz-adv-x="475" d="M138 1431q-1 15 13.5 67t67.5 52q37 0 70 -22q43 -24 43 -127q-2 -21 -2 -27q0 -77 -16 -105l-11 -22q-8 -16 -8 -43q0 -16 2 -26q0 -10 -11 -58l-20 -94q8 -25 8 -47q0 -62 -44 -61q-37 0 -41 44q-6 10 -7 25q0 16 4 38q2 13 1 20q0 4 -1 5l-8 84q0 41 -12 88.5 t-12 67.5q0 15 -8 51q-8 31 -7 39z" />
<glyph unicode="(" horiz-adv-x="745" d="M166 717q0 82 28 129q14 24 37 141q8 42 19 53q18 30 55 82q9 24 68 125q19 30 37 80q14 16 61 44q44 26 66 69q25 50 47 70q28 24 79 24q47 0 47 -86q1 -23 -1 -35q-11 -63 -57 -107q-52 -48 -60 -71q-5 -14 -55 -82q-37 -50 -64 -159q-28 -118 -28 -130v-34 q0 -27 -7 -48q-10 -32 -11 -46q-5 -35 -24 -104q-6 -16 -6 -28q0 -6 2 -12q25 -106 25 -180q0 -76 18 -107q14 -22 15 -47q2 -46 10 -68q17 -18 71 -157q13 -39 36 -70q18 -18 43 -61q32 -37 75 -92q9 -14 9 -25q-2 -18 -3 -33q0 -1 4 -28.5t4 -45.5q0 -29 -12 -47 q-17 -14 -18 -18q-6 -4 -8 -4q-9 -4 -14 -4q-39 0 -99 59q-26 26 -56 85q-32 62 -53 85q-129 145 -145 228q-4 20 -18 40q-16 23 -22 42q-9 30 -17 45q-29 28 -29 49q-2 11 -12 43.5t-10 44.5q0 42 -11.5 105t-11.5 67q0 12 4 36.5t4 36.5q0 30 -2 47q-10 89 -10 99z" />
<glyph unicode=")" horiz-adv-x="794" d="M37 -301q0 26 12 57q20 50 39 82q26 29 37 39q14 27 18 41q2 12 19 39q10 21 47 62q33 37 33 47q0 66 36 188q6 18 48 85q37 60 44 111q4 23 -1 37q-14 34 -11 55q10 59 11 80q0 18 -8 37q-10 23 -13 39q-4 26 -4 54v44q0 8 1 24.5t1 23.5q1 55 -12 121q-12 61 -45 121 q-14 24 -23 40q-18 22 -77 113q-30 49 -84 100q-12 11 -23 49q-12 43 -15 46q-14 16 -13 43q0 10 4 34q13 43 59 43q23 0 47 -18l53 -41q76 -55 108 -131q14 -36 36 -58q50 -52 75 -100q33 -149 162 -338q3 -4 14 -184q2 -12 2 -29q0 -18 -8 -51q-2 -75 -5 -150 q-2 -60 -11 -77q-15 -31 -26 -107q-5 -38 -26 -63q-49 -61 -51 -76q-21 -132 -84 -189q-10 -19 -34 -47q-10 -12 -25 -55.5t-26 -55.5q-17 -18 -33 -36q-18 -34 -68 -55q-66 -28 -90 -51q-18 -16 -33 -16q-18 0 -32 18q-25 12 -25 55z" />
<glyph unicode="*" horiz-adv-x="753" d="M118 1071q0 30 42 84q6 4 47 29q20 12 27 26l-25 37l-47 45q-26 26 -27 54q0 14 12 26q6 5 18 5q29 0 75 -21q22 -10 41 -10q30 0 38 52q0 85 14 112q11 22 46 22q38 0 39 -43q-2 -16 -2 -23q-4 -12 -4 -28q0 -34 20 -64q10 -10 70 24q39 23 80 20q42 0 57 -38 q10 -24 8 -53q-3 -34 -73 -88q-13 -13 -13 -21q0 -14 56 -55q41 -11 41 -53q0 -46 -44 -81q-20 -15 -48 -15q-14 0 -45 21t-51 21q-17 0 -40 -24q-8 -34 -16 -70q-21 -66 -68 -65q-21 2 -35 90q-10 26 -18 55q-16 37 -37 37q-2 0 -30 -22.5t-58 -22.5q-50 0 -50 37z" />
<glyph unicode="+" horiz-adv-x="1024" d="M55 574q0 22 21 51q24 34 110 34q34 0 52 -8q8 -4 24 -4q19 0 60 4t43 4q49 0 73 13q4 33 4 55q0 21 -4 48t-4 36q0 12 7.5 35t7.5 28q0 7 -5.5 33t-5.5 41v62q-2 8 -2 20q0 37 72 37q54 -6 55 -55l3 -89q1 -4 0 -9q0 -7 -5.5 -22.5t-5.5 -23.5q0 -20 8 -51q2 -7 3 -20 q-5 -21 -5 -35q0 -12 6 -35q2 -8 -1 -51q57 4 73 4q14 0 20 -4q29 -14 47 -14q8 0 29 5q12 4 22 4q6 0 11 -1q37 -2 77 -16q35 -11 79 -11q59 1 53 -49q0 -30 -70 -49q-7 -2 -26 -3q-10 0 -63.5 4.5t-67.5 4.5q-25 0 -72.5 -5t-55.5 -5q-37 0 -63 4q14 -70 15 -105 q0 -10 -4 -45t-4 -49q0 -35 9 -88q-10 -33 -16 -80q0 -28 -2 -31q-8 -12 -49 -12h-10q-44 0 -53 52q-5 24 -5 59v30q0 2 6.5 24.5t6.5 35.5q-6 34 -11 70q2 12 3 26q0 3 -7.5 30.5t-7.5 43.5q0 4 4 40q-47 -10 -68 -9q-20 4 -47 8q-6 2 -33 -6q-30 -7 -40 -7q10 0 -62 14 q-10 2 -20 3q-15 0 -42 -5.5t-26 -5.5q-14 0 -20 4q-21 13 -21 36z" />
<glyph unicode="," horiz-adv-x="552" d="M117 -305q0 20 41 51q6 5 18 31q17 25 33 47q0 6 10 53q4 19 4 39q0 44 -34 82q-11 24 -31 56q-29 26 -29 67q0 33 17 55q18 41 56 90q36 14 79 15l53 12q10 0 24 -8q54 -29 72 -72q9 -21 15 -82q0 -82 -11 -138q-6 -34 -10 -42q-10 -14 -14 -21v-43q0 -30 -16 -67 q-9 -18 -64 -55q-6 -2 -27 -31q-57 -66 -113 -66q-74 0 -73 27z" />
<glyph unicode="-" horiz-adv-x="706" d="M35 645q0 88 86 88q92 19 245 19q88 0 124 5l80 11q30 0 47 -8q16 -14 34 -27q12 -6 17 -14q14 -20 14 -74v-49q-6 -35 -41 -41q-31 -11 -59 -10q-62 2 -52 2q-14 0 -37 -6.5t-44 -6.5q-51 0 -93 11q-41 -10 -174 -11q-62 0 -92 19q-36 9 -45.5 23.5t-9.5 68.5z" />
<glyph unicode="." horiz-adv-x="526" d="M117 78q0 66 30 119q14 22 62 59q33 29 80 29q27 -4 41 -27q10 -6 14 -8q10 -21 47 -61q21 -14 21 -47l8 -50q0 -26 -6 -38q-6 -58 -19 -79q-28 -47 -110 -47l-47 6l-36 -4q-11 5 -30 35q-22 36 -33 45q-22 4 -22 68z" />
<glyph unicode="/" horiz-adv-x="928" d="M14 -133q0 18 11 41q14 30 37 76q16 46 34 83q33 66 68 134q36 94 113 282q22 51 89 176q38 70 62 107q26 84 59 168q94 237 137.5 294.5t57.5 101.5q6 31 12.5 62t26.5 64q31 51 45 66q32 33 65 24q42 -10 60 -115q2 -12 2 -30q0 -46 -37 -103q-59 -92 -66 -106 l-52 -126q-18 -39 -37 -75l-58 -77q-14 -25 -31 -92q-9 -37 -22 -62q-37 -89 -99 -207q-28 -36 -42 -84q-22 -74 -29 -88l-31 -70q-20 -38 -60 -128q-14 -34 -30 -62q-39 -70 -92 -151l-16 -84q-14 -75 -48 -84q-21 -6 -41 -7q-49 0 -76 37q-12 17 -12 35z" />
<glyph unicode="0" d="M113 768q0 47 10 92q4 36 16 121q2 8 11 47q14 66 47 134q18 36 38 120q8 30 44 57q18 11 36 23q22 32 81 67q62 36 67 41q14 17 33 17q9 0 24.5 -8.5t20.5 -8.5q14 15 38 41q8 10 17 13q16 12 55 12q16 0 51 -15q46 -20 51 -22q19 -6 44 -30q22 -22 55 -68q8 -10 62 -53 q47 -38 63 -72q21 -45 30 -91q12 -54 25 -87q22 -56 21 -95q-2 -49 -3 -49q0 -51 36 -114q10 -19 10 -62q0 -23 -5 -95.5t-5 -80.5q0 -18 2 -55.5t2 -40.5q0 -42 -38 -76q-40 -35 -40 -94q-13 -22 -17 -31q-8 -16 -18 -56q-11 -44 -47 -79q-15 -14 -62 -56q-16 -24 -30 -47 q-20 -18 -54 -61q-9 -13 -38 -12q-82 0 -83 49q0 12 17 24q4 5 29 19q7 6 43 137q2 7 24.5 52t33.5 124q6 44 5 64l-2 67v52q3 13 21 103q6 32 6 54q0 21 -5 33q-10 30 -9 58q0 17 14 56q8 23 8 38q0 18 -14 58q-17 49 -21 75q-8 43 -10 49q-43 68 -47 80q-4 27 -9 54 q-10 53 -30.5 75t-61.5 49q-18 12 -25 18q-10 12 -20.5 17.5t-52.5 34.5q-16 11 -23 2q-2 -3 -41 -27q-30 -18 -35 -35q-9 -46 -22 -73q-20 -43 -29 -99q-24 -54 -24 -137q0 -142 19 -195q10 -29 10 -72q0 -34 -13 -52q-6 -25 -5 -58v-41q0 -21 1 -41q0 -22 -6 -52t-6 -34 q6 -18 12 -75q0 -96 15 -181q2 -7 20 -48q17 -36 16 -65q4 -41 27 -75q6 -13 13 -22q-29 -2 -40 -3q-24 0 -101 56q-51 38 -68 77q-21 47 -27 60q-16 34 -49 84q-13 13 -27 55q-27 82 -27 103q0 15 6.5 48.5t6.5 39.5q0 18 -10 30q-37 55 -37 164z" />
<glyph unicode="1" d="M156 1266q0 20 15 46t33 33q24 0 89 17q66 27 96 27q33 -9 47 -9q19 0 46 18q12 21 46 57q16 11 21 18q9 12 26 26q62 49 91 49q31 4 50 -9t40 -28q33 -14 33 -69v-44q0 -21 12 -55q20 -54 21 -57q8 -29 8 -45q-3 -27 -7 -82q-2 -74 -14 -90q-51 -62 -51 -133 q0 -18 9 -56q6 -23 11 -46q2 -12 2 -40q0 -8 -2 -49.5t-2 -56.5q0 -38 4 -59q2 -17 -12 -77q-14 -64 -14 -98q0 -33 2 -51t12 -73q20 -85 30 -90q14 -6 24 -17q20 -23 28 -29q46 -8 96 -18q11 -2 52 -26q45 -28 44 -72q0 -5 -6 -37q-3 -20 -22 -26l-33 -9q-4 -4 -23 -4 q-37 0 -68.5 18.5t-41.5 18.5q-6 0 -45.5 -12.5t-59.5 -12.5q-9 0 -30 4q-18 3 -44.5 -6.5t-27.5 -9.5q-14 0 -37 16q-10 6 -66 -12q-62 -22 -67 -22q-18 0 -52 -3q-38 -3 -54 -3q-47 -2 -76 18q-55 25 -55 88q0 51 28 67q31 10 45 15q40 3 80 5q78 12 99 59q7 17 14 99 q7 91 9 101q6 24 5 31q0 10 -3 50.5t-3 51.5q0 44 16 74q8 14 4 26q-22 85 -22 150q0 29 2 50l4 44q0 12 -4 37q-10 33 -10 50q2 18 2 38q0 142 -197 142h-51q-34 0 -43 4q-14 6 -33.5 37t-19.5 51z" />
<glyph unicode="2" d="M90 1065q0 198 70 244q24 22 86 63q26 13 79 79q14 18 77 40q33 11 65 23q33 33 86 32q68 0 123 -24q29 -5 96 -30q50 -26 90 -26q6 0 19.5 2t20.5 2q23 0 44 -20q52 -81 104 -135q21 -22 36 -65q11 -35 33 -126q7 -41 7 -57q0 -54 -22 -82q-30 -52 -109 -151 q-10 -9 -51 -72q-19 -19 -71 -49q-29 -27 -106 -75q-29 -12 -50 -38q-26 -31 -29 -33q-34 -24 -38 -30q-24 -15 -64 -55q-20 -16 -45 -62q-41 -114 -41 -138q0 -13 6 -22q33 -51 64 -51q-3 0 33 6q42 6 102 11q74 4 125 4q14 0 40 16q14 10 29 20q80 35 80 107q0 -6 20 55 q9 17 33 17q22 0 37 -21q9 -14 9 -29q0 -14 -19 -61q-10 -26 -10 -45q0 -30 22 -68q16 -18 16 -37q0 -6 -20 -51q-4 -26 -21 -82q-15 -34 -101 -50q-117 -21 -118 -22q-24 -6 -37 -5q-13 0 -44 18q-30 8 -91 26q-47 10 -92 11q-14 0 -40 -1.5t-40 -1.5q-50 0 -94 13 q-15 4 -67 -9q-60 -15 -88 -16q-39 0 -40 53q2 21 3 27q2 15 17 35q38 46 56 72l68 94l84 123q15 21 63 33t52 18q8 33 31 77q6 14 53 68q6 18 67 103q23 28 35 62l26 75q13 38 13 88q0 27 22 64q14 22 17 34q12 54 12 90q0 44 -23 88l-26 48q-2 18 -17 43q-26 46 -49 63 q-32 23 -77 25q-98 2 -156 -39q-73 -49 -145 -99q-27 -20 -27 -51q0 -61 68 -133q30 -33 30 -80q0 -50 -33 -102q-43 -66 -100 -66q-44 0 -86 50q-12 14 -58 93q-17 30 -24 95z" />
<glyph unicode="3" d="M78 346q0 43 14 70l26 49q11 48 38 59q41 37 110 37q73 0 103 -94q4 -20 14 -33q26 -34 37 -90q4 -22 4 -39q0 -18 -2 -46t-2 -36q0 -76 63 -76q22 0 72.5 -2t52.5 -2q57 0 74 29q22 27 56 77q1 2 37 45q28 34 31 60q2 22 19 60t17 53q0 26 -8 66q4 20 4 34q0 9 -3 17 q-4 16 -24 45q-2 21 -49 90q-10 13 -108 64q-21 11 -24 22q-7 30 83 91q29 20 47 69q34 91 42 129q6 22 5 69v25q0 37 -10 57q-2 6 -27 35l-37 70q-18 21 -61 40q-53 24 -57 28l-31 22q-35 25 -80 33q-20 3 -62 -58q-22 -33 -22 -86q0 -17 2 -35l4 -39q9 -75 8 -71 q0 -17 -2 -22q-13 -28 -53 -71q-21 -10 -82 -9q-63 0 -99 40q-34 37 -34 96q0 36 14 72q3 9 62 107q50 86 129 102q96 20 139 39q22 10 43 21q20 7 37 7q18 0 29 -1q49 -10 55 -11l59 8q13 0 72 -40q32 -22 107 -52q82 -33 132 -151q14 -17 27 -33q22 -28 22 -49 q0 -14 -5 -37q-17 -62 -37 -106q-40 -86 -41 -88q-18 -30 -58 -52q-78 -42 -77 -119q0 -46 26 -75q19 -21 29 -33q15 -20 62 -47l64 -37q46 -28 46 -172q0 -100 -40 -157q-2 -2 -32 -64q-23 -47 -63 -86q-120 -114 -201 -149q-42 -18 -134 -17h-44q-20 0 -80 4t-80 4 q-42 0 -70 15q-31 16 -46 18q-33 4 -40 6q-18 4 -51 31q-18 14 -38 52q-27 50 -34 58q-37 51 -45 66q-25 43 -24 94z" />
<glyph unicode="4" d="M110 575q0 16 8 33q25 51 25 102q0 18 11 29q35 40 36 47q10 22 30 38l22 16q26 28 47 30q18 2 33 3q29 0 28 -20q0 -12 -7 -31q-26 -70 -25 -99q0 -60 61 -93q46 -24 98 -24q23 0 84 41q22 9 28 14q14 9 17 23q5 19 4 33q-2 45 -2 41q0 17 2 20q10 51 11 132v20 q-3 18 -51 68q-14 15 -25 16q-10 0 -29 -6q-34 -6 -67 -13q-4 -2 -7 -1q-16 0 -16 46v25q0 25 31 55q10 18 20 39q29 29 45 70l26 70q24 46 54 102q22 34 73 60q47 26 63 53q16 30 51 34q25 0 38 -10q8 -6 23 -28q13 -13 38 -46q15 -23 15 -92v-121q0 -62 -22 -100 q-14 -25 -15 -43q0 -10 23 -55q8 -17 8 -59q0 -85 -7 -157q-2 -20 -9.5 -41.5t-7.5 -23.5q0 -22 18 -66q0 -50 21 -65q32 -14 79 -45q23 -25 33 -37q18 -24 18 -63q0 -46 -47 -76q-25 -15 -51 -29l-33 -17q-26 -26 -26 -118q0 -51 29 -72q33 -28 65 -55q30 -10 35 -15 q22 -16 22 -47q0 -26 -14 -41q-46 -30 -60 -30q-9 0 -30.5 9t-24.5 9l-96 -4q-3 0 -35.5 4t-44.5 4q-23 0 -52 -15.5t-50 -14.5q-59 2 -45 2q-38 0 -93 -16q-6 0 -16 5q-21 21 -21 62q0 26 28 36q18 7 24 15l57 50q2 4 28 29q23 22 23 32.5t6 24.5q6 17 8 26q2 18 2 31 q0 69 -38 88q-6 4 -10 10q-20 28 -32 38q-18 16 -50 21q-35 6 -72 7q-15 0 -44.5 -1.5t-43.5 -1.5q-10 0 -55.5 -14t-63.5 -14q-34 0 -65 31q-9 28 -14 37q-31 54 -32 89z" />
<glyph unicode="5" d="M59 350q0 80 27 113q27 47 34 55q23 26 60 27q13 -2 21 -3q67 0 81 -28q6 -11 37 -53q19 -25 21 -39q4 -31 -14 -76q-45 -108 -45 -127q0 -49 31 -77q14 -13 28 -13q8 0 14 2q23 8 29 8q13 0 24 -16q28 -39 64 -39q26 0 45 22q25 18 82 50q24 10 57 18q67 46 78 70 q22 48 64 145q18 29 18 53q0 5 -6 37t-6 49q0 22 9.5 62t9.5 55q0 28 -30 70.5t-30 52.5q-7 38 -82 118q-30 39 -70 40q-8 0 -26.5 -5.5t-22.5 -5.5q-26 0 -57 31q-13 2 -33 -10q-23 -14 -53 -33q-60 -32 -80 -63q-53 -86 -104 -117q-32 -19 -52 -10q-50 27 -49 57 q0 18 9 43q10 17 20 33q18 30 18 47q0 59 26 130q14 37 13 81q0 18 -2 34l-4 32q0 10 4 26q21 79 21 133q0 26 -3 42l-4 34q0 22 11 46q9 18 43 56q26 30 48.5 34.5t40.5 4.5q25 0 36 -6q28 -33 63 -33q15 0 44 8.5t38 8.5q16 0 41 -18q41 -31 78 -32q8 0 30.5 8.5t33.5 8.5 q3 0 23.5 -4.5t27.5 -4.5q30 0 93 44q34 22 58 22q72 0 72 -78q0 -76 -74 -120q-40 -25 -49 -33q-34 -30 -119 -43q-54 -8 -107 -16q-11 -4 -20 -4h-21q-23 0 -72 13t-54 13q-14 0 -34 -6q-27 -8 -46 -12q-31 -5 -42 -12q-24 -33 -60 -101q-10 -26 -9 -51q0 -60 56 -80 q29 -10 63 -10q52 0 133 46h51q4 0 34 -21t50 -21q66 0 101 -13q12 -4 51 -41q30 -29 51 -48q26 -15 82 -60q18 -18 40.5 -59.5t76.5 -94.5q36 -36 36 -102q2 -16 3 -23q0 -14 -10 -37q-10 -27 -11 -36q-14 -99 -86 -156q-28 -22 -40 -63q-7 -25 -16 -49q-19 -24 -32 -44 q-40 -59 -133 -112q-70 -41 -137 -58q-14 -10 -27 -20q-25 -18 -53 -18q-165 0 -249 37q-6 2 -90 26q-63 18 -75 37q-27 36 -61 106q-6 27 -33 64q-21 38 -21 102z" />
<glyph unicode="6" d="M121 621q0 13 10.5 55t10.5 66q0 17 -3 32q-4 32 19 140q0 18 14 80q17 73 25 144q10 97 41 150q17 29 53 51q21 26 43 53q40 48 68 56l48 25q54 -11 116 -19q9 13 20 27q19 23 59 55q14 11 53 14q56 4 64 7q29 6 51 5q35 0 72 -34q48 -46 109 -62q38 -10 38 -128 q0 -137 -52 -167q-81 -45 -126 -45q-36 0 -70 15q-63 26 -75 51q-4 8 -4 43q8 26 8 49q0 26 -15.5 63t-27.5 47q-20 10 -40 21q-12 12 -20.5 18t-31.5 11q-19 3 -41 -21q-18 -24 -74 -67q-35 -27 -39 -98q-1 -25 -6 -83q-6 -49 -6 -73q0 -71 20 -103q22 -24 72 -69 q10 -7 43 -33q14 -8 14 -19q0 -3 -47 -33q-54 -34 -76 -65q-53 -68 -53 -108q0 -9 3 -28l3 -19q0 -11 -12.5 -50.5t-12.5 -66.5q0 -26 7 -68q2 -14 0 -38q-2 -25 -3 -32q0 -15 4 -20q26 -34 59 -93q30 -56 42 -71q21 -25 43 -24q3 0 32.5 6t43.5 6q25 0 49 -8q14 -1 53 36 q43 42 58 46q27 9 55 52q30 46 21 79q-4 14 -4 24q0 6 4 37t4 43q0 34 -21 62q-7 10 -15 56q-9 51 -14 61q-7 18 -42 67q-10 12 -36 45l-24 37q-8 2 -41 35q-24 25 -24 47q0 38 41 43q12 4 20 4h16q13 0 41 -15q31 -18 55 -22q32 -6 48 -17q35 -23 53 -32q74 -38 119 -102 q58 -56 65 -98q2 -36 8.5 -85.5t6.5 -50.5q0 -10 -8.5 -32.5t-8.5 -36.5q0 -51 -16 -88q-18 -40 -66 -109q-21 -21 -29.5 -54.5t-24.5 -46.5q-10 -7 -37 -55q-22 -41 -62 -59q-15 -7 -84 -29q-10 0 -34 2t-34 2q-16 0 -72 -12t-106 -12q-51 0 -76 24q-21 35 -86 101 q-94 65 -112.5 85t-38.5 73q-17 46 -41 65q-19 14 -19 53q2 84 3 76q0 33 -8.5 86t-8.5 70z" />
<glyph unicode="7" d="M147 1063q0 9 3.5 42t3.5 37q0 26 3 64t3 41q0 75 13 176q6 39 21 51q4 4 29 15q7 2 62 47q19 16 41 16q9 0 20 -4q41 -12 61 -12q23 4 42 4q27 0 92 -18q29 -8 41 -8q6 0 21.5 6.5t31.5 10.5q22 5 39 7q6 2 12 2h10q11 0 62 -26q23 -13 55 -13q39 0 76 9q18 4 35 4 q9 0 32.5 -7.5t37.5 -7.5q10 0 28 2q24 3 46.5 -23t22.5 -52q2 -16 -13 -52q-17 -42 -17 -45q-14 -64 -48 -94q-23 -20 -67 -57q-4 -3 -56 -34q-19 -11 -28 -11q-8 0 -28 34q-26 45 -87 66q-34 12 -67 12q-10 0 -44.5 -6t-47.5 -6q-3 0 -38 5t-60 5q-107 0 -171 -81 q-23 -16 -41 -50q-42 -82 -58 -102q-9 -11 -23 -11q-24 0 -41 31q-9 14 -9 33zM394 205q0 102 44 157q35 45 48 136q4 30 28 68q23 36 23 56q0 60 24 99q38 58 49 89.5t29 45.5q12 22 35 51q23 17 39 55q18 42 29 54q6 6 16 6t20 -6l8 -8q4 -6 4 -21q0 -10 -1 -24 q-10 -46 -25 -136q-4 -33 -4 -73q0 -27 10 -70q4 -17 4 -33q0 -18 -8 -41q-16 -29 -33 -55q-12 -54 -12 -160q0 -104 17 -186q0 -25 -11 -81q-6 -34 -17 -48q-5 -5 -24 -22l-12 -28q-15 -26 -39 -26q-34 -3 -65.5 -16t-32.5 -13q-9 0 -28 2t-23 2q-32 5 -44 62l-14 61 q-2 13 -21 48q-14 29 -13 55z" />
<glyph unicode="8" horiz-adv-x="1253" d="M84 402q0 17 10 47q14 42 29 81q4 18 24.5 37t63.5 55q38 48 41 54q25 43 25 104q0 65 -31 102q-64 80 -74 181q-4 42 -6 90q-6 29 -6 61q0 121 66 187q10 10 31 37l42 55q13 13 83 37q102 35 156 35q10 0 41 -8.5t56 -8.5q42 0 90 -20q45 -19 65 -18q34 3 54 -7l80 -44 q49 -30 70 -70q26 -50 26 -121v-31q0 -59 -10 -83q-10 -27 -51 -67.5t-52 -56.5q-1 -2 -18 -24q-49 -63 -49 -113q0 -46 51 -90q6 -11 12 -21q12 -17 38 -24q22 -5 101 -60q25 -18 25 -69q0 -70 19 -103q10 -18 10 -30q0 -15 -2 -25q-18 -91 -58 -129q-15 -31 -54 -84 q-18 -17 -20 -23q-17 -58 -48 -93q-18 -20 -54 -42l-55 -42q-39 -31 -58 -32q-34 0 -112 -20q-47 -13 -65 -12q-9 0 -33 4l-68 20q-35 8 -104 25q-74 20 -97 59q-6 10 -37 37q-16 14 -26 33q-29 25 -50 72t-41 63q-10 9 -19 44q-5 19 -9 38q-2 6 -2 13zM291 424 q8 -18 16 -35q12 -27 12 -49q0 -85 20 -119q48 -83 128 -83q6 0 34.5 4.5t32.5 4.5t29 -12q8 -4 21 -4q6 0 30 10t33 10q50 0 99 25q58 30 77 48q17 16 35 54q28 62 28 101q1 21 -9 53q-3 10 -23 33l-22 48q-20 42 -52 65q-18 13 -66 39q-3 2 -100 35q-26 10 -76 10 q-15 0 -36.5 12t-26.5 12q-14 -5 -26 -4q-36 0 -63 -45q-26 -38 -54 -95l-22 -41q-19 -38 -19 -77zM323 1245q10 -42 9 -65q-2 -60 -2 -64q3 -21 44 -48q49 -32 50 -34q17 -22 62 -59q54 -31 75 -31q19 0 115 14q30 5 55 48q31 54 53 69q27 18 27 88v51q0 54 -6 84 q-6 28 -35 56q-44 41 -68 55q-32 18 -48 18q-2 0 -33.5 -8t-41.5 -8q-8 2 -24 2h-27q-94 0 -129 -47l-63 -64q-14 -20 -13 -57z" />
<glyph unicode="9" d="M51 1036v84q0 10 17 29.5t19 28.5q3 15 11 28q14 23 52 100q17 41 26 50q21 34 90 100q50 31 119 51q134 39 181 70q-2 0 38 -12.5t70 -12.5q12 0 43 -9q37 -11 52 -13q38 -6 41 -8q17 -5 21 -21q14 -27 54.5 -76.5t56.5 -60.5q25 -17 36 -62q14 -59 25 -78 q30 -64 64 -134q32 -57 38 -85q5 -23 5 -98q0 -34 -1 -66q-2 -20 -3 -59q-2 -105 -32 -149q-32 -47 -32 -180q0 -18 -12 -29q-89 -83 -109 -162q-3 -33 -14 -88q-6 -18 -33 -51q-12 -15 -51 -41q-9 -14 -39 -31q-6 -1 -72.5 -3.5t-76.5 -4.5q-6 -1 -33.5 -15.5t-38.5 -13.5 q-50 8 -80 8q-26 0 -55 -9l-29 -9q-50 14 -138 33q-22 3 -47 29l-28 32q-33 33 -32 88q0 43 24 124v34q0 26 8 37q18 26 25 33q14 14 33 14q53 0 88 -14q45 -25 92 -48q48 -9 63 -75q7 -29 7 -39q-2 -43 -3 -43q0 -22 7 -37q19 -46 63 -67q9 -5 29 -7q17 -6 31 -6 q20 0 33 10q26 14 53 60q37 58 39 59q6 10 24 84q11 30 30 53q15 20 15 21q20 107 20 154q0 90 -45 121q-3 1 -10 0h-24q-31 -2 -35 -3q-39 0 -39 16q0 5 8 23q13 27 24 64q4 11 31 54q22 34 27 85q2 17 17.5 51t15.5 39q0 10 -25 59q-2 23 -14 88q-8 33 -8 92q0 22 -39 76 q-54 73 -84 99q-5 2 -14 2q-19 0 -58 -9q-59 -15 -86 -20q-16 -10 -31 -18q-25 -21 -24 -50q0 -22 -10 -38q-26 -42 -29 -64q-14 -118 -14 -162q0 -10 6 -49t6 -74q0 -94 17 -122q10 -17 28 -72q14 -42 35 -78q0 -21 -39 -21h-8q-12 0 -19 3q-25 8 -45 8q-54 0 -84 25 q-14 19 -84 124q-41 40 -55 58q-29 33 -39 108q-2 11 -19.5 45.5t-17.5 42.5z" />
<glyph unicode=":" horiz-adv-x="573" d="M114 877q2 16 3 22q21 23 56 80q15 33 41 45q43 21 68 21q60 0 79 -33q19 -14 61 -70q4 -6 20 -27q6 -6 12 -49q6 -40 -16 -59q-6 -6 -57 -33q-15 -20 -63 -46q-23 -5 -54 -9q-27 0 -53 14q-38 21 -49 49q-6 16 -11 31q-37 30 -37 64zM150 174q0 73 44 104q30 21 66 21 q62 0 117 -29q28 -26 94 -88q14 -4 15 -40q0 -21 -13 -54q-21 -56 -49 -59q-10 -11 -26 -27q-21 -16 -33 -23q-26 -14 -39 -12q-20 4 -72 33q-18 10 -47 29q-58 26 -57 145z" />
<glyph unicode=";" horiz-adv-x="567" d="M121 886q0 73 42 117q17 18 30 23l37 19q2 1 8 1q16 0 54 -15q50 -19 69 -40q16 -17 46 -54q6 -9 14.5 -22t8.5 -30q1 -19 -8 -41q-11 -30 -61 -77q-30 -28 -68 -28q-39 4 -59 4q-16 0 -23 -1q-27 -8 -39 5l-37 56q-14 21 -14 83zM127 142q0 28 19 55l16 61q19 34 58 48 q30 6 61 13q4 2 33 -9q34 -13 51 -16.5t37 -43.5q25 -51 38.5 -66t13.5 -92v-51q0 -38 -9 -95q-25 -38 -71 -96q-12 -41 -26 -55q-24 -24 -38 -57.5t-15 -34.5q-17 -22 -49 -53q-18 -4 -53 -15q-6 0 -17 7q-18 16 -18 48q0 46 24 91q16 18 44 51q30 40 30 88q0 52 -47 88 q-16 13 -47 37q-34 51 -35 97z" />
<glyph unicode="&#x3c;" horiz-adv-x="1024" d="M49 584q-10 18 9 41q7 9 30 29q17 2 25 1q14 18 22 23q14 12 29 23q40 14 111 49q24 15 40 16q35 0 101 47q18 14 62 21q42 9 68 29q36 28 42 28q34 0 59 20q23 12 162 99q35 22 82 32q21 5 46 -10q28 -17 32 -45q6 -17 6 -25q0 -28 -115 -92q-32 -7 -82 -28 q-32 -26 -110 -64q-36 -18 -60 -36q-15 -17 -54 -29q-44 -14 -54 -21q-43 -14 -86 -26q-51 -36 -65 -44q-35 -21 -75 -32q8 -10 11 -15q23 -8 80 -31q24 -11 51 -22q5 -2 33 -24q21 -16 57 -16q31 0 60 -25q25 -28 69 -63q24 -10 74 -29q14 -14 30 -27q21 -10 78 -10 q25 0 55 -25.5t31 -25.5q47 -17 59 -35q27 -74 27 -76q0 -69 -37 -69q-10 0 -53 20q-33 15 -73 47q-53 12 -124 41q-35 33 -84 53q-89 38 -102.5 55.5t-60 33t-48.5 15.5q-22 18 -55 32q-72 26 -80 32q-42 25 -100 53q-37 11 -51 17q-35 12 -43 22q-11 5 -18 30 q-8 31 -11 36z" />
<glyph unicode="=" horiz-adv-x="1024" d="M21 399q0 43 22 62q27 18 108 18q39 0 95 -5l61 -5q147 10 143 10q66 -2 68 -2q16 0 31 2l29 4q10 0 27.5 -4t19.5 -4q10 -2 18 -2h41q5 0 29 2t34 2q6 0 42.5 -4t45.5 -4q22 2 66 4q21 -8 43 -15q29 -18 22 -59q-10 -57 -71 -57h-29l-36 4q-31 -2 -54 -2q-14 0 -24 2 q-11 0 -29 2t-21 2q-16 0 -52 -8l-89 2q-26 1 -46 -2l-29 -4q-10 0 -40 6q-6 3 -16 3t-25 -3q-30 -6 -44 0q-10 4 -15 4h-14q-35 -4 -70 -6q-13 4 -22 4q-6 0 -36 -4q-15 -2 -26 -2q-10 0 -16 2q-13 0 -36.5 -1t-33.5 -1q-71 0 -71 59zM33 702q10 54 69 54h27q13 -2 37 -4 q9 -2 38 3q33 5 46 5q17 0 47 -2.5t39 -2.5q7 0 12 1q33 -4 54 -4h43q33 0 49 2l34 4q5 0 25 -4q8 -4 22 -4q5 0 27 4t33 4h38q19 0 37 2q13 0 37.5 -4t52.5 -4q38 0 50 -5l104 3q38 0 40 -58q1 -42 -32 -57q-29 -7 -40 -10q-22 -6 -84 -7q-20 0 -27 3q-27 8 -73 8 q-18 0 -47 -1.5t-40 -1.5h-29q-16 2 -20 3q-12 1 -65 -4q-59 -6 -74 -7q-37 0 -70 7.5t-31 7.5q-26 -4 -51 -8q-3 0 -22 -2t-27 -2q-7 0 -37 4.5t-51 4.5q-13 0 -43 -2.5t-33 -2.5q-22 8 -43 16q-30 22 -22 61z" />
<glyph unicode="&#x3e;" horiz-adv-x="1024" d="M45 1012q0 69 37 69q11 0 53 -20q33 -15 74 -47q52 -12 123 -41q35 -33 84 -54q64 -27 106 -57q31 -24 56 -31q42 -10 48 -16q23 -18 56 -31q72 -26 80 -32q40 -24 112 -57q72 -22 83 -36q10 -5 17 -29q8 -31 11 -36q11 -18 -8 -41q-7 -9 -31 -29q-17 -2 -24 -2 q-14 -18 -23 -22q-14 -12 -29 -23q-40 -14 -112 -50q-23 -15 -39 -15q-35 0 -101 -47q-18 -14 -61 -22.5t-68 -28.5q-36 -28 -43 -28q-34 0 -59 -20q-24 -12 -161 -98q-35 -22 -83 -33q-21 -5 -45 11q-28 17 -32 44q-6 17 -7 25q0 28 115 92q31 7 82 29q32 26 110 63 q36 18 60 37q16 17 54 29q44 14 54 21q43 12 87 26q50 36 64 44q35 21 75 32q-8 10 -10 14q-23 8 -81 31q-26 10 -51 22l-28 22q-30 19 -61 19t-60 25q-29 31 -39 41q-18 18 -31 22l-73 29q-16 13 -31 27q-21 10 -78 10q-24 0 -53 24q-31 26 -33 27q-47 17 -59 35 q-27 74 -27 76z" />
<glyph unicode="?" horiz-adv-x="905" d="M86 1354q0 33 19 76q1 1 24.5 42t34.5 52q14 14 70 26q15 3 76 12q6 2 40 -3q39 -5 48 -5q14 0 22 3q18 4 34 4h23q30 0 82 -29l100 -41q52 -23 66 -61q4 -11 59 -83q45 -56 50 -116q4 -31 4 -60q0 -4 -17 -54q-15 -46 -12 -64q6 -31 6 -35q0 -8 -4 -12q-7 -6 -23.5 -66 t-44.5 -82q-37 -29 -47 -41q-49 -73 -110 -100q-18 -6 -29 -15q-30 -25 -49 -34q-23 -13 -38 -42q-20 -39 -21 -40q-30 -36 -33 -66q-27 -53 -27 -90q-22 -59 -23 -86q0 -38 48 -69q32 -21 65 -41q39 -25 39 -87v-30q2 -10 2 -17v-14q0 -27 -10 -43q-3 -6 -28 -27 q-14 -22 -24 -28q-24 -22 -73 -33q-10 -2 -24 -2q-46 0 -113 33q-27 14 -39 32q-26 58 -27 68q0 11 2 19q10 34 10 57q0 10 12 34q14 29 13 30q10 33 88 44q35 0 35 60q0 50 -13 88q-7 21 -7 35q0 13 5 42t5 31q-2 14 9 50.5t11 41.5q8 61 27 88q46 68 55 87q59 113 92 157 q41 56 41 228q0 33 6 75.5t6 40.5q0 16 -4 29q-1 2 -24 49q-38 75 -113 92q-14 3 -40 9q-9 -14 -15 -27q-4 -26 -4 -60q4 -20 4 -28q0 -10 -25 -71q-30 -74 -104 -74q-16 0 -49 8q-118 43 -119 133z" />
<glyph unicode="@" horiz-adv-x="1524" d="M-8 713q0 114 84 225q33 43 44 133l14 124q11 44 55 81q51 34 69 49q50 29 158 94q78 48 155 91q34 18 66 18q13 0 59.5 -12.5t65.5 -12.5q38 0 103 13.5t75 13.5q41 0 88 -10q82 -38 123 -62q74 -44 127 -98q30 -31 79 -124.5t62 -106.5q89 -90 107 -219q2 -14 2 -37 q0 -21 -11 -79q-12 -62 -14 -80l-26 -44l-17 -23q-18 -30 -30 -81q-3 -13 -56 -36q-34 -27 -45 -48q-30 -56 -88 -91q-37 -22 -111 -65q-46 -29 -88 -29q-46 0 -94 26q-14 8 -34 27q-42 38 -64 39q-6 0 -68 -21q0 -1 -70 -46q-60 -39 -98 -40q-14 0 -36 4q-54 10 -70 29 q-10 14 -19 29l-36 29q-13 10 -28 58q-18 55 -44 89q-17 22 -27 58q-5 18 -10 34q-8 13 -2 33q5 2 35 122q18 89 35 115q7 18 22 32q4 3 33 24q53 39 96 119q9 5 37 46q26 39 41 42q14 2 62 -8q42 -9 94 -11q71 -2 55 -2q21 5 26 5q6 0 37 -7q27 -6 42 -4q30 20 108 49 q9 -5 52 -12q36 -6 57 -28q26 -27 26 -77q0 -57 -49 -89q-18 -13 -38 -55q-22 -46 -22 -52q0 -11 -9 -49.5t-9 -40.5q2 -6 1 -13q0 -30 -24 -60q-29 -36 -28 -87q-18 -55 -19 -78q-4 -34 5 -44q5 -7 26 -13q31 -14 56 -15q37 0 48 23l14 38q11 15 18 22q69 26 84 73.5 t67 131.5q13 55 13 102q0 78 -44 186q-14 34 -35 100q-22 46 -85 80q-10 5 -95 74q-53 43 -117 43q-17 0 -63.5 -6t-52.5 -6q-34 0 -82 19q-121 46 -131 48q-94 -45 -183 -132q-115 -116 -169 -251q-47 -116 -47 -276v-55q0 -10 0.5 -30t0.5 -30q2 -187 74 -300 q74 -116 242 -175q70 -24 135 -24q41 0 88 5q110 14 116 15q242 31 327 148q37 26 93 81q15 24 72 54t95 30q49 0 49 -59q0 -21 -29 -43q-47 -37 -59 -51q-39 -73 -66 -99q-50 -50 -184 -108q-90 -39 -176 -104q-33 -25 -51 -37q-14 0 -38.5 -2t-29.5 -2q-80 0 -143 26 q-74 38 -134 66q-58 15 -118 31q-101 27 -140 61q-34 28 -61 69q-30 53 -47 80q-50 78 -121 150q-58 59 -95 139q-18 39 -24 62q-14 46 -14 92zM538 520q2 -4 32 -57q10 -23 32 -31l45 -16q6 -3 14 -3q30 0 37 21q24 21 63 81q12 31 33 55q17 17 19 36q0 13 18 45 q13 22 13 25q15 93 14 100q-2 14 2 21q17 25 17 51v45q0 30 -15 47q-13 15 -40 55q-23 25 -52 25q-60 0 -96 -94q-8 -31 -24 -76q-6 -10 -13 -19q-4 -4 -4 -16q-13 -41 -37 -80q-11 -18 -22 -37q0 -51 -20 -113q-17 -56 -16 -65z" />
<glyph unicode="A" horiz-adv-x="1910" d="M-14 105v20q4 14 4 21q6 20 53 44q10 6 75 20q59 13 84 34q27 13 55 26q53 29 85 78q28 43 61 82q10 23 35 70q5 19 16 51q6 32 30 85q10 10 18 44t17 46q14 17 14 26q2 17 27.5 48.5t28.5 40.5t21 29q22 26 35.5 80.5t24.5 66.5q14 24 43 66q32 37 33 39l12 45 q0 38 22.5 90.5t22.5 94.5q0 30 5 54t5 21q0 24 17 41t18 21q20 26 26 37q19 32 59 40q37 4 73 9q5 1 9 1q36 0 63 -36q21 -31 49 -107q10 -51 53 -81q26 -19 42 -67q13 -41 25 -83q6 -15 7 -22q-4 -45 -4 -66q0 -30 6 -55.5t6 -28.5q0 -30 8 -45q26 -48 40 -96 q11 -38 18 -47t17.5 -50t28.5 -65q4 -27 24 -61q21 -37 25 -54l13 -86q4 -8 6 -22q15 -9 40 -71q7 -39 21 -64q-2 -11 29 -55q8 -26 16 -54q15 -46 50 -62q7 -3 12 -8q8 -10 22 -10q119 0 242 -12q27 0 51 -22q13 -12 13 -33q0 -22 -13 -43q-20 -35 -51 -47q-6 -2 -57 -13 q-14 -8 -27 -8q15 0 -37 12q-14 2 -35 2q-15 0 -37.5 -2t-38.5 -2q-25 0 -61 6q-15 0 -33 -4q-15 -4 -46.5 2.5t-35.5 5.5q-14 -2 -26 -4h-18q-16 0 -29 7q-34 16 -92 16q-18 0 -37.5 -8t-22.5 -8q-19 -8 -61.5 -11.5t-60.5 -10.5q-32 -11 -48 -9q-14 0 -21 2q-16 14 -20 16 q-2 5 -18 4l-46 -2q-17 0 -42.5 12.5t-28.5 12.5q-17 0 -39 -17l-106 -10q-11 -1 -47 -14q-32 -12 -52 -12q-25 0 -39 2q-20 2 -58 -6q-42 -10 -50 -11q-6 0 -54 7.5t-61 7.5q-18 -2 -27 -2q-23 0 -40 2l-33 4q-22 0 -41 -4q-16 -3 -41 1q-31 6 -39 7q-28 0 -51 -3l-23 -3 h-8q-26 5 -53 16q-17 6 -41 37q-2 28 -4 37.5t-2 26.5zM600 274q0 -30 6 -40q10 -18 52 -33q18 -6 43 -29q22 -18 32 -18h41q34 0 52 -8q46 -37 67 -37q8 0 31.5 21t40.5 21q14 0 63.5 -4t61.5 -4q30 0 40 8q14 21 44 50q3 13 12 33q10 27 10 88q0 38 -7 63t-7 22 q0 50 -104 105q-13 6 -25 8q-8 0 -26.5 3t-27.5 3h-22q-10 0 -34 -3t-29 -3q-25 0 -51.5 -11t-32.5 -11q-16 0 -50 6q-14 2 -40 -12q-29 -15 -45 -17q-26 -2 -58.5 -39.5t-32.5 -66.5l-2 -39t-2 -56zM719 723q0 -18 19 -37q7 -8 26 -10l80 -10q20 6 47 6q12 0 19 2 q14 10 22 12l49 28q21 17 21 60v61q0 37 -7 46q-15 19 -33 70q-2 24 -14 32l-26 26q-22 21 -39 21h-1q-12 0 -30 -6q-21 -18 -34.5 -47t-16.5 -33q-29 -29 -29 -49q0 -16 -2 -21q-3 -34 -27 -96q-7 -10 -12 -18q-12 -20 -12 -37z" />
<glyph unicode="B" horiz-adv-x="1620" d="M18 30q0 10 22 31.5t32 26.5t26 4q17 -1 48 -3q37 -2 56 9q7 4 24 12q50 22 69 52q12 18 20 51q0 37 8 61q6 12 7 33q0 7 -2 33t-2 30q0 16 26.5 58t26.5 63q0 15 -7.5 46t-6.5 45q2 45 1 36q0 8 -6 30t-6 40q0 7 8 69q2 15 3 33v25q0 17 -4.5 76t-4.5 79q0 30 4.5 65 t4.5 34v10q0 10 -5.5 41t-5.5 37q0 18 -36 97q-11 24 -21 55q-18 37 -57 47q-32 18 -105 42q-81 11 -81 57q0 31 28 52q25 14 49 31q4 1 15 1q12 0 31 -1q38 -2 65 -2h114q9 0 39 4q7 1 14 1q25 0 57 -11l44 -15q7 0 32.5 9.5t46.5 11.5q28 2 66 2q18 0 64.5 4t50.5 4 q17 0 39 -12q52 -28 72 -28q13 0 25 2.5t13 2.5h15l36 -4q35 4 42 4q9 0 39 -5t43 -5q12 0 33.5 7t25.5 7q29 -4 69 -41q80 -71 120 -100q51 -25 104 -47q57 -39 57 -165.5t-67 -165.5q-35 -19 -58 -64q-6 -12 -29 -21l-39 -13q-21 -4 -51 -16q-22 -34 -33 -55 q-14 -30 -8 -49q14 -48 83 -64q102 -23 123 -33q14 -6 38 -36q35 -31 81 -90q7 -21 7 -51q11 -41 11 -185q0 -61 -7 -73q-26 -26 -76 -69q-14 -16 -60 -54q-10 -6 -40 -43q-42 -54 -149 -54q-25 0 -54.5 -21t-44.5 -21q-6 0 -18 -5q-3 0 -10 -4q-17 3 -74 37q-18 4 -43 18 q-2 9 6 16.5t19 15.5q6 6 40 24q44 23 64 39q49 34 100 72q13 11 27 55q19 59 25 71q15 34 14 66q0 34 -10 94q-12 21 -23 43q-6 43 -16 62q-18 22 -29 37q-26 12 -69 41l-31 35q-10 6 -19 5q-20 -4 -30 -4q-20 0 -58 12q-94 31 -117 32h-12q-8 -4 -10 -4q-12 4 -26 4 q-5 0 -25 -9.5t-31 -9.5q-3 0 -19.5 7t-28.5 7q-6 0 -13 -2l-35 -26q-38 -46 -39 -168v-34q0 -15 2 -29q-4 -33 -4 -42q0 -16 6 -38q4 -66 7.5 -163.5t78.5 -142.5l55 -33q10 -10 10 -18q0 -21 -22 -39t-49 -18q-17 4 -53 4q-14 0 -33.5 -5t-22.5 -5q-15 0 -53 -5.5 t-43 -5.5q-31 0 -68 11q-29 -8 -71 -8q-17 0 -49 4q-16 2 -28 1q-10 0 -16 -1q-49 -13 -84 -13q-22 0 -52 -14q-18 -9 -27 -9q-45 0 -77 28q-28 25 -28 53v7zM643 1050q0 -89 20 -120q9 -29 31 -86q9 -21 27 -27h2q8 0 39 6q40 8 72 8q45 0 63 11q17 14 25 18q11 8 16 8 t16 -6q10 -2 21 -6q14 -4 23 -4q21 7 55 22q63 29 74 70q3 10 20 36q14 22 15 38l-7 43q0 10 -7 86q-3 32 -32 108q-37 98 -74 107q-64 14 -124 47q-23 13 -36 13q-34 0 -73 7q-28 5 -35 5h-2q-10 -6 -16 -16q-6 -14 -23 -25q-12 -10 -20 -25q-11 -12 -33 -37 q-25 -30 -25 -47v-58q0 -6 -6 -56t-6 -120z" />
<glyph unicode="C" horiz-adv-x="1529" d="M55 705q0 2 8.5 58.5t8.5 82.5q0 47 12 68q14 24 23 64q9 37 18 47q19 26 64 81q18 12 32 49q18 46 19 47q13 38 45 104q26 29 59 54q10 9 55 41l74 25q36 12 51 30q29 35 58 43q32 8 48 29q6 6 17 18q16 14 45 15h80q29 4 37 4q20 0 48 -11q35 -12 36 -12q48 -10 69 -57 q8 -17 19 -51q2 -6 2 -12q0 -37 -82 -56q-53 -5 -170 -23q-39 -9 -84 -75q-8 -13 -33 -21q-10 -22 -28 -40q-23 -22 -35 -40q-49 -73 -49 -187q0 -32 6 -102q6 -68 6 -77q0 -18 -2 -27q-21 -82 -21 -131q0 -46 15 -94q10 -35 10 -61l-2 -50q0 -18 31 -90q22 -54 39 -117 q4 -16 12 -24q4 -5 16 -5q34 -48 101 -75q70 -41 133 -41q33 0 115 -10q12 0 74 22q66 24 76 26q18 3 36 5q19 2 23 -4q10 -10 10 -31q0 -41 -43 -80t-95 -39q-16 0 -46 6.5t-31 6.5q-81 -47 -99 -47q-12 0 -42 5t-35 5q4 0 -107 -6q-8 -1 -45 4q-46 10 -78 33 q-46 22 -141 96q-84 90 -150 138q-12 10 -22 28q-76 72 -89 130q-15 31 -34 79q-12 63 -37 104q-31 51 -31 148zM1170 1282q0 63 56 108q4 4 13 23q19 42 23 47q26 36 65 50q7 1 16 1h11q34 0 53 -49q10 -26 11 -135v-51q-2 -17 -3 -21q-1 -8 -1 -16q0 -29 8 -69 q2 -14 9 -52q1 -6 1 -14q0 -22 -13 -50q-3 -6 -29 -52q-6 -10 -32 -3q-22 4 -37 17q-6 4 -23 26l-24 74q-42 38 -86 88q-18 50 -18 78zM1243 201q0 38 22.5 75.5t22.5 44.5q0 17 17 37q14 13 37 58q22 53 36 53q6 -2 29 -20q8 -9 11 -21q1 -12 -3 -21q-6 -30 -37 -114 q-4 -39 -28 -107q-20 -27 -48 -30q-8 -2 -14 -2h-12q-33 0 -33 47z" />
<glyph unicode="D" horiz-adv-x="1763" d="M10 1466q0 15 12 25.5t22 21.5q14 17 46 23q10 2 39 -3l51 -9q43 16 68 16q3 0 30.5 -4t44.5 -4q36 0 72 10q29 -6 39 -6q30 8 62 8q22 0 46 -8l30 4q29 4 46 4q70 0 156 -12q13 -2 31 0q75 8 84 8q30 0 57 -14q30 -22 38 -23q12 0 36 7q37 11 53 12q3 0 82 -31 q37 -14 51 -14q34 0 45 -4l83 -25q18 -6 32 -26q39 -58 96 -95q6 -16 52 -55q10 -26 22 -54q19 -18 39 -62t28 -49t15 -17q20 -38 24 -44q15 -15 25 -44q17 -54 49 -88q14 -15 14 -120q0 -19 3.5 -54.5t3.5 -34.5q-1 -21 -7 -79q-2 -24 -8 -34l-18 -37q-33 -91 -101 -149 q-22 -19 -36 -50q-16 -33 -19 -35q-10 -11 -18 -20q-8 -16 -33 -41q-19 -35 -41 -74q-32 -46 -113 -88q-66 -35 -81 -44q-42 -29 -88 -29q-72 0 -96 45q-17 31 24 48q26 22 68 55q12 10 28 32q6 10 16 21q6 8 11.5 10t13.5 22q18 49 78 119q45 53 45 114q0 17 -4 44.5 t-4 43.5q0 14 5 54t5 94q0 -10 -4 239q-2 88 -31 117q-8 32 -17 50q-15 30 -44 55q-38 34 -46 45q-11 36 -28 86q-2 10 -20 19q-36 15 -44 20l-47 -4q-7 -1 -39 7.5t-46 8.5q-6 0 -28 -3t-26 -3h-43q-21 0 -44 -3l-23 -3h-11q-19 0 -39.5 13.5t-21.5 13.5q-10 0 -41 -21 q-22 -15 -53 -26q-34 -13 -49 -108q-7 -50 -23 -97q-4 -11 8 -62q14 -59 14 -88v-8q0 -20 6 -69q6 -69 6 -99q0 -115 -13 -157q-2 -6 -15 -32q-4 -8 -4 -20q0 -15 2 -24q10 -48 10 -62q0 -40 23 -118q-2 -35 -3 -58q0 -10 3.5 -33.5t3.5 -42.5v-51q0 -45 26 -63 q50 -22 89 -48q2 -1 30 4q33 6 53 7q29 0 46 -13l20 -24q18 -11 39 -27q2 -12 -6 -20l-24 -19q-27 -2 -87 -20q-16 -6 -22 -7q3 0 -30 9.5t-66 9.5q-49 -8 -65 -8h-3q-13 -2 -48 4t-36 6q-5 1 -11 1q-26 0 -81 -12q-70 -15 -119 -15q-25 0 -39 1q-35 2 -91 10q-5 1 -30 5 q8 -2 -57 -12q-22 0 -58 26q-31 18 -31 52q0 5 1 10q21 41 68 51l93 21q37 7 52 78q18 83 24 91q14 12 18 37q1 18 3 60t6 120q-4 68 -4 90q0 11 2 23q10 57 11 98q0 18 -4 37l-5 31q-2 38 -2 67q0 30 3 67t3 61q0 47 -6 96v48q0 51 -6 64q-18 26 -38 91q-17 53 -40 69 q-18 12 -35 12q-29 -4 -57 -4q-39 0 -51 6l-27 31q-6 6 -27 31q-10 11 -8 24z" />
<glyph unicode="E" horiz-adv-x="1636" d="M2 1442q0 39 52 68q47 27 112 34q15 0 45 -8q68 -18 75 -18q24 0 44 6q57 18 69 18q21 0 54 -8q4 -1 13 -1q26 0 87 9l57 -31q27 -14 33 -16q18 -6 33 -6q5 0 37 6t49 6q21 0 51 -6q10 -2 21 0q44 8 59 8q25 0 110 25q14 4 21 4q24 0 55 -10q82 -26 111 -27q27 0 80 13 l64 16q60 0 122 -51q25 -21 25 -80v-27q-2 -9 -4.5 -26.5t-2.5 -30.5v-25l3 -71q-2 -14 -3 -23q0 -34 19 -56q21 -29 21 -73q0 -59 -21 -91q-8 -12 -39 -12q-6 -1 -9 0q-15 0 -25 16q-10 19 -22 38q-12 13 -30 59q-10 48 -29 70q-63 36 -80 83q-10 28 -77 77q-26 26 -53 55 q-21 12 -72 12h-43q-16 2 -20 2q-11 1 -40 -2q-32 -4 -39 -4q-14 0 -51 8l-38 8q-13 2 -23 -4q-52 -15 -104 -31q-41 -17 -62 -53q-16 -27 -16 -118v-32q0 -18 -12.5 -59t-12.5 -51q0 -23 16 -47q22 -31 27 -92q2 -25 19 -35q37 -15 42 -15q8 0 64 21q47 27 136 67 q54 15 54 93q0 37 3 43q8 16 18 35q12 53 35 72q8 8 10 8q20 -8 53 -41q11 -20 18 -51q2 -9 3 -29q0 -31 -29 -129l-11 -98q-2 -20 -1 -31q0 -12 1 -19q5 -15 11 -26q4 -34 9 -56l9 -36q4 -16 4 -44q0 -49 -8 -61q-6 -10 -34 -10q-21 2 -25 2q-18 0 -33 22q-34 52 -57 70 q-47 17 -66 29l-47 40h-63q-3 1 -41 15q-28 10 -58 10q-10 0 -30 -43q-11 -22 -17 -30q-10 -10 -10 -27l-16 -90q-4 -22 -4 -43q0 -24 19.5 -74t19.5 -67q0 -54 37 -135q12 -26 24 -53q13 -23 36 -48q28 -18 132 -19q10 0 36 7q24 6 33 4q14 -4 35 -4q25 0 44 10q6 2 20 15 l45 9q31 20 47 27q26 12 69 12q26 30 101 88q16 10 22 25q20 48 49 92l29 43q29 26 46 80q10 33 34 37q7 1 14 1q26 0 45 -26l25 -32q11 -14 18 -58q9 -60 13 -75v-54q0 -63 -25 -129q-18 -45 -35 -89q-10 -37 -26 -58q-22 -29 -35 -57q-8 -2 -16 -2q-38 0 -78 30 q-50 37 -76 37q-18 0 -43 -10q-14 -6 -29 -3q-14 5 -26 9q-19 0 -37 -6q-40 -14 -80 -15q-10 6 -16 11q-22 19 -50 14q-31 -6 -61 -6q-21 0 -51 6t-29 6q6 0 -43 -24q-3 -2 -12 -3q-8 0 -21 3q-28 4 -51 4q-30 0 -63.5 -10.5t-50.5 -10.5q-42 0 -127 31q-11 4 -48 4h-32 q-34 0 -70 11q-14 0 -76 -38q-30 -18 -62 -18q-85 16 -104 16h-2q-22 0 -33 7q-49 49 -49 52q0 12 25 33q19 17 35 19q38 6 77 17q67 16 82 26t22 44q2 12 23 80q5 18 4 22l-10 51q0 31 9 49q22 50 22 143v258q0 27 -9 68.5t-9 44.5q0 6 13 96q6 35 5 55q0 47 -33 119 q-14 40 -30 86q-19 39 -39 54q-5 2 -54 26q-8 4 -51 -12q-15 -6 -26 -2q-18 10 -33 16q-34 18 -35 76z" />
<glyph unicode="F" horiz-adv-x="1642" d="M21 92v10q0 38 29.5 57t87.5 19q38 0 106 24q27 6 63 15q9 3 35 47q41 70 41 101q0 12 -11 68.5t-11 68.5q0 13 2 24.5t2 15.5q0 3 -7 28q0 30 13.5 76.5t13.5 43.5l9 80q2 8 -4 36l-7 28q-2 13 7 56q10 52 12 61q2 27 1 43q-2 53 -1 46q0 14 1 34l6 52q2 27 3 33 q-10 92 -14 111q-14 63 -53 80q-33 15 -158 23q-119 7 -140 53q-4 9 -4 24q0 59 67 90q3 2 10 2q-6 0 52 -8q13 -2 42 3l54 9q70 -15 99 -15q6 0 10 1q36 6 53 6q4 0 39 -4t55 -4q10 0 64 -13q20 -6 33 -6q17 0 77.5 9.5t75.5 9.5q18 -2 27 -2q60 0 125 -29q33 -14 35 -33 q1 -10 -37 -23q-46 -16 -64 -42q-2 -2 -29 -15.5t-37 -27.5q-22 -33 -30 -108q-17 -55 -17 -97.5t-12 -83.5q-10 -16 -10 -51q0 -2 6 -60q2 -20 39 -44l56 -28q18 -9 38 -8q60 2 54 3q20 3 48 26q17 14 33 29q9 6 37 62q10 6 17 14q6 6 28 36q18 25 25 25q26 -4 78 -39 q20 -24 20 -49v-35q0 -18 2 -35q0 -73 -22 -149q-6 -21 -6 -33q0 -2 6 -32.5t6 -53.5q0 -9 -2 -29q-2 -24 -3 -33q-1 -13 -3 -43v-26q0 -22 13 -69q10 -35 10 -50q0 -19 -19 -24q-16 -4 -33 -3q-14 0 -42 27t-41 53q-18 36 -25 64q-10 32 -27 105q-10 44 -76 100 q-48 41 -108 41q-55 0 -80 -46q-37 -69 -37 -156q0 -22 2 -86q2 -62 2 -74q0 -17 15 -43q9 -14 18 -27q17 -50 32 -70l27 -24q32 -7 119 -50q22 2 38 2q9 0 21 -4q7 -2 36.5 -26t33.5 -33q1 -9 1 -18q0 -38 -30 -56q-23 -14 -62 -20q-44 -7 -118 -7h-35l-78 3q-12 6 -55 5 l-62 13l-28 -8q-14 -5 -28 -5t-47.5 8.5t-39.5 8.5q-14 0 -22 -8q-22 -17 -87 -28q-81 -14 -108 -23h-1q-6 0 -50 12q-8 2 -22 2q-19 -2 -29 -2q-62 0 -113 43q-14 12 -19 27zM1086 1456q-2 2 -2 7q0 7 4 17q6 18 12 21q30 21 51 21q16 -2 27 -2q1 0 31.5 5t49.5 5 q17 0 60 -6t51 -6q4 0 47 8t53 8q59 0 94 -60q13 -24 15 -26q16 -22 16 -66q4 -43 4 -67q0 -19 -6 -49.5t-6 -34.5q5 -17 11 -43q1 -7 1 -16v-10q0 -51 -16 -79q-9 -26 -51 -38q-3 -1 -6 -1q-17 0 -33 27q-5 9 -19 43q-17 24 -44 74q-8 17 -34 47q-25 28 -32 31 q-27 13 -70 49q-11 9 -102 79q-14 11 -35 28q-20 4 -39 9.5t-32 24.5z" />
<glyph unicode="G" horiz-adv-x="1697" d="M43 706q0 94 20 116q14 41 33 89q13 16 29 37q0 46 17 109q2 30 20 77q10 12 10 15q22 40 74 109q18 18 43 30q10 5 18 14q26 34 43 44q41 46 70 59q76 36 113 82q13 13 67 33q83 3 121 8q75 10 112 33q42 26 60 26q6 0 27 -8.5t32 -9.5q30 -25 105 -66q30 -23 96 -57 q10 -8 33 -8q35 0 72 26q37 22 67 37q48 25 57 23q25 -2 49 -49q22 -40 29 -82q2 -11 2 -33q0 -106 -11 -141q-8 -19 -21 -72q-2 -65 -15 -148q-8 -13 -21 -24q-21 -18 -30 -10q-22 14 -53 74t-57 77q-1 1 -25 52q-6 12 -31 30q-36 25 -102 115q-26 34 -76 61q-43 15 -47 16 q-22 6 -47 7q-25 0 -68 -17q-3 -1 -18 4.5t-21 5.5t-27.5 -8t-35.5 -8q-17 2 -25 2q-50 0 -96 -57q-22 -28 -37 -39q-55 -42 -67 -91q-2 -9 -25 -69q-18 -46 -19 -75l3 -37q0 -13 -15 -64q-18 -64 -21 -96q0 -30 -2 -114t-2 -99q0 -70 12 -115q14 -53 13 -78q-6 -26 -6 -39 q0 -16 40 -93q22 -33 52 -95q6 -23 18 -33q34 -28 71 -55q43 -27 200 -27q33 5 68 9q8 -2 38.5 7t42.5 9q9 0 37 -4h47q6 0 7 -4q0 -3 -4 -25q-6 -31 -33 -62q-22 -24 -51 -42q-26 -13 -84 -27l-68 -16q-6 -2 -30.5 -11.5t-26.5 -9.5q-31 0 -92 37l-79 32q-38 15 -108 25 q-42 17 -82 36q-14 4 -20 12q-14 18 -20.5 22t-72.5 96q-26 38 -104 90q-74 66 -84 107q0 10 -38 84.5t-38 144.5q0 13 -6 54zM999 680q0 19 47 52q17 11 44 11q22 0 30 -4q12 -11 47 -20q21 0 105 47q3 1 8 1q25 0 96 -28q2 0 25 5.5t33 5.5q2 0 30.5 -4t41.5 -4 q19 0 46 10q35 13 38 13q14 3 38 3q10 0 43.5 -22t38.5 -29q16 -25 16 -49q0 -46 -73 -62q-29 -6 -76 -6q-38 -5 -79 -46q-36 -35 -36 -83q0 -11 4 -34.5t4 -24.5q-5 -10 -8 -21q-18 -61 -18 -133v-41q0 -65 -8 -84q-33 -33 -54 -42q-10 -5 -59 -9q-22 -2 -29 -2 q-2 0 -46.5 9t-85 9t-52.5 29q20 74 20 104q0 9 8.5 51t8.5 46q-2 30 -2 51q20 70 20 90q0 30 -16 45.5t-23 19.5q-37 66 -63 84l-39 27q-25 19 -25 35z" />
<glyph unicode="H" horiz-adv-x="1800" d="M4 102q0 28 37 58q31 18 73 18q9 0 113 -12q17 4 37 20q10 8 33 33l49 53q16 33 16 90q0 14 6 45.5t6 46.5q0 7 -2 27t-2 27l-18 133q0 63 9 92q24 88 24 125q0 26 -27 119q-12 42 -12 69q0 13 5 50t5 49q0 62 -33 109q-13 28 -37 74q-9 14 -31 22l-38 14q-22 17 -68 45 q-18 9 -39 9h-32q-32 8 -49 48q-6 14 5 34.5t25 27.5q18 8 46 20q35 14 69 14q38 0 156 -34q19 -6 105 -18q28 -4 56 -4h60q74 -21 111 -21q26 0 51 16q63 41 80 41h1q105 -10 121 -61q1 -2 1 -5q0 -20 -43 -69t-78 -49h-1q-11 0 -51 22q-42 0 -55.5 -13t-31.5 -91 q-2 -10 -15 -48q-10 -30 -11 -44q0 -39 17 -97l3 -75q3 -74 44 -115q29 -29 60 -29q50 0 84 -18q24 -12 47 -12q14 0 22 2q18 16 41 16q66 -16 82 -16h104q43 0 58 2q98 14 98 127l12 76q0 2 -4 26t-4 35q0 14 3.5 46.5t3.5 31.5q0 62 -39 102l-74 76q-14 15 -26 20 q-15 7 -46 37l-37 23q-10 8 -14 18q-6 22 39 39q60 22 102 23q3 0 42 -3.5t48 -3.5q56 0 107 15q14 4 31 1q16 -3 26 -3q14 0 29 2h10q18 0 55 -4q3 0 31 6t53 6q40 0 68 -27q20 -18 31 -42q4 -17 4 -23q0 -16 -19 -40l-40 -48q-6 -6 -50 -49q-27 -27 -34.5 -45t-14.5 -38 q-10 -14 -18 -27q-14 -22 -13 -48q2 -64 2 -55q0 -48 2 -103t2 -111q0 -27 -0.5 -65t-0.5 -49q0 -14 4 -25q8 -22 8 -121q0 -16 -7 -28l-16 -33q-8 -18 -8 -63q0 -73 24 -160q24 -90 56 -125q29 -31 83 -49q26 -8 36 -21l39 -22q26 -16 26 -47q0 -40 -43 -62q-3 -2 -9 -2 t-16 2q-18 4 -24 4q4 0 -53 -8q-6 -2 -25 2q-21 4 -26 4q-22 0 -109 -14l-47 9q-48 9 -53 7q-92 -30 -139 -30q-17 0 -66 24q-39 8 -76 19q-15 11 -16 14q0 30 51 53q62 28 71 47l21 21q27 27 31 78q2 29 2 53q0 12 18.5 92t18.5 100v13q-4 7 -4 10q-6 50 -11 98 q-15 102 -48 123q-22 14 -58 15q-35 0 -142 -27q-10 -2 -31 12q-26 17 -38 21q-23 6 -45 6q-12 0 -23.5 -1t-13.5 -1q-48 -21 -84 -21q-6 0 -25.5 2t-25.5 2q-25 0 -47 -20l-43 -27q-18 -18 -19 -84q-1 -9 -8 -42q-6 -30 -6 -33q-1 -5 5 -32q7 -30 8 -48q0 -80 4 -124 q3 -35 14 -122q6 -41 19 -58l23 -32q13 -17 24 -19h40q14 -4 15 -26q0 -21 -21 -25h-29q-85 -53 -147 -53h-2q-18 0 -45 18q-14 10 -21 10h-3q-14 0 -68 -16q-34 -10 -68 -10q-14 0 -41.5 -10.5t-25.5 -10.5q-25 9 -48 15q-10 0 -16 -2q-14 -6 -31 -13h-8q-24 0 -53 9 q-51 11 -117 37q-8 8 -20 18q-25 20 -25 63z" />
<glyph unicode="I" horiz-adv-x="925" d="M25 1444q0 46 42 74q23 14 31 12q46 -16 58 -16q65 8 70 8l79 12q2 0 61.5 -10t82.5 -10q18 0 118 24q4 0 68 -14q36 -9 49 -9q-1 0 36.5 10.5t59.5 10.5q43 0 80 -28q29 -21 29 -58q-1 -13 -7 -19q-14 -20 -26 -38q-21 -22 -47 -23q-11 -2 -80 -31q-17 -7 -66 -45 q-22 -49 -22 -80q2 -21 2 -34q0 -14 -7 -70.5t-7 -75.5q16 -77 16 -145q0 -38 -15.5 -88t-15.5 -54q-14 -42 -14 -122v-25q0 3 4 -24.5t2 -49.5q-6 -37 -6 -80q0 -18 4 -51t4 -73q0 -54 4 -66q2 -6 39 -79q34 -66 76 -67q10 -2 37 11q6 3 14 6q16 -7 20 -10q21 -16 21 -41 q0 -57 -39 -72q-10 -4 -49 -4h-30q-31 0 -56 8q-18 4 -57 -12q-25 -10 -60 -10q-15 0 -59 20q-26 12 -62 12q-46 -30 -77 -30q-12 2 -20 2q-29 -6 -56 -6q-22 0 -67.5 12t-48.5 12q-21 -4 -28 -4q-14 -2 -16 4q-21 17 -20 51q0 27 20 54q17 2 55 7q3 1 41 18q33 14 58 13 q13 6 26 46q4 11 23 102q9 43 13 51q34 80 34 176q0 2 -18 150q10 82 10 86q0 54 -10 76q-19 47 -19 76l21 94q2 16 2 24q0 27 -4 71l-3 46q0 31 -22 82q0 38 -6 53q-44 58 -88 63q-47 0 -64 5q-50 21 -84 30t-34 62z" />
<glyph unicode="J" horiz-adv-x="1394" d="M39 305q0 61 20 105q22 20 54 51q12 12 55 37q26 21 53 20q67 14 89 15q52 0 90 -50t38 -114q0 -47 -24 -84q-22 -43 -29 -74q-7 -37 -27 -88q-11 -29 -2 -39q15 -30 42 -66q44 -28 79 -28h2q26 0 63 20q18 10 25 11q44 -5 58 -5q78 0 121 56l28 28q15 18 23 51q2 7 1 15 q0 14 -5 28q-9 22 -9 32q0 20 10 48q4 17 4 29q0 8 -8 66q-9 54 -8 59q2 6 18.5 37.5t16.5 87.5q0 26 -5 85l-5 60q0 14 4 44q0 10 -6 32v74q0 83 -21 160q-7 29 -4 51q4 24 4 75q0 28 -4 40q-2 5 -15 67q-10 46 -27 65q-31 36 -163 72q-49 9 -117 23q-22 12 -26 47 q0 31 35 47q46 20 92 20q22 0 47 -18q18 -18 39 -18q14 0 32 6q32 10 62 21l55 5q-1 0 97 27h4q14 0 53 -17q49 -22 70 -22q8 0 49 12q45 14 51 15q2 0 27 -8t33 -8q18 0 70 19q20 7 57 7q29 0 34 -2q19 -6 23 -33q6 -22 6 -37q0 -62 -62 -89q-74 -32 -92 -41 q-52 -26 -57 -44q-11 -39 -15 -43q-28 -29 -28 -69q6 -35 6 -52q0 -14 -8 -28q-29 -100 -29 -104q0 -5 6.5 -40t6.5 -55q0 -54 -13 -189q-2 -7 -1 -17q0 -11 1 -27q4 -30 4 -52q0 -39 9 -174q4 -67 4 -70q0 -82 -27 -140q-18 -32 -45 -79q-22 -16 -62 -73q-22 -24 -63 -72 q-43 -51 -69 -51q-25 14 -45 15q-11 0 -39 -15q-31 -17 -37 -18q-14 -4 -31 -4q-32 4 -64 5q-51 -20 -69 -20q-14 0 -37 6q-5 2 -24 -17.5t-30 -19.5h1q0 3 -89 37q-24 2 -73 10q-22 12 -41 21q-41 30 -55 39q-38 16 -74.5 60t-42.5 78.5t-12 41.5q-33 36 -33 131z" />
<glyph unicode="K" horiz-adv-x="1740" d="M8 1442q0 73 51 78q29 0 54.5 5t29.5 5q3 0 35 -12t57 -12q27 0 101 24q6 0 27 -8t26 -8q1 0 31 5t45 5q14 0 41 -5t36 -5q11 0 78 12t85 12q46 0 168 -35q9 0 41 13.5t44 13.5q37 0 56 18q29 14 64 14q17 0 177 -34q13 -3 32 7.5t22 10.5q10 0 37 -10q31 4 51 0 q10 -2 37 -2h51q14 4 33 8q10 2 19 2q29 0 53 -19q30 -23 30 -51q0 -9 -12 -24q-16 -20 -21 -31q-34 -61 -86 -69q-8 -2 -41 2q-36 4 -37 4q-10 1 -32 -22.5t-49 -23.5q-24 0 -74 -44q-52 -45 -58 -45q-22 2 -35 1q-18 0 -26 -12q-22 -37 -41 -26q-25 24 -25 53 q-6 46 -25 76q-26 42 -83 73q-17 16 -69 40q-48 23 -64 22h-2q-12 -2 -62 -33q-35 -22 -77 -33q-50 -13 -86 -56q-15 -19 -17 -71t-32 -102q0 -19 4 -55t5 -37q0 -30 -9 -72q-2 -8 -3 -17q0 -26 18 -58q23 -42 45 -58q7 -6 25 -2q42 10 59 14q87 18 116 62q41 66 60 80 q19 19 62 51q18 10 27 10q12 0 35 -18q30 -25 36 -64q9 -46 23 -78q0 -22 10 -67l24 -83q5 -18 52 -75q114 -62 130 -144q10 -48 17 -65q2 -4 19 -23q33 -90 94 -128q17 -33 39 -72q6 -10 45 -35q20 -13 25 -21q12 -22 55 -43q49 -23 53 -27q15 -14 58 -28q26 -8 26 -38 q0 -51 -51 -52q-21 0 -37 12q-26 21 -41 11q-51 -37 -93 -37q-8 0 -16 2l-70 20q-56 17 -95 17q-12 0 -35.5 -10.5t-22.5 -10.5q-9 0 -45 11q-29 -6 -51 -7q-42 0 -125 37q-12 6 -12 18q0 6 4 15q35 28 74 72q2 15 2 29q0 48 -24 83q-23 23 -36 62q-6 22 -12 43 q-13 18 -35 26q-27 10 -62 81q-42 85 -73 114q-30 24 -62 52q-6 12 -12 22q-9 14 -18 14q-26 6 -37 6q-4 0 -21 -30q-22 -41 -77 -87q-17 -14 -26 -53q-5 -25 -9 -49q-14 -49 -14 -75q6 -29 6 -48q0 -9 -9.5 -45t-9.5 -43q0 5 27 -57q6 -14 16 -41q4 -14 37 -26 q30 -20 35 -25q24 -23 20 -47q-4 -26 -47 -45q-13 -6 -77 -23q-31 -8 -58 -8q-20 0 -49 7q-34 8 -43 9q-24 1 -71 4q-21 1 -66 12l-49 7q-14 0 -84 -25q-34 -12 -57 -12q-21 0 -33 2q-50 16 -50 49v6q2 14 52 39.5t79.5 29.5t40.5 11q9 5 29 29l66 57q7 6 11 64q2 33 5 65 q0 24 -2 43l-4 39q0 6 6 33t6 47q0 9 -2 30t-2 30q-5 30 -13 60q-7 26 -8 33q0 9 4.5 38t4.5 45q0 22 -6 48q-14 63 -15 103q2 8 -6 54q-8 50 -8 55q0 6 8.5 45t8.5 65q0 60 -17 146q-22 114 -188 114q-64 0 -64 70z" />
<glyph unicode="L" horiz-adv-x="1580" d="M7 1438q0 31 28 43q28 16 82 16q18 0 57.5 19.5t46.5 19.5q8 0 36 -11.5t46 -10.5q58 2 55 1q15 0 48 -4q29 -3 48 0q22 4 60 15q16 2 24 2h32q33 0 73 8q3 1 6 1q17 0 41 -17q14 -10 20 -10q8 0 46 6t49 6q2 0 26 -4q30 -5 69 -8q84 -7 94 -43q7 -23 30 -44q6 -14 6 -22 q0 -14 -8 -25q-10 -15 -28 -38q-21 -25 -44 -25q-14 0 -45 8t-47 8q-35 0 -136 -35q-27 -10 -36 -26q-2 -4 -9 -38q-5 -23 -5 -60q0 -11 6 -47.5t6 -53.5q0 -28 -7 -77t-7 -64q0 -10 4 -36q3 -22 2 -36q-6 -40 -6 -104v-78q0 -38 2 -78q-4 -45 -4 -82q0 -74 33 -182 q-5 -21 -5 -39q0 -13 2 -21q34 -126 148 -126h29q21 0 32 1t50.5 10t52.5 9q35 -10 48 -11q8 0 13 3q61 10 142 39q13 13 51 34q5 6 42 87q10 14 32 104q10 46 18 55l33 53q14 69 43 69q22 0 55 -24q8 -6 16 -55q8 -55 15 -67q10 -21 10 -54v-45q0 -17 -10 -98q0 -18 10 -55 q1 -4 1 -10q0 -10 -3 -24q-6 -34 -6 -49q-2 -24 -3 -49q-3 -20 -11 -26q-79 -51 -134 -51q-19 0 -63 -10.5t-62 -10.5q-26 0 -88 19q-17 6 -45 6h-96q-54 0 -110.5 12.5t-57.5 12.5q-28 0 -78 -7q-40 -12 -86 -12q-14 0 -43 4t-35 4q-12 0 -19.5 -1t-27 -9t-24.5 -8 q-2 0 -30.5 10t-60.5 13q-101 10 -101 11h1h-16q-30 0 -77 -15t-52 -15q-19 0 -48.5 9t-39.5 9q-17 -2 -23 -2q-35 0 -35 39q0 24 27 40q38 23 71 25q23 1 29.5 6t63.5 36q48 26 49 40q0 10 13 37q18 34 18 35q6 17 6 62q-1 2 7 56q9 62 9 99v37q-5 30 -4 42q3 70 4 70v-3 q0 43 -22 80q-12 20 -12 59v6q0 43 12 88q30 111 30 164v70q0 73 -14 84q-19 14 -32 53q-12 35 -24 39q-17 14 -34 29q-40 27 -94 33q-26 0 -48 5q-60 18 -61 19q-23 8 -32 20t-9 41q-1 8 -1 15z" />
<glyph unicode="M" horiz-adv-x="2083" d="M6 29q-1 8 -1 16q0 27 16 47q19 22 72 62q26 14 79 14q46 0 68 14q6 3 34 33q32 19 40 75q6 46 63 177q17 38 17 162q0 15 9 88q4 30 4 59q-16 36 -24 50q-25 42 -25 60q0 33 37 52q16 9 27 8q49 0 49 -136v-5q0 -32 21.5 -80.5t21.5 -50.5q2 -41 2 -45q0 -12 -6 -59.5 t-6 -67.5v-25q4 -18 4 -27v-59q0 -32 -4 -60.5t-4 -33.5q0 -7 6 -31q8 -30 10 -52q3 -26 50 -94q26 -40 74 -55t48 -35q0 -28 -30 -28q-10 0 -46 14q-10 5 -28 -2q-22 -8 -27 -8q-159 -27 -154 -27q-34 0 -69 -9.5t-46 -9.5q-15 0 -30 5q-22 8 -24 9q-6 2 -55 -15 q-35 -13 -51 -13h-2q-4 1 -5 0q-106 30 -115 83zM29 1438q0 38 41 65q21 4 72 4h32q40 0 80 6.5t41 6.5q10 -2 19 -2q12 -4 34 -4h50q36 0 84 -19q18 -7 60 -29q13 -6 60 0q45 6 60 7q65 0 96 -22q19 -13 40 -75l28 -82q3 -30 11 -88q2 -14 30 -52.5t28 -49.5 q0 -37 24.5 -84t24.5 -70q0 -31 8 -49q10 -15 35 -57q23 -42 72 -125q14 -14 23 -14q4 0 21 9.5t35 12.5q24 4 37 31q2 2 6 2q3 -1 7 -2q16 -11 16 -35q0 -6 -24 -39q-27 -35 -32 -52q-7 -24 -7 -44q6 -27 6 -39q0 -18 -21 -41q-10 -23 -35 -58q-34 -23 -34 -58q0 -9 2 -18 q8 -36 8 -104q0 -166 -22 -196q-41 -36 -66 -36q-7 0 -14 3q-49 22 -70 68l-25 163q-21 86 -29 116q-15 51 -31 76q-12 20 -24 77.5t-18 64.5q-31 40 -43 60q-18 29 -23 53q-14 67 -39 128.5t-30 85.5q-25 117 -106 117h-1q-39 0 -59 -24q-17 -21 -25 -14q-10 41 -58 147 q-68 120 -153 172q-18 11 -49 11q-66 -2 -66 -3h2q-44 0 -56 23q-33 58 -33 76zM1282 45q0 10 10 21q86 35 106 63q26 35 47 97q14 43 14 63q0 7 -2.5 16t-2.5 14q0 14 5 35q6 26 11 56q2 13 3 14v14q0 10 -6.5 49.5t-6.5 57.5q0 22 12.5 91.5t12.5 80.5q0 83 -16 125 q-9 22 -9 39t2 31l4 30q0 55 -16 70q-7 5 -19 2q-6 -3 -33 -15q-6 -2 -27 -18t-25 -16q-6 -2 -27 33q-13 38 -31 85q-1 2 -1 6q0 9 8 31q11 31 11 62q18 127 40 172q10 42 15 55q12 33 29 47q35 35 95 35q16 0 37.5 -11t38.5 -11q27 0 96 26q82 20 145 20q37 0 68 -5 q61 -3 144 -14q40 -12 40 -54q0 -17 -10 -31l-55 -64q-4 -2 -27 -1h-35q-59 0 -80 -45q-26 -58 -26 -68q4 -22 4 -35q0 -3 -23 -78q-5 -14 -7 -194q-1 -66 -1 -144v-135q0 -18 2 -80v-5q0 -21 -6 -79q-6 -68 -6 -85q0 -18 2 -28q12 -49 12 -117v-11q0 -35 36 -66 q7 -6 71 -47q14 -14 41 -29q12 -6 55 -26q37 -17 37 -56q0 -26 -29 -26h-27q-26 0 -54 -6q-35 -7 -55 -9q-25 -2 -75 -9q-42 -5 -47 -5q-40 0 -86 29q-10 6 -23 6q-6 0 -55 -8t-65 -8q-23 0 -33 4q-23 10 -45 10q-14 0 -41 -10q-5 -1 -10 -1q-14 0 -37 7q-74 23 -74 53z" />
<glyph unicode="N" horiz-adv-x="1836" d="M37 1431q0 95 94 105h8q27 0 81 -10q66 -13 65 -12q10 0 76 24q31 11 41 8l92 -26q42 -12 100 -18q48 -5 72 -15q6 -5 35 -21q4 -2 28.5 8.5t26.5 10.5q18 -2 41 -19q12 -9 12 -36v-37q0 -50 14 -91q13 -35 47 -63q58 -47 65 -55q11 -15 19 -62q8 -50 44 -69 q62 -37 84 -68q10 -14 28 -43q15 -16 32 -31q19 -21 25 -45q17 -59 47 -82q35 -45 58 -53q43 -22 62 -22q10 0 16 1l16 9q16 8 43 8q31 0 27 27q-27 94 -27 114q6 28 6 74q0 38 -10 70q-6 12 -7 42q0 5 4.5 29.5t4.5 37.5t10 50.5t10 50.5q0 48 -47 88q-26 22 -49 28 q-94 18 -157 63q-47 34 -48 73q0 14 27 48q10 14 22 14q4 0 42.5 -2t60.5 -2q54 0 115.5 -12.5t54.5 -12.5q25 0 92 23q3 0 24.5 -6t33.5 -6q74 0 118 26q21 13 35 13h2q18 0 50 -31q40 -39 40 -74q0 -57 -59 -67q-182 -34 -219 -177q-8 -31 -8 -42q0 -2 2 -24.5t2 -39.5 q0 -37 -11.5 -72.5t-11.5 -38.5q0 -49 31 -129q4 -29 4 -78q0 -64 -7 -92q-4 -18 -5 -33q2 -18 1 -42v-138q0 -66 -5 -116.5t-5 -65.5v-49q-4 -31 -4 -47q0 -14 11.5 -37t11.5 -37q0 -22 -13.5 -45.5t-25.5 -23.5q4 0 -87 24q-38 10 -56 20q-22 22 -46 44q-20 18 -40 35 q-39 41 -49 74q-18 63 -61 83q-40 18 -63 87q-11 36 -69 105q-14 20 -45 54q-28 16 -76 102q-30 53 -76 90q-14 11 -24 27l-29 41q-21 21 -64 68q-16 20 -30 40q-18 18 -45 18q-19 0 -67 -19q-22 -9 -32 -93q-3 -25 -3 -39q0 -30 3 -53l6 -56q0 -8 23 -93q10 -42 13 -89 q3 -56 4 -63q6 -30 6 -45v-22q-2 -42 -3 -52q0 -78 36 -112q6 -23 37 -69q21 -18 59 -18h4h10q50 0 85 -18q42 -22 42 -63q-14 -82 -121 -82h-111q-15 0 -36 -5.5t-33 -4.5q-53 2 -50 1q-16 0 -22 -1q-41 -21 -86 -21q-6 0 -33.5 8t-37.5 6q-20 0 -35 -2q-74 -10 -82 -10 q-21 0 -45.5 8t-34.5 8q-58 0 -81 32q-15 22 -15 34q6 55 45 94q51 51 113 51q26 -4 40 -4q21 0 40 11l77 57q29 33 29 72q0 95 3 111.5t30 60.5q14 23 14 43q0 1 -7 43.5t-7 68.5q0 58 -23 148q-1 10 7.5 41t8.5 53.5t6 55.5q6 29 5 38q-2 19 -13 51q-28 93 -30 102 q-4 23 -19 54q-21 44 -22 51q-14 38 -68 66q-11 6 -20 5q-29 -8 -47 -8q-2 0 -20.5 4.5t-31.5 3.5q-41 -2 -49 -1q-22 6 -51 30q-45 39 -45 92z" />
<glyph unicode="O" horiz-adv-x="1683" d="M49 789q0 38 14 71q16 53 54 128q17 18 18 24q19 60 31 90q22 59 72 102q19 18 63 94q22 38 69 78q17 6 48 29q18 22 86 58q26 6 53 14q34 10 58 31q54 46 151 46q10 0 44 -5t51 -4h3q18 0 65 -11q75 -18 80 -19q34 -6 64 -8q27 -8 49 -30q38 -38 92 -64q94 -44 154 -129 q9 -13 35 -30q42 -30 68 -67l42 -58q26 -29 33 -43q22 -31 32 -103q11 -78 32 -113q16 -27 16 -49q0 -12 -11 -38q-14 -31 -20 -65q-8 -46 -10 -50l-16 -66q0 -21 -7 -47l-14 -61q-10 -70 -34 -125q-3 -18 -23 -47q-38 -30 -84 -88q-36 -26 -97 -84q-20 -25 -48 -44 q-42 -30 -99 -88q-12 -12 -53 -26q-28 -10 -56.5 -25.5t-66.5 -15.5q-18 0 -33 2l-28 4q-10 0 -51 4t-68 4q-70 2 -91 8q-30 10 -118 62q-10 8 -27 8q-33 -6 -63 -10q-78 21 -86 25q-44 16 -112 88q-14 26 -42 72q-10 14 -47 42q-41 30 -49 37q-19 16 -33 59 q-36 118 -63 170q-14 27 -14 48q0 10 12 37t12 34q0 18 -18.5 41.5t-18.5 102.5zM453 768q8 -67 8 -160q0 -30 26 -135q14 -56 15 -119q4 -46 20 -82q10 -23 39 -70q25 -27 61 -73q48 -70 168 -70l40 10q32 7 59 7q33 0 76 -6l43 -7q30 0 90 33q38 21 47 29q22 18 39 57 q1 3 24 64q13 30 18 73l9 75q0 2 5 120q1 25 22 64q6 18 6 48q0 26 -9 59q-10 41 -12 57q-4 34 -8 71q0 223 -21 270q-9 27 -28 76q0 1 -44 118q-26 74 -52 83q-53 21 -80 47q-39 38 -63 38q-10 0 -15 -7q-21 -16 -43 -16q-53 10 -55 9q-61 -28 -109 -28q-24 0 -90 -24 q-14 -5 -18 -21q-7 -28 -36 -66q-26 -34 -28 -47q-2 -21 -45 -154q-27 -83 -41 -137q-18 -110 -18 -186z" />
<glyph unicode="P" horiz-adv-x="1628" d="M-18 1426q-2 5 -2 10q0 16 18 38q28 34 86 55q36 13 94 13h8q97 0 131 -16q15 -6 33 -12q20 0 45 8q55 18 139 18q29 0 64 -14.5t56 -14.5q26 -4 41 -8l34 -8q19 3 72 29q46 22 80 22q29 0 57 -10l54 -19q18 -6 39 -23q18 -14 23 -13q17 0 46.5 13t54.5 13q70 0 87 -17 q13 -13 75 -24q10 -2 37 -18q25 -14 36 -14q21 2 33 2q24 0 68 -54q14 -18 55 -61q57 -59 57 -123q0 -11 5.5 -40t5.5 -32q-1 -22 -11 -40q-17 -31 -37 -52q-10 -10 -34 -28q-25 -33 -47 -66q-22 -25 -49 -55q-9 -8 -76 -19q-83 -14 -134 -32q-14 -5 -32 -4q-49 2 -39 1h-13 q-7 -4 -9 -4q-50 -26 -103 -26q-46 0 -55 14q23 12 39 29l73 37q27 29 39 37q62 42 84 95q19 50 19 158q0 18 -39 116q-10 26 -19 34q-19 14 -59 55q-26 34 -34 43q-6 9 -11.5 19t-17.5 10q6 0 -31 -6q-12 -2 -15 -2q-30 8 -51 8q-12 0 -26 -4l-40 -11q-26 -7 -55 -7 q-50 0 -93 -39q-18 -16 -48 -103q-15 -41 -35 -133q0 -20 11.5 -57.5t11.5 -63.5q0 -89 31 -160q14 -34 14 -61q0 -25 -10 -43q-18 -21 -27 -35q-18 -26 -27 -45q-14 -31 -14 -72q0 -39 16 -109q9 -42 9 -87q1 -3 18.5 -21.5t20.5 -27.5q6 -14 5 -33q-2 -54 -1 -50 q0 -20 1 -40q14 -58 132 -103q38 -13 88 -33q18 -11 18 -30v-5q0 -36 -63 -65q-23 -10 -49 -10q-10 0 -42 3t-38 3q-37 0 -92.5 -7t-59.5 -7q-38 0 -84 8q-22 4 -42 4q-27 0 -64 -6l-74 12q-15 0 -45 -10q-71 -25 -105 -25q-18 0 -26 3q-33 8 -68 14q-65 25 -65 67 q0 21 24 46q22 18 64 22q29 0 57 16q38 22 41 23q36 9 39 10q22 13 51 62q10 18 17 92q7 85 8 88q4 17 4 49q0 27 -6 67l1 -4q3 0 3 133q-2 9 -2 15v14q0 22 8 76t8 63q0 6 -9 49.5t-9 65.5q0 46 10 115q4 28 2 37q-10 90 -16 124q-17 88 -88 112q-28 2 -84 8q-20 3 -37 4 q-10 0 -32 -2t-27 -2q-29 0 -52 30q-11 15 -28 54z" />
<glyph unicode="Q" horiz-adv-x="1734" d="M54 774q0 34 16 72q19 44 22 68q6 44 39 85q22 59 27 71q20 44 53 85q36 46 73 91q15 22 15 50q8 26 31 42q30 20 36 30q3 5 48 50q69 69 243 69h5q29 0 76 41q79 37 93 37q18 0 46 -15q15 -8 24 -8q4 0 24.5 4t35.5 4h71q21 2 29 2q48 0 76 -20q66 -49 114 -70 q42 -18 51 -24q32 -18 63 -37q47 -29 68 -75q26 -57 45 -75q31 -16 48 -29q26 -18 40 -63q18 -53 24 -61l32 -45q6 -53 27 -127q30 -37 30 -86v-11q0 -11 -1 -16q-7 -94 -40 -147q-51 -87 -69 -179q-8 -22 -27 -49q-24 -34 -46 -90q-19 -48 -36 -66q-8 -6 -14 -8 q-19 -11 -32 -36q-15 -31 -17 -34q-10 -11 -23 -24q-27 -48 -27 -114q0 -70 33 -120q20 -28 97 -55q29 -10 47 -24q10 -9 55 -9q59 0 71 -8q8 -4 13 -26q4 -21 -5 -36q-11 -19 -42 -40q-42 -29 -74 -71q-25 -33 -64 -39q-34 4 -67 8q-54 -12 -98 -12q-9 0 -29 2t-26 2 q-50 42 -64 52q-46 34 -104 60q-15 10 -27 45q-6 18 -10 35q-14 22 -27 43q-10 33 -55 68q-42 33 -43 47q-2 16 29 38q38 29 42 37q47 90 47 160q0 10 -4 27q-13 34 -16 47q-9 28 -8 47q0 19 12 25q20 9 33 -3q25 -13 71 -38q24 -21 66 -51q14 -9 22 -7l37 4q33 10 62 232 q2 10 -16.5 43t-16.5 51l8 63q0 14 -2 62t-2 59v122q0 46 -5 76t-5 34q0 13 5 40t5 30q0 66 -33 108q-14 34 -42 74q-25 16 -47 34q-9 6 -37 36q-10 10 -35 16q-31 10 -52 22q-82 48 -96 51q-4 1 -10 1q-18 0 -62 -9q-14 -2 -55 -12q-8 -2 -18 -2h-15q-29 0 -55 2 q-22 -18 -55 -43q-20 -14 -30 -43q-22 -60 -68 -80q-27 -11 -56 -57q-21 -28 -28 -65q-13 -74 -16 -85q-15 -55 -15 -59q8 -14 8 -53q0 -40 -26 -129q-6 -21 -7 -46q0 -34 16 -77q5 -16 5 -23q-6 -30 -6 -45q0 -14 6 -24q12 -22 24 -99q11 -71 37 -110q12 -18 19 -48t14 -43 q25 -33 27 -36q20 -23 60 -38q28 -10 55 -18q18 -9 79 -48q41 -27 41 -117q0 -13 -2 -17q-10 -26 -14 -30q-10 -10 -45 -15q-35 0 -82 27q-26 6 -98 32q-29 22 -91 55q-42 12 -67 50q-23 35 -76 71q-48 31 -58 52l-65 98q-9 40 -45 83q-33 39 -33 56q0 55 -22 80 q-47 52 -63 146q-4 25 -4 53v12zM714 311q0 14 42 59q12 14 30 19q11 1 23.5 3.5t17.5 2.5q23 0 23 -18q0 -9 -48 -62q-22 -24 -48 -24q-12 -6 -19 -6h-4q-17 0 -17 26z" />
<glyph unicode="R" horiz-adv-x="1771" d="M2 1477q-1 3 -1 6q-1 12 13 25q16 16 31 16q70 0 117 7q43 7 45 7q45 -2 39 -2q23 0 36 3l33 7q8 0 29.5 -8.5t28.5 -9.5h4q12 0 62 3q76 5 131 5q16 0 47 -10q12 -4 22 -4q10 -2 57 16q21 -6 50 -6q9 0 34.5 6t36.5 6q32 0 78 -14q29 -3 79 -13q15 -6 34 -6 q-1 0 42.5 14.5t86.5 14.5q61 0 89 -45q38 -59 87 -76q66 -13 107 -25t54 -60q6 -24 37 -66q25 -35 25 -77q0 -65 -2 -64v3q2 -4 1 -8q0 -15 -9 -47q-21 -74 -55.5 -83.5t-36.5 -9.5q-24 -12 -66 -49q-29 -33 -88 -87q-14 -6 -25 -19l-26 -26q-7 -5 -27.5 -8.5t-23.5 -6.5 q-14 -9 -15 -20q0 -14 21 -28q26 -6 33 -10q18 -7 26 -22q22 -34 63 -73q33 -31 36 -37q8 -36 44 -91q8 -13 28 -83q19 -66 52 -111q2 -18 16 -62q10 -18 55 -37q41 -18 61 -18q4 0 50.5 25t55.5 27q11 2 26 -16q15 -21 15 -46q0 -65 -51 -82q-28 -10 -60 -51 q-23 -30 -82 -37q-11 0 -42.5 -11t-36.5 -11q-15 0 -51.5 -9t-35.5 -9q-37 6 -83 36q-40 14 -82 35q-15 14 -44.5 41.5t-35.5 75.5q-10 41 -21 84q0 18 2 26q10 45 11 64q0 30 -23 100q-12 35 -12 92v9q0 38 -15 55q-30 36 -48 80q-13 31 -25 35q-19 7 -35 16q-38 6 -107 37 q-21 21 -30 55q-4 26 62 48q46 15 85 15q13 0 74 -12q8 0 14 8l49 41l31 51q2 10 13 21l16 16q4 5 12 54t8 73q0 109 -58 140q-22 12 -34 22l-37 35q-23 6 -96 43q-33 3 -91 22q-42 26 -85 26q-35 0 -63 -24q-18 -14 -48 -55l-38 -36q-19 -24 -19 -66q0 -20 -11 -82 q0 -17 13 -43q10 -14 15 -22q7 -12 16 -70q2 -14 2 -18q0 -18 -6 -37q0 -6 10 -47q2 -11 16 -39.5t14 -34.5q2 -17 -8 -29q-31 -35 -31 -82q0 -16 -5 -42t-4 -32q2 -45 1 -49q0 -24 -9 -58t-9 -44q0 6 18 -105q0 -12 2 -34.5t2 -24.5q0 -25 -1 -41l-4 -33q0 -62 29 -91 q15 -15 30 -28q15 -22 69 -37q58 -15 58 -52q0 -42 -49 -48q-86 -8 -95 -8q-27 0 -49 6q-58 17 -77 18q-128 -24 -212 -24q-14 0 -49 5l-35 5q-33 0 -57 -24q-4 -3 -11 -3q2 0 -55 18q-15 5 -24 15q-11 14 -17 19q-37 25 -36 49q0 18 18 33q8 8 14 6q18 -4 40 -8q53 0 80 35 q24 31 64 62q35 27 36 30q6 20 6 71q0 80 -4 130l6 129q2 16 10 90q4 36 4 49q-4 29 -4 41q0 4 4 28q0 21 -20 103q-13 49 -13 68q0 5 8.5 63t8.5 90q0 70 -29 115q-7 30 -25 65q-15 17 -36 45q-11 30 -43 42q0 1 -61 16q-25 6 -38 5q-24 -4 -49 -5q-38 4 -49 84z" />
<glyph unicode="S" horiz-adv-x="1328" d="M84 1118v27q0 35 14 55q20 21 27 29q30 147 117 194q28 15 96 76q35 30 100 31q26 0 51 5t35 5q56 0 113 15q26 7 53 7q34 0 78 -49q48 -54 62 -59q30 -9 52 -8q18 0 79 16l53 15q10 2 36 21q24 17 28 17l38 5q30 0 36 -57q2 -19 8.5 -42.5t6.5 -27.5t-10 -50 q-10 -49 -13 -73q-3 -88 -11 -200q-13 -53 -53 -98q-13 -15 -35 -15q-39 0 -39 37v5q-29 161 -82 232q-44 58 -144 96q-12 5 -38 27q-23 18 -36 18q-37 0 -80 13q-14 4 -38 4t-51 -9q-52 -15 -103 -41q-61 -30 -78 -69q-8 -18 -8 -64q0 -36 39 -100q25 -51 113 -68 q20 -4 28 -4q9 0 17 4t18 0q12 -5 33 -29q22 -27 26 -30q44 -4 154 -41q66 -32 109 -32h25q16 0 28 1l24 4q46 0 70 -34q33 -46 39 -50q74 -33 100 -65q10 -7 29 -53q19 -48 59 -142q2 -8 5 -14v-11q0 -8 -9 -44q-2 -38 -5 -76q-4 -33 -19 -68q-12 -38 -31 -98 q-6 -33 -26 -49q-30 -25 -45 -56q-14 -14 -33 -37q-14 -17 -61 -51q-56 -30 -120 -63l-173 -10q-35 -2 -36 -2h-24q-48 0 -100 19q-19 7 -40 32.5t-24 26.5q-68 20 -90 20h-2q-75 0 -152 -45q-22 -13 -44 -35q-34 -32 -62 -32h-2q-20 0 -33 22q-3 14 -10 34q-13 18 -18 32 q-17 74 -17 77q0 14 20.5 49t20.5 52q0 6 -7.5 38.5t-7.5 59.5q0 31 3 47l25 194q14 58 52 76q13 6 25 7q16 0 33 -12.5t24 -21.5q18 -23 31 -67q10 -31 43 -103q6 -10 40 -104q24 -66 64 -90q56 -31 90 -60q21 -18 30 -20l36 -4q67 -30 136 -59q26 0 48 21q46 9 92 16 q43 10 62 26l37 20q33 17 42 35t36 53q12 15 19 49q5 24 5 44q0 85 -49 123l-76 58q-21 22 -73 38q-19 6 -83.5 20t-117.5 38q-104 47 -147 51q-35 0 -76 20q1 0 -34 -7q-31 -6 -44 -3q-49 13 -92 15q-38 1 -47 28q-27 86 -51 120q-22 30 -55 76q-8 37 -29 84q-29 22 -29 72 z" />
<glyph unicode="T" horiz-adv-x="1554" d="M74 1032q0 4 4 34.5t4 49.5q-2 70 -2 54q0 3 6 26t6 33t-5 65.5t-5 73.5q0 86 41 127q33 33 84 33q18 0 24 -4q24 -14 158 -14q71 0 146 4q70 5 69 6l125 -5l46 6q28 3 51 3q72 0 98 -10q10 -4 22 -4q3 0 107 22q56 12 96 12q13 0 147 -18q-7 0 56 17q18 5 41 5 q57 0 89 -38q40 -56 40 -54q2 -12 2 -20v-17q0 -12 -6.5 -34.5t-6.5 -34.5q0 -45 -10 -96q0 -11 -6 -63.5t-6 -61.5q0 -10 3 -33l3 -23q0 -16 -2 -24q-14 -55 -37 -55q-20 -5 -38 -9q-18 0 -36 32q-28 29 -63 95q-5 22 -18 43q-18 26 -21 34q-8 19 -43 54q-10 27 -47 74 q-20 14 -24 21q-13 18 -33 18q-11 0 -58 -25q-36 -8 -94 -33q-16 -12 -16 -51q0 -12 -2 -53t-2 -56v-47q14 -54 18 -113q2 -26 2 -52q0 -14 -5.5 -74.5t-5.5 -91.5q0 -14 -2 -59.5t-2 -55.5q0 -30 7 -61q0 -27 14 -88q8 -35 8 -62q0 -39 -12 -100q-4 -20 -4 -35q0 -9 24 -80 q14 -38 37 -51l27 -21q18 -14 29 -12h-2q0 2 101 21q23 4 44 4q14 0 29 -17q47 -54 47 -81q0 -26 -38 -57q-30 -23 -75 -23q-9 0 -74 9t-88 9q-42 -14 -78 -14q-10 0 -31 3q-27 4 -43 5q-30 2 -88 21q-22 14 -36 14q-40 0 -86 -35q-33 -24 -74 -24q-9 0 -39 -4.5t-41 -4.5 q-20 0 -66 17q-25 7 -60 20q-26 23 -40 32q-35 25 -35 58q0 39 66 39q10 0 35 6q58 14 102 14h29q18 0 29 11q51 21 62 56q7 23 8 54q0 11 -1.5 33t-1.5 33q0 13 3.5 44t3.5 32q-1 5 -3 22q-2 26 -1 39q0 41 9 78l19 65q-5 19 -8 58q13 49 12 53q0 18 -4 31q-14 42 -14 63 q0 4 4 41.5t4 58.5q0 33 -8 79l-20 110q-3 53 -15 117q-76 100 -127 100q-61 0 -92 -10q-6 -2 -49 -23q-37 -22 -72 -71q-41 -58 -51 -102l-14 -69q-5 -26 -17 -34q-57 -62 -82 -62q-55 0 -55 78z" />
<glyph unicode="U" horiz-adv-x="1513" d="M21 1418q0 30 22 69q19 33 47 41q21 2 42 5q18 3 26 3q24 0 84 -14q34 -8 51 -8q19 0 29 1q50 10 84 11q30 0 63.5 -12.5t42.5 -12.5q18 0 39 8.5t28 8.5q11 0 37 -22.5t38 -22.5q2 0 40 20q34 18 45 10q22 -17 23 -69q0 -80 -45 -80q-13 0 -19 2q-17 6 -22 6q-8 2 -17 2 q-7 0 -26 -12q-31 -15 -75 -53t-44 -91q2 -9 14 -55q9 -30 9 -55q0 -104 20 -238q4 -26 4 -40v-34q0 -16 -5 -92t-5 -112q0 -105 12 -170q4 -22 21 -76q10 -33 40 -70q13 -17 19 -22q12 -13 29 -25q22 -20 66 -46l40 -13q25 -9 64 -9q35 0 51 7q43 17 53 18q74 24 107 59 l34 27q19 14 31 82q6 35 13 99l10 80q14 107 14 127q0 57 -2 75q-8 30 -12 81q-2 26 -3 46v33q0 25 14 90t14 63q0 95 -15 126q-2 19 -21 87q-12 39 -39 62q-33 17 -110 63q-47 33 -47 64q0 22 10 29q22 11 62 34q62 35 84 37q4 0 59 -10t68 -10q11 -2 40 14t49 16 q13 0 37 -8t27 -8q6 -2 28 2q26 4 29 4h2q19 0 46 -42q25 -37 25 -62q0 -4 -1 -9q-14 -77 -64 -77h-1h-56q-31 -8 -40 -75q-18 -126 -19 -169q0 -66 19 -174q9 -55 9 -84v-6q0 -10 -4.5 -56.5t-4.5 -68.5q0 -24 2 -59.5t2 -39.5v-30q-2 -10 -4 -29q-9 -64 -17 -84 q-22 -53 -25 -65q-10 -105 -18 -150q-14 -80 -96 -131q-27 -17 -137 -108q-14 -18 -58 -46q-23 -14 -35 -14q-10 0 -41 16.5t-41 16.5q-30 0 -84 -13q-20 -10 -30 -14q-21 -6 -43 3q-50 18 -63 20q-76 14 -88 16q-34 9 -56 24q-42 32 -93 40q-60 10 -116 53q-17 38 -62 95 q-18 12 -44 117q-11 46 -11 93q0 37 10 82q4 76 12 176q3 18 3 24v15q0 14 -4 37q-5 26 -7 53q-2 39 -1 49q0 104 22 266q6 22 6 50q0 24 -12 61q-18 40 -20 45q-17 30 -33 33q-14 2 -42.5 -4t-27.5 -6q-37 0 -51 38q-2 3 -10 42q-4 17 -4 29z" />
<glyph unicode="V" horiz-adv-x="1738" d="M41 1442q0 33 17 47q10 10 51 25q16 6 47 6q47 0 84 -10q14 -4 22 -4t20 4q38 11 60 10q51 -2 37 -2q11 0 34 7q26 8 37 10q75 11 74 11q18 0 35 -6l95 -12q34 -4 65 -25q6 -6 26 -9l33 -5q7 -1 57 -33q29 -18 29 -47q0 -50 -44 -71q-39 -9 -95 -32q-10 -8 -39 -51 q-14 -21 -8 -33l43 -116q6 -14 26 -47q10 -15 21 -67t22.5 -67t17.5 -50q8 -45 10 -49q7 -21 20 -40q17 -14 21 -19q12 -15 15 -39q3 -21 19.5 -47t17.5 -34q12 -47 23 -47q7 -1 14 -1q54 0 58 41q2 14 29 52q29 41 36 68q16 16 39 62q6 16 16 28q18 37 21 72l2 46 q1 4 35 74q30 64 30 95q0 6 4 37t4 43q0 16 -1 22q-13 39 -114 99q-94 54 -93 93q0 49 73 80q29 -2 50 -1q11 0 34 8q28 11 29 12q42 10 76 10q53 -14 74 -14q14 4 48 4q21 -4 58 -4q7 0 57.5 4t71.5 4q85 0 130 -33q26 -18 26 -61q0 -27 -12 -47q-31 -38 -91 -59 q-15 -6 -53 -28q-36 -10 -100 -38q-4 -5 -21 -10q-5 -2 -12 -13q-14 -21 -36 -41l-23 -20q-17 -26 -33 -78q-27 -89 -31 -100q-6 -18 -20 -37q-21 -30 -27 -39q-36 -62 -53 -121q-4 -20 -11 -49q-12 -17 -16 -22q-10 -13 -8 -28q0 -14 20 -65q2 -26 -22 -75q-5 -22 -37 -61 q-21 -13 -37 -51q-31 -79 -78 -188q-21 -39 -27 -81q-14 -26 -30 -72q-20 -110 -88 -139q-7 -4 -13 -4q-8 0 -16 5q-6 5 -20 25q-20 18 -31 31q-14 17 -25 70q-2 22 -8 33q-5 21 -30 77q-17 26 -17 63q0 10 -48 52q-28 24 -57 143q-8 35 -19 46l-21 22q-2 2 -19 51 q-20 38 -38 78l-9 90q-20 34 -38 70q-18 46 -36 73.5t-55 83.5q-5 31 -34 89q-20 22 -35 48q-16 15 -41 61q-5 18 -19 33q-23 24 -28 30q-15 22 -21 26q-3 3 -31 10q-51 13 -68 22q-34 24 -44 64q-9 10 -18 22q-15 22 -15 50z" />
<glyph unicode="W" horiz-adv-x="2199" d="M-18 1415q0 49 46 63l53 15q20 6 24 6q6 -1 30 -4q34 -3 55 6q67 29 91 29q26 0 57 -12q76 -30 204 -31q13 0 51 14q42 16 44 17q9 0 31 -19q26 -22 38 -26q21 -9 32 -9q10 0 18 5q22 10 28 9q70 0 122 13q109 26 126 27l80 -8q8 0 41 -6.5t49 -6.5q18 0 29 2q6 0 26.5 2 t30.5 2q20 0 61 -3t40 -3q29 0 77 6q4 1 42 -10q41 -12 61 -12q22 0 85.5 18.5t82.5 18.5q58 0 77 6q25 12 37 16q8 6 25 6q26 -4 41 -4q32 0 78 -5t65 -5q39 0 102 -39q48 -22 48 -90q0 -53 -53 -86l-27 -27q-10 -11 -22 -11q-6 0 -11 3q-16 4 -23 4q-14 0 -49 -20 q-14 -7 -24 -21q-19 -27 -29.5 -35t-35.5 -80q-22 -67 -58 -85q-18 -10 -37 -42q-23 -38 -27 -42q-22 -23 -22 -62q0 -6 2 -27t2 -28q0 -33 -16 -58q-6 -10 -18 -36l-24 -51q-13 -27 -13 -54q0 -10 6 -43t6 -43q0 -20 -18 -55q-18 -38 -21 -66q-3 -34 -15.5 -58.5 t-25.5 -49.5q-14 -34 -29 -45q-27 -38 -42 -102q-17 -69 -29 -89q-13 -41 -47 -91q-38 -18 -48 -17q-6 0 -22 6q-29 18 -31 22q-6 33 -40 100q-22 26 -34 91q-14 50 -36 142q-5 33 -15 56q-20 48 -20 71.5t-30.5 89t-31.5 75.5q0 28 -47 115l-17 65q-4 17 -45 79 q-34 51 -36 112q-2 78 -21 123q-25 40 -70 137q-25 69 -125 69h-3h-48q-63 8 -77 8q-41 0 -55 -56q-23 -97 -23 -107q0 -12 8 -39t8 -35q0 -24 4 -45l17 -88q20 -38 41 -121q2 -56 5 -73q6 -22 32 -44q13 -10 24.5 -47.5t25.5 -50.5q19 -18 31 -19l36 26q20 16 31 39 q13 27 38 48q44 26 41 27q31 0 31 -41q0 -131 -56 -227q-10 -18 -17 -59q-8 -46 -11 -57q-6 -70 -36 -169q-18 -22 -38 -100q-10 -40 -41 -87t-59 -47q-22 0 -29 13q-7 33 -15 66q-9 37 -24 53q-12 14 -26 55q-14 44 -26 61q-16 22 -24 56l-8 40q-6 15 -19 37 q-23 41 -38 108q-21 94 -26 109q-52 156 -52 189q-5 36 -32.5 75.5t-31.5 68.5v36q0 24 -5 43q-33 100 -71 148q-6 9 -79 81q-42 20 -74 78q-7 14 -39.5 30t-52.5 17q-96 9 -96 76zM1354 1147q1 -10 1.5 -23t0.5 -16q4 -39 37 -78q4 -10 22 -73q13 -28 21 -46q14 -31 14 -53 l2 -58q2 -76 33 -121l18 -28q10 -14 23 -14q41 0 65 43q16 14 39 41q9 22 37 63q11 12 26 93q6 40 13 80l14 28q9 17 9 33q20 85 22 129v10q0 58 -21 117q-3 10 -25 21q-26 14 -27 15l-28 36q-23 32 -53 32h-2q-30 -4 -51 -4q-11 0 -42.5 -17.5t-39.5 -17.5q-57 0 -80 -45 q-28 -53 -28 -132v-15z" />
<glyph unicode="X" horiz-adv-x="1538" d="M-10 1394q0 17 16 56q32 59 90 59q10 0 21 -2q78 -12 125 -12q24 0 43 4q46 10 89 11q21 8 46 8q13 0 47 -4t41 -4q25 0 59 14q18 -4 39 -9q18 10 35 11q2 0 22 -1t39 -1q24 0 46.5 -20.5t19.5 -34.5q-11 -50 -54 -71q-8 -4 -18 -4q-1 0 -12 4t-14 3q-20 -2 -40 -5 q-38 -8 -46 -30l-14 -14q-13 -13 -13 -35q0 -29 6 -41q7 -8 16 -21q26 -34 56 -106q15 -25 79 -82q11 -10 29 -46q16 -32 31 -39q20 -10 39 -9q26 0 55 37q18 17 38 57q22 47 42 74q17 16 17 37q4 14 16 30q23 32 25 33q12 23 12 35q0 10 -6 20q-2 16 -23 46q-12 4 -24 10 q-70 34 -83 61q-9 18 -5 47q6 50 89 50q18 0 44.5 11t42.5 11q37 18 55 18q8 0 56 -8q45 -8 60 -6q11 2 60 -10q29 -6 59 -12q49 0 97 -15q61 0 61 -69q0 -22 -14.5 -40t-34.5 -18q-11 0 -30 -8q-22 -9 -36.5 -10.5t-37 -22.5t-25.5 -21q-8 0 -26.5 4.5t-20.5 4.5 q-30 -30 -94 -37q-19 0 -23 -6q-17 -16 -45 -50q-9 -13 -14 -26q-24 -18 -32 -26q-16 -18 -22 -44q-16 -63 -63 -102q-17 -14 -33 -29q-21 -16 -56 -59q-31 -58 -32 -100v-42q0 -92 57 -116q16 -6 33 -28.5t18 -23.5q12 -4 38 -35q27 -34 37 -62q10 -31 26 -43 q28 -20 59 -70q30 -27 70 -82q8 -19 26 -31q5 -12 15 -30q14 -33 37 -75q14 -18 31 -36q16 -4 49 -20q14 -7 108 -29q30 -12 41 -51q3 -9 3 -16q0 -22 -21 -36q-12 -8 -59 -22q-14 -4 -25 -4q-16 6 -37 6q-9 0 -34.5 -8t-28.5 -8q-18 16 -54 16q-17 0 -49 -6q-14 -3 -57 11 q-46 15 -51 15l-45 8l-54 -24q-6 0 -37.5 8t-35.5 6q-37 -20 -62 -20q-12 0 -30 6q-3 2 -8 1q-6 0 -19 -4.5t-19 -4.5q-42 0 -42 64q0 30 23 38q18 6 30 6h10q17 -3 52 8t46 25q25 30 25 62q0 19 -17 71q-12 40 -73 106q-55 59 -56 84q0 11 -10 32q-11 24 -14 32 q-2 14 -12 27q-7 9 -25 22q-10 10 -27 0l-40 -26q-10 -8 -21 -39q-10 -27 -19 -32q-14 -21 -48 -54q-12 -9 -24 -32q-5 -12 -9 -23q-7 -26 -9 -31q-8 -22 -34 -33q-10 -4 -27 -4q-41 0 -37 -30q2 -8 1 -13q0 -6 -1 -8q-2 -8 -2 -18q0 -54 37 -82q41 -25 63 -42 q66 -28 66 -49q0 -43 -31 -43q-4 0 -24.5 3t-24.5 3h-56q-33 -4 -63 -8q-3 1 -7 1q-10 0 -26 -5q-25 -9 -40 -8q-13 0 -36 5q-24 5 -36 -1q-23 -12 -29 -14q-10 -4 -23 0q-6 2 -20 2q-23 0 -35 6q-39 14 -57 22q-37 16 -37 52q0 6 4 26q14 43 61 62l84 19q22 6 27 9 q9 10 14 15q26 7 51 14q52 16 76 43q15 12 33 27q-2 22 27 89q13 28 56 58q38 27 48 63q8 30 16 37q12 10 13.5 14t50.5 52q20 20 20 39v45q0 51 -55 86l-24 37q-10 25 -10 51q0 18 1 33q2 16 -36 41q-34 21 -66 63q-14 18 -20 23q-17 10 -33 22q-7 9 -41 86q-7 16 -28 50 q-18 30 -19 34l-33 46q-17 63 -102 63q-26 11 -37 14q-14 4 -56 4q-38 0 -69 39q-8 8 -8 24z" />
<glyph unicode="Y" horiz-adv-x="1474" d="M33 1418q0 61 45 106q14 14 49 14q13 0 32.5 -6t20.5 -6q21 8 43 8q17 0 51 -8q6 -2 25 -2q41 0 133 14q53 8 82 8q64 0 101 -20q29 -14 90 -25q6 0 51 -14q26 -9 49 -9q8 2 27.5 -3t21.5 -5q7 0 29.5 5.5t34.5 5.5q16 -2 32 -3q25 0 74 21q29 12 49 12q6 0 45.5 9.5 t47.5 9.5q18 0 55 -6q12 2 34 2q26 0 43 -8q46 -22 60 -23q13 0 27.5 5.5t21.5 5.5q21 0 33 -9q42 -29 100 -37q21 -2 21 -37q0 -26 -37 -44q-30 -14 -35 -21q-11 -14 -20 -24q-6 -6 -25 -21q-10 -13 -54 -40q-21 -10 -59 -48q-47 -47 -51 -54q-30 -46 -30 -121 q0 -66 -29 -106l-8 -10q-11 -13 -13 -19q-6 -10 -10 -14q-16 -12 -19 -16q-6 -23 -18 -55q-11 -19 -21.5 -32.5t-16.5 -45.5q-7 -38 -13 -51q-15 -49 -48 -122q-13 -16 -28 -61q-2 -22 -2 -53v-62q10 -30 22 -81q7 -46 23 -120q4 -10 10 -16q22 -22 31 -35l49 -53 q29 -4 67 -22q9 -11 9 -25q0 -32 -65 -45q-9 0 -42.5 11t-41.5 9q-19 -7 -39 -13q-34 -13 -53 -13q-66 45 -140 45q-46 0 -102 -15q-34 -8 -100 -44q-26 -14 -54 -15q-26 0 -100 29q-30 22 -31 76q0 53 16 86q3 6 37 49q38 24 88 67q18 15 46 52q7 18 9 22q10 17 23 33 q10 21 10 82q0 62 -11 96q-8 18 -15 35q-10 22 -15 61q-4 34 -26 70q-44 69 -63 113q-16 38 -24 50q-19 26 -24 34q-22 43 -43 68q-20 46 -91 158q-56 73 -110 73q-6 0 -26 -4q-18 0 -82 14q-26 2 -35 10q-4 2 -14 21l-51 55q-33 25 -33 97zM698 1178q0 -29 12 -95 q6 -27 35 -62q20 -23 41 -47q10 -20 38 -64q14 -38 37 -95q7 -14 20 -29l14 -28q6 -14 33 -27q26 -17 55 -33q5 -2 10 -2q9 0 33 21q16 14 20 25q4 46 25 120q63 110 82 180q6 22 6 52q0 68 -14 92q-29 34 -43 53q-19 18 -45 45q-23 7 -55 22q-28 25 -50 25q-18 -2 -30 -6 q-53 -17 -60 -19q-13 -2 -22 3q-17 4 -23 4q-24 0 -59 -16.5t-41 -30.5q-18 -43 -19 -88z" />
<glyph unicode="Z" horiz-adv-x="1339" d="M59 70q0 86 50 124q18 14 20 19q11 24 60 79l53 44l36 120q15 52 44 82l96 68q32 22 58 66q13 23 26 47q22 29 102 104q10 11 22 72q19 29 46 78q6 9 19 58l22 77q9 30 45 66q48 47 58 62t10 42q0 47 -28 67q-12 9 -69 37q-36 22 -51 76q-1 3 -1 5q0 19 37 47 q13 14 66 14q9 2 29 12q40 18 59 18t35 -7l35 -15q60 18 125 18q46 0 90 -39q51 -46 51 -145q0 -54 -18 -107q-10 -27 -35 -73q-38 -22 -89 -64q-27 -22 -59 -47q-17 -18 -41 -88q-18 -29 -48 -89q-10 -26 -32 -52q-30 -36 -93 -137q-9 -17 -27 -62q-18 -22 -52 -63 q-10 -14 -52 -74q-41 -57 -41 -88q0 -19 -33 -66q-18 -31 -18 -34q-5 -17 -5 -58q0 -57 17 -71q10 -7 61 -42q65 -42 108 -42q29 2 82 23q17 14 31 26q33 18 66 39q36 22 76 70q11 14 28 30q20 14 35 51q15 22 29 43q18 55 53 143q12 25 24 29q3 1 7 1q10 0 47 -7 q19 -4 33 -41q6 -51 16 -109q-6 -38 -6 -75v-152q0 -66 -25 -96q-7 -7 -25 -30q-34 -46 -52 -52q-21 -2 -58 -6q-14 0 -36.5 1t-31.5 1q-39 0 -86 -10q-102 26 -147 26q-56 0 -121 -20q-39 -12 -65 -12t-66 15q-20 8 -39 15q-5 2 -30 2q-18 0 -50 -2q-40 -3 -51 -3.5 t-49 -13.5t-54 -13q-18 0 -122 18q-6 0 -27 -4t-27 -4q-12 0 -18 6q-29 27 -29 72zM59 1244v22q0 26 11 131q3 29 47 69q47 37 55 45l39 11q98 22 99 22h5q9 0 21 -6q43 -23 51 -23q10 0 34.5 5.5t31.5 5.5q55 -1 55 -44q0 -20 -6 -33l-8 -18q-6 -18 -30.5 -42t-27.5 -31 q-6 -14 -16 -24t-39 -29q-50 -33 -64 -51q-11 -12 -43 -33q-20 -14 -43 -66q-13 -30 -49 -69q-12 -13 -36 -23q-48 -21 -44 -21q-21 0 -30 37q-2 33 -9 114q-4 36 -4 51z" />
<glyph unicode="[" horiz-adv-x="706" d="M197 1313q0 70 18 130q17 55 39 66t83 26.5t87 14.5l86 -2q10 2 31.5 4t33.5 2q27 0 35 -10q20 -20 20 -34q0 -44 -119 -72q-53 -11 -76 -40q-26 -33 -36 -112q0 -84 17 -203q1 -9 -9 -69q-10 -64 -9 -86q0 -36 1 -47q14 -79 15 -125v-27q-4 -14 -4 -20q-4 -8 -4 -28v-34 q0 -38 2 -100q3 -84 4 -98q0 -24 -5 -101t-5 -80q0 -45 8 -63q4 -21 4 -33q0 -26 -4 -49l-7 -56q0 -12 4 -20q2 -66 19 -213q10 -61 45 -94q23 -22 66 -37q102 -35 102 -57q0 -49 -80 -49q-13 0 -37 -4.5t-32 -4.5q-30 0 -114 16q-89 16 -113 28q-44 23 -44 98v40 q10 41 11 99q0 26 -8.5 76.5t-8.5 66.5q0 14 5 46q3 27 1 36q-4 22 -4 29q0 26 18 96q5 21 5 31q0 9 -11.5 70.5t-11.5 74.5q0 9 4 32t4 35v28q0 16 -2 61t-2 53q0 12 6 39t6 41q0 2 -11 62q-3 16 -3 61q0 126 9 165q4 19 4 38q0 17 -4 51q-4 28 -3 30q4 6 4 17v22 q0 21 -1 29q-10 25 -13 29q-16 49 -16 125z" />
<glyph unicode="\" horiz-adv-x="573" d="M-49 1464q0 58 52 58q22 0 51 -12q38 -17 60 -58q19 -90 68 -167q23 -38 33 -96.5t12 -62.5q22 -34 31 -53q10 -58 60 -167q21 -27 36 -81q18 -65 37 -104q16 -30 21 -53q25 -130 74 -230q5 -9 14 -57q15 -84 47 -125q9 -12 24 -85q17 -78 23 -89.5t6 -40.5 q0 -82 -51 -82q-86 2 -109 96q-10 44 -18.5 58.5t-26.5 44.5l-45 165q-35 57 -44 76q-22 45 -25 85q-4 43 -21 83q-10 37 -70 197q-7 49 -55 164q-10 18 -21 63t-26 68q-58 88 -84 215q-6 26 -14 45q-38 82 -39 145z" />
<glyph unicode="]" horiz-adv-x="677" d="M59 1499q0 10 13 23q46 33 227 32q82 0 104 -8q6 -4 50 -35q33 -24 33 -110q0 -13 -2 -45.5t-2 -34.5q0 -29 -1.5 -127t-1.5 -166q0 -98 3.5 -139.5t3.5 -36.5q0 -17 -6.5 -65.5t-6.5 -57.5q0 -1 -3 -69.5t-3 -121.5q20 -116 20 -194v-26q0 -3 -4 -25q-22 -141 -22 -411 q0 -98 2 -113q10 -3 20 -66q15 -98 -95 -110q-36 -5 -69 -5q-58 0 -110.5 14.5t-69.5 27.5q-8 6 -14 24q6 12 17 16q25 12 34 33q6 11 25 23q67 39 71 43q28 10 58 33q2 8 -18.5 112t-18.5 112q-10 106 -16 228q16 21 16 72q0 10 -8 48q-10 46 -15 80q-8 68 -8 103 q0 11 5 53t5 52q0 15 -2 36q-4 28 -6 44q-2 26 -2 47q0 10 2 30t2 23q14 48 15 86q0 4 -11 106q-3 27 -4 49v31q0 14 3 47t3 47q0 77 -30 117q-16 22 -78 72q-105 85 -105 102z" />
<glyph unicode="^" horiz-adv-x="1024" d="M49 706q10 47 33 83q30 58 98 161q21 25 21 60l27 42q28 42 28 66q0 32 22 64q47 66 48 100q0 10 15 40q18 35 25 56q9 31 25 56q10 15 23 28q4 8 22 23q0 8 2 25q19 23 29 30q23 19 41 8q29 -5 66 -28q10 -8 22 -43q5 -14 16 -51q24 -43 54 -101q6 -8 32 -80 q12 -32 31 -55q10 -42 49 -108q18 -14 56 -103q21 -49 52 -84q9 -10 20 -53q11 -49 22 -70q32 -41 47 -74q19 -42 19 -53q0 -37 -68 -37q-1 0 -76 27q-18 12 -35 59q-1 2 -26 33q-25 29 -25 53q0 58 -10 78q-14 14 -27 31l-29 73q-6 17 -63 70q-25 29 -25 59q0 37 -16 58 q-22 28 -24 33q-28 55 -40 100q-6 24 -14 31q-4 2 -14 10q-14 -52 -76 -139q-14 -43 -27 -86q-10 -41 -49 -109q-20 -23 -36 -59q-38 -78 -64 -111q-10 -34 -29 -81q-63 -115 -92 -116q-8 0 -24 7q-29 4 -46 32q-14 25 -10 45z" />
<glyph unicode="_" horiz-adv-x="1024" d="M-67 -219q-9 58 77 77q52 11 80 11q12 0 55 -6t62 -6h27q12 2 18 1q58 17 122 17q20 0 58 -5t45 -5q-14 0 109 8q92 -18 208 -19q53 0 87.5 5.5t33.5 5.5h19q100 0 131 -21q29 -18 29 -67q0 -50 -70 -51l-109 -3q-8 -2 -19 -1q-14 0 -33 3q-34 5 -44 5h-18q-8 -4 -11 -4 q-18 -4 -47 -4h-73q-14 0 -46 5t-34 5q-10 0 -37 -6.5t-39 -6.5q2 0 -30.5 4.5t-57.5 4.5q-67 0 -129 -4.5t-111 -4.5q-12 0 -54 7q-36 6 -50 4q-21 -4 -47 -4h-33q-62 0 -69 55z" />
<glyph unicode="`" horiz-adv-x="663" d="M112 1468q0 9 2 14q5 19 29.5 51.5t34.5 31.5q6 0 28 -11l25 -12q22 -10 55 -41q21 -40 64 -79q11 -10 22.5 -47.5t19.5 -46.5q14 -14 22 -30q23 -47 28 -53q39 -39 48 -99q3 -22 4 -38q0 -25 -8 -39q-9 -24 -28 -24q-16 0 -40 24l-20 21q-16 10 -44 40q-10 15 -18 29 q-40 20 -74 47q-11 9 -40 96q-3 10 -76 76q-17 20 -28 55q-6 21 -6 35z" />
<glyph unicode="a" horiz-adv-x="1161" d="M51 142q11 76 58 128q11 25 35 73q14 25 73 64q14 17 33 39q18 20 68 44q23 0 56 14q7 7 28 16q14 7 30 14q22 13 72 13h20q37 0 51 8q12 11 17 15q22 12 30 19q21 18 54 62q12 17 12 50q0 20 -3 37l-7 40q-12 26 -39 81q-10 22 -17 27q-14 9 -38 25q-18 13 -33 13 q-90 0 -132 -27q-36 -22 -36 -88q0 -12 -27 -82q-30 -78 -86 -105q-44 -20 -61 -8q-13 9 -23 16q-50 39 -58 83q-5 26 -5 53v24q-9 31 -9 58q0 63 79 102q10 5 55 23q24 10 43 33q40 17 108 55q47 26 68 26h7q15 0 52 -5q50 -7 58 -7q15 0 24 3q8 2 31 -15q26 -18 27 -18 q6 -5 35 -5h73q13 -2 43 -49q14 -21 39 -60l35 -53q0 -10 20 -81q2 -9 7 -15q6 -18 6 -61q0 -20 -4.5 -45.5t-4.5 -32.5q0 -2 9.5 -41.5t9.5 -77.5q-2 -22 -16 -60q-12 -34 -12 -52q0 -21 12 -51.5t12 -41.5q0 -12 -6 -34.5t-6 -26.5q0 -15 20 -60q9 -19 27 -56q6 -6 24 -7 h19q7 4 10 4q13 6 22 37q2 8 13 47q5 39 49 96q10 13 28 13q18 -2 27 -2q31 -4 31 -48q0 -32 -18 -69q-6 -12 -25 -83q-6 -24 -15 -30l-20 -12q-12 -38 -47 -96q-22 -2 -65 -6h-28q-11 0 -21.5 -6t-18.5 -6q-11 -2 -22 -2q-31 0 -54 14q-25 14 -57 51q-27 31 -68 43 q-14 18 -51 18q-30 0 -53 -18q-80 -64 -138 -82q-7 -2 -30 -8q-9 -2 -35 -15q-34 -3 -90 -14l-80 -20q-6 0 -22 10q-46 29 -62 35q-35 13 -50 26l-25 26q-12 12 -29 52q-14 32 -14 46q0 4 1 6zM336 235q0 -84 58 -110q13 -6 34 -7q42 0 105 22t86.5 43.5t48.5 64.5 q5 11 14 57q6 17 6 49q0 78 -55 108q-37 20 -66 20q-6 0 -39 -19q-35 -21 -103 -38q-22 -6 -41 -36q-26 -41 -28 -43q-4 -7 -18 -69q-2 -10 -2 -23v-19z" />
<glyph unicode="b" horiz-adv-x="1244" d="M6 1389q1 30 20 45q7 6 50 26q52 25 82 25l86 8q5 1 12 1q14 0 35 -3q30 2 57 2q20 0 47 -43q14 -12 21 -19q17 -17 20 -37l17 -89q2 -15 1 -37q-2 -68 -1 -55q0 -12 9 -27.5t11 -21.5q2 -32 5 -64q4 -58 22 -92q19 -12 45 -29q4 -6 -3 -13q-11 -12 -12 -16 q-14 -11 -32 -47q-9 -90 -23 -209q0 -19 -8 -39q-14 -34 -14 -37q-2 -9 -3 -20q0 -12 3.5 -35t3.5 -30q0 -54 -10 -95q-5 -22 -5 -28v-11q0 -30 23 -61q8 -10 14 -70q0 -30 11 -53q2 -8 12 -18q29 -18 28 -51q2 -4 11 -17q20 -33 26 -43q8 -14 8 -31q0 -26 -26 -39 q-5 -1 -19 -2q-10 -2 -26 -2q-41 0 -47 2q-10 2 -24 16l-26 25q-6 6 -26 7q-25 0 -39 -8q-2 -1 -23 -24.5t-28 -21.5q-79 9 -86 46q2 -5 14 59l-12 110q0 26 -2 74l-4 90q-1 30 16 117q0 16 -2 30q-4 27 -8 56l6 92q1 12 -14 75t-15 85q0 16 3 36l7 40q1 6 16 45 q14 35 13 67q0 35 -14 74q-4 6 -4 26v33q-3 16 -38 89q-7 16 -61 42l-48 2q-41 6 -46 34q-6 38 -6 59zM584 998q11 51 84 51q24 -7 24 -23q-2 -14 -16 -18q-8 -3 -22 -9q-13 -10 -19 -14q-13 -8 -25 -6q-25 4 -26 19zM658 26q0 15 28 32q24 14 35 14h31q22 0 28 4 q35 12 43 16q12 18 25 25q29 14 34 26q10 14 19 46q16 54 39 119q11 32 10 48q-2 67 -2 72l4 80v13q0 39 -10 73q-2 10 -23 51l-16 82q-2 14 -26 66q-13 26 -13 34q0 54 -20 83q-27 26 -35 36q-63 46 -63 86q0 24 18 33q8 4 18 10q25 18 49 19q27 0 58 -19q14 -16 41 -49 q44 -11 119 -51q26 -26 26 -90q0 -39 23 -72q42 -61 53 -99q9 -38 29 -114q3 -11 8 -33q0 -12 2 -25q0 -3 8 -31t8 -42q0 -18 -10 -35q-18 -28 -18 -31q-2 -22 -12 -82q-4 -18 -29.5 -60t-32.5 -72q-21 -26 -46 -72q-10 -55 -50 -67q-34 -10 -94 -44q-8 -6 -46 -27 q-24 -14 -41 -30q-8 -8 -52 -10l-56 -1q-18 0 -49 62q-12 15 -12 26z" />
<glyph unicode="c" horiz-adv-x="1075" d="M41 561q0 86 22 135q10 18 27 43q21 21 61 66q30 35 70 105q38 63 47 73q25 6 60 16q14 6 23.5 12.5t18.5 12.5q23 2 62 15q32 11 50 10q25 -2 46 5l50 19q12 -2 26 -2q58 14 117 15q62 0 90 -55q18 -20 43 -50q13 -11 42 -40q13 -15 33 -70l19 -53q13 -34 13 -68v-33 q-4 -9 -9 -23q-2 -10 -49 -61q-10 -18 -39 -35q-5 -3 -12 -12q-14 -18 -29 -23q-16 -6 -56.5 6t-60 26t-34.5 71q-4 15 -4 32v27q0 6 14 35t14 51q0 52 -24 71l-84 44q-3 2 -10 2q-10 0 -27 -6l-109 -25q-24 -8 -36 -31q-20 -37 -25 -43q-14 -16 -23 -58q-12 -54 -16 -63 q-10 -26 -10 -43q0 -7 4 -30t4 -51q0 -37 2 -56q-2 -29 -2 -43q0 -18 8 -34q5 -24 21 -73q10 -25 10 -71q6 -13 15 -51q0 -50 44 -64q16 -6 48 -30q35 -27 61 -27q6 0 48 9q38 7 54.5 5.5t60.5 16.5q13 8 23 22q30 41 43 53q8 18 21 31q28 28 33 35q7 10 18 33q46 69 77 69 h1q18 0 43 -5q59 -43 59 -75q0 -4 -20 -65q-17 -50 -39 -69q-9 -23 -63 -79q-10 -17 -40 -47q-44 -13 -114 -38q-6 -2 -72 -35q-58 -29 -94 -29q-35 0 -56 10q-50 26 -65 31q-40 13 -76 27q-70 26 -90 45q-6 4 -64 40q-36 24 -46 62q-23 31 -46 64q-20 19 -50 81 q-5 23 -23 41q-15 15 -15 23l4 69q1 4 -8.5 43t-9.5 64z" />
<glyph unicode="d" horiz-adv-x="1277" d="M54 486v52q0 39 1 54q10 30 17 62q30 66 30 92q2 16 21 44q20 32 30 59q13 40 31 58q14 20 44 59q5 5 86 62q41 29 104 29q25 0 68.5 11t58.5 11q45 0 59 -23q13 -20 18 -20q3 -1 20.5 8t23.5 9q24 0 43 -31q24 -30 51 -31q6 0 18 4q62 45 62 103q0 9 -2 32.5t-3 31.5 l-1 63q-2 12 -20 25l-38 26q-13 12 -41.5 37t-62.5 37q-55 18 -67.5 32t-12.5 56q0 27 29.5 47.5t60.5 20.5q19 0 48 -6l42 -7q8 -1 38 7q34 10 71 10q17 0 45 -7.5t36 -7.5q26 -2 33 -6l31 -20q57 -38 57 -111q0 -26 9.5 -69t9.5 -50q-1 -17 -10.5 -47.5t-9.5 -44.5 q0 -18 6 -43t6 -31q0 -10 -11 -60q-12 -58 -13 -67q-3 -21 -3 -32v-21q0 -62 15 -139q0 -13 -2 -51.5t-2 -47.5q0 -26 8 -57q5 -19 10 -37q2 -15 2 -28l-2 -43q0 -98 8 -144q-14 -43 -14 -88q0 -64 40 -104q33 -33 64 -37q33 4 43 4q16 0 28.5 -34t12.5 -52q0 -35 -24 -53 l-37 -30q-14 -11 -37 -11q-37 0 -86 12q-116 29 -133 29q-42 0 -62 8q-17 10 -33 18q-17 14 -24 21q-14 11 -44 10q-20 -1 -64 -19t-93 -18q-33 0 -33 4q0 3 6 15q14 25 82 77q3 2 50 14q37 9 44 34q11 33 11 56q-2 58 -3 46q0 14 3 20q10 29 10 97q0 32 6 61q14 68 14 123 q0 38 -9 76q-12 47 -15 84q0 42 -35 88q-9 10 -36 70q-22 50 -46 59q-18 6 -52 37q-30 28 -50 28q-50 0 -74 -12q-42 -6 -51 -10q-6 -22 -45 -80q-10 -13 -36 -80q-8 -29 -23 -59q-11 -23 -11 -31q-2 -21 -2 -29q0 -18 6 -49q-10 -66 -10 -174q0 -28 8 -59.5t8 -38.5 q-4 -22 -6 -62q6 -18 13 -35q10 -29 9 -59q7 -45 8.5 -50.5t29.5 -60.5q10 -14 10 -43q0 -43 -28 -51q-22 -6 -46 -6q-9 0 -43 19q-34 30 -92 75q-70 48 -93 86q-20 33 -20 91v5q1 12 2 34q1 18 0 26q0 22 -4 42t-4 19q-2 9 -14 21q-26 25 -26 66z" />
<glyph unicode="e" horiz-adv-x="1126" d="M74 534q0 36 19 90q25 66 25 67q6 25 29 67q17 38 47 90q14 25 68 86q17 15 41 35q8 6 45 43t74 42q23 3 41 5q49 26 61 27q37 0 46 -3q34 -5 92 -17q19 -5 39 -5q65 0 88 -8q45 -29 159 -87q18 -46 54 -103q14 -10 20 -23q18 -21 48 -84q9 -33 9 -70q0 -90 -29 -146 q-26 -50 -63 -50q-13 0 -55 11l-41 11q-6 0 -21 -4q-14 -4 -28 0q-30 8 -62 8q-24 0 -65.5 -12.5t-44.5 -12.5q-20 5 -45 5h-19q-15 -4 -24 -5q-12 -2 -48 -1h-65q-8 -4 -19 -21l-16 -23q-9 -8 -20.5 -21t-11.5 -30q-6 -59 -7 -94q0 -49 12 -74q18 -22 31 -41q10 -23 36 -59 q11 -11 30 -33q7 -9 80 -11q20 -1 43 -1h24h54q14 5 18 4q67 22 99 45q33 36 78 96q10 18 19 41q66 88 93 88q23 12 30 12q4 0 7 -2q49 -10 49 -59q0 -48 -52 -102q-16 -33 -40 -76q-8 -7 -36 -41q-20 -25 -51 -58q-53 -56 -92 -56h-1q-17 -10 -113 -33q-11 -2 -21 -3 q-8 0 -49.5 26t-81.5 26q-93 0 -154 18q-20 6 -30.5 6t-44.5 16q-38 18 -47 32q-25 37 -31 43q-26 26 -31 37q-2 4 -4 14q-16 29 -25 38q-15 17 -32 37q-27 41 -42 181q-4 34 -26 70q-21 33 -20 52zM395 719q0 -51 8 -64q6 -10 87 -41q16 -6 30 -6q35 0 58 9q51 18 63 18 q136 0 148 92q0 38 -31 117q-21 53 -31 63q-15 16 -52.5 31t-39.5 16q-15 12 -47 12q-58 0 -117 -65q-8 -5 -43 -67q-33 -59 -33 -115z" />
<glyph unicode="f" horiz-adv-x="886" d="M1 51q0 43 40 43q18 0 72 33q32 10 77 43q9 43 30 130q10 34 10 66q0 23 -7 67q-6 38 -4 44q10 45 11 70q0 18 -7 41q-16 37 -16 84q0 26 2 55q-8 22 -8 53v54q-18 82 -77 99q-62 18 -83 69q-2 6 -3 11q-2 17 13 27q22 9 79 39q20 14 33 37l16 32q10 11 30 32 q25 30 61 126q18 31 52 92q11 23 47.5 45.5t68.5 26.5q27 4 82 44q37 10 68 10q13 0 75 -6q39 8 60 8q15 0 61 -20q23 -2 74 -29q33 -32 43 -55q11 -28 11 -83q0 -45 -27 -85q-33 -50 -91 -50q-12 0 -22 2q-65 13 -115 58.5t-71 50.5q-29 6 -41 -23q-6 -22 -15 -57 q-10 -38 -10 -57q0 -17 10 -49q19 -60 70 -60q26 0 58 10q6 2 10 3q12 -5 41 -15q43 -16 43 -45q0 -10 -21 -54q-6 -14 -35 -16h-6q-30 0 -86 9q-30 0 -54 -15q-26 -16 -42 -57l-33 -96q0 -142 -8 -190q-4 -24 -4 -37v-198q0 -28 4 -67q0 -51 31 -96q40 -58 49 -123 q2 -11 2 -21q0 -75 -95 -86q-11 -1 -63 3l-57 4q-16 0 -45 -4q-26 -8 -45 -8q-17 0 -44 14l-56 28q-27 14 -46 14q-14 0 -20 -4q-29 -12 -45 -12q-32 0 -32 41z" />
<glyph unicode="g" horiz-adv-x="1202" d="M47 252q0 18 41 59q15 15 34.5 65.5t19.5 77.5q0 18 -17.5 42.5t-26.5 56.5q-11 39 -15 47q-12 24 -13 30q-8 45 -8 76q0 17 22 66q12 27 12 74q6 33 22 51q27 30 29 37q15 31 80 61q46 22 76 43q45 18 53 29q23 22 64 23q12 0 43 -7h16q10 0 27 1.5t22 1.5h10 q29 -13 54 -13q20 2 33 2q7 0 32 -26.5t41 -30.5q34 -10 105 -31q34 0 83.5 37t71.5 37q14 0 43 2t31 2q27 0 72 -23q26 -14 45 -28q33 -28 33 -90v-33q0 -21 -7 -29q-16 -29 -30 -55q-46 -55 -113 -55q-10 0 -32.5 10t-29.5 10q-37 0 -56 -20q-2 -5 -17 -39q-6 -25 -6 -41 v-27q0 -20 -11 -45q-15 -32 -20 -56q-6 -33 -22 -50q-12 -10 -25 -21q-18 -22 -35 -43q-24 -30 -66 -43t-49 -21q-28 -33 -49 -32q-38 0 -68 18q-13 9 -24 17q-11 -5 -40 -4q-17 4 -17 16q0 10 10 21q2 2 5 1q6 0 18 -8q16 -12 18 -12q8 0 19 13q22 26 55 51q48 38 47 73 l-2 123q-1 10 9 45t10 43q0 28 -21 51q-17 18 -54 86q-18 23 -79 43q-34 26 -64 27q-57 0 -84 -56q-10 -22 -10 -44q0 -13 3 -46l3 -34q0 -50 -26 -100q-15 -30 -15 -56q0 -17 29.5 -73t29.5 -80q0 -70 -44 -97q-29 -12 -58 -22l-49 -37q-10 -21 -10 -51q0 -25 8 -33 q10 -22 110 -43q2 0 22 8t34 10q5 1 57 -12q56 -14 82 -14q25 0 61.5 9t49.5 9q7 0 34.5 -4t38.5 -4q12 0 38 5q33 6 63 9l45 4q17 0 20 -2q20 -2 83 -49.5t84.5 -73.5t21.5 -100q0 -22 -7 -39q-6 -34 -38 -96q-27 -37 -35 -45q-4 -4 -23 -19q-1 -30 -19 -97 q-14 -27 -20 -34q-27 -6 -81 -47q-15 -21 -45 -31q-53 -18 -56 -20q-28 -14 -35 -14.5t-45 -8.5t-59 -8q-38 0 -66 11l-79 30q-32 5 -54 43q-16 29 12 40l31 20q25 17 35 14q15 0 27 -2q46 -8 102 -12q26 -2 41 -2q26 0 46 11q25 14 35 16l58 8q35 6 43.5 17.5t24.5 33.5 q7 9 39 35q20 16 17 26q-6 48 -28 113q-12 12 -18 12q-10 -6 -29 -6q-30 0 -117 23q-51 13 -93 13h-6h-60q-38 0 -73 7q-46 8 -53 8q-16 2 -87 23q-14 4 -20 4q-11 0 -19 -6q-29 -24 -82 -56q-14 -14 -14 -57q0 -27 19 -74q26 -64 28 -67q16 -54 52 -78q31 -22 32 -27 q0 -8 -8 -17q-10 -4 -23 0q-38 14 -43 15q-10 0 -26 -6q-8 -9 -23 -9q-21 6 -29 9h-36q-40 0 -84 94q-14 31 -15 86q0 49 23 80l49 49q42 43 43 55q0 63 -33 91q-6 4 -41 20q-45 14 -45 162z" />
<glyph unicode="h" horiz-adv-x="1269" d="M2 1389q0 30 49 57q34 19 74 31q10 2 17 1h34q17 -2 35 -1q13 0 71.5 13t73.5 13q59 0 82 -41q49 -63 49 -96v-72q0 -7 3 -80q1 -22 -11.5 -56t-11.5 -44q20 -144 55 -144q-2 0 61.5 35t67.5 40q87 45 133 45q8 0 31 4t27 4q6 -1 24 -7q48 -13 80 -13h4q34 -4 90 -31 q26 -11 54 -74q20 -27 30 -45q25 -40 25 -68q0 -15 5 -59t5 -49q0 -8 -8.5 -62t-8.5 -115q0 2 10.5 -57.5t10.5 -105.5q0 -22 11 -89q4 -26 4 -49t-4 -66l-3 -44q2 -14 47 -64q21 -23 21 -41q0 -63 -64 -63q-15 0 -29 3t-17 3h-21q-10 0 -51.5 -4t-57.5 -4q-34 0 -88 14 q-18 4 -55 14q-43 15 -43 50q0 25 18 42q50 47 50 103q-4 27 -4 37q0 14 9 37t9 32l6 31q0 16 -2 29l-4 24q0 -2 7.5 50.5t7.5 112.5v28q0 59 -21 96q-14 26 -19 40q-10 27 -14 73q-4 49 -8 63q-2 6 -39 34q-34 26 -78 26q-17 0 -53 -12q-19 -6 -45 -12q-22 -6 -78 -83 q-12 -17 -52.5 -48.5t-56.5 -76.5q-10 -30 -10 -57q0 -20 6.5 -63.5t6.5 -47.5q-2 -22 -3 -44v-33l4 -95q1 -23 16 -56q17 -36 20 -53q6 -49 40 -83q3 -5 19 -37q34 -72 34 -84q0 -43 -46 -71q-18 -10 -29 -11q-4 0 -29 2t-41 2q-35 0 -63.5 15.5t-24.5 15.5q-6 0 -57 -23 q-28 -12 -54 -12q-45 0 -104 23q-14 6 -14 30q0 14 6 27q4 5 17.5 20t20.5 40q10 38 15 51q13 29 13 61q0 15 6 50q7 38 7 45q2 10 3 24q0 11 -2 50t-2 42q15 81 16 182l2 125l4 25l-4 36q0 14 7 58q0 13 -7.5 53.5t-7.5 51.5q0 4 5 53t5 77q0 75 -23 108l-26 56 q-18 36 -54 48q-42 16 -75 28q-41 35 -41 62z" />
<glyph unicode="i" horiz-adv-x="673" d="M62 998q0 14 17 33t34 23q18 -2 33 -1q67 -8 73 -8q109 21 109 24h-2q14 0 36.5 -3t24.5 -3q58 0 76 -61q2 -6 8 -84q1 -15 15 -52.5t14 -54.5q0 -26 -4 -45q-14 -65 -14 -78q0 -12 9 -58q5 -18 5 -51q0 -23 -12.5 -59t-12.5 -59q0 -17 17.5 -70t17.5 -92q0 -82 5 -101 q6 -22 36.5 -43t44.5 -37q22 -25 22 -56q0 -29 -20 -44q-7 -6 -28 -20q-38 -24 -70 -24q-16 0 -46 8q-16 6 -34 6h-31q-8 0 -34 4t-33 -2q-26 -18 -72 -19h-60q-35 0 -47 13q-18 10 -41 45q-5 22 20 41l33 24q31 23 50 70q10 26 20 67q0 27 16.5 76t16.5 78q-8 66 -8 129 q0 21 -6 55t-6 35q2 9 10 58q4 22 4 47q0 84 -66 176q-6 12 -12 25q-14 21 -44 35q-19 10 -44 21q-20 12 -20 32zM202 1380q0 38 9 74q2 32 27 56t57 27q22 2 48.5 11t33.5 9q27 0 57 -17q21 -11 24 -22q24 -22 48 -78q2 -50 2 -37q0 -27 -26 -80q-18 -37 -62 -80 q-31 -30 -70 -30q-78 0 -106 53q-11 22 -25 47q-17 30 -17 67z" />
<glyph unicode="j" horiz-adv-x="790" d="M-25 -307l9 53q0 26 14 43q7 9 49 25q14 10 37 26.5t47 16.5q66 0 120 -77q31 -46 64 -95q4 0 37 16q14 2 18 6q17 12 37 47q31 70 31 144q0 8 -20 172q0 22 2 30q8 18 12 35l6 150q20 102 20 213q0 24 -8 74t-8 54q0 18 4 49l8 60q0 21 -4 31q-18 25 -38 56 q-26 38 -90 67q-74 34 -82 41q-42 18 -80 39q-18 12 -18 29q0 15 38 44q8 6 75 37q13 6 31 7q18 0 40 -8q51 -21 59 -21q72 14 115 14q49 0 72 -14q19 -12 65 -68q26 -32 26 -51l-4 -41q2 -12 3 -24v-29q0 -18 -1.5 -48t-1.5 -42q2 -16 3 -25q0 -12 -5.5 -41t-5.5 -34 q0 -48 18 -93q10 -24 11 -63q0 -30 -18 -104q-10 -42 -11 -64q0 -13 3.5 -33t3.5 -30v-29q0 -14 -2 -45.5t-2 -36.5q0 -69 16 -140q8 -18 8 -53q0 -89 -20 -123q-14 -14 -32 -70q-45 -153 -176 -217q-65 -32 -114 -32q-20 0 -43 7t-33 7q-15 0 -37 -10q-11 -1 -23 -1 q-54 0 -108 22q-47 12 -61.5 24t-35 58t-20.5 65zM369 1415q6 38 36 69t64 31q20 0 61.5 18.5t63.5 18.5q26 0 61 -22q26 -33 29 -35q21 -33 21 -72q0 -52 -46 -80q-13 -8 -26 -24q-37 -46 -87 -55q-30 -6 -34 -6q-6 -3 -14 -4q-26 0 -66 32q-38 23 -50.5 48t-12.5 81z" />
<glyph unicode="k" horiz-adv-x="1339" d="M4 1438q0 30 29 72q26 40 123 40q23 0 63 -14t45 -14q14 0 55 -7q49 -7 60 -8q42 0 61 -10q22 -18 82 -55q26 -16 27 -41q0 -59 -14.5 -127t-14.5 -66q0 -38 27 -98q10 -23 10 -57t-10 -76q-25 -100 -25 -115q0 -22 13 -48q10 -18 19 -36q6 -14 5 -31q0 -30 2 -37 q17 -35 33 -71q12 -26 23 -37q10 -6 22 -6q27 0 94 26q16 6 45 35.5t35 32.5q18 14 37.5 52.5t19.5 58.5v9q0 39 -30 71q-30 29 -88 85q-6 17 -6 25q0 22 28 39q21 18 30 19q6 0 15 -3h59q8 0 64 3h3q19 0 65 -11q50 -12 49 -12l43 12t65 12q29 0 37 -1q13 -3 37 -17 q6 -3 60 -26q33 -14 33 -29q0 -29 -56 -51q-23 -10 -49 -20q-59 -35 -99 -36q-20 0 -30 -6l-37 -29q-60 -33 -76 -59q-28 -46 -30 -49q-26 -20 -45 -79l-14 -46q-6 -17 -5 -32q0 -27 31 -88q8 -17 20 -28q26 -33 54 -63q20 -15 34 -30q26 -30 33 -35q28 -25 55 -67 q24 -37 36 -44q38 -37 134 -97q53 -21 53 -69q-2 -14 -38 -28l-74 -29q-16 -6 -29 -6q-9 0 -31 9q-14 6 -25 6q-3 0 -15.5 -2.5t-28.5 -2.5q-6 0 -39 1t-60 1q-23 0 -60.5 -8t-65.5 -8q-55 0 -109 30q-10 10 -22 10l-33 -4q-12 -4 -41 -18q-35 -29 -50 -29q-12 2 -20 3 q-10 2 -16 1h-12q-18 -2 -27 -1q-19 0 -47 12q-9 2 -31 2h-39q-21 0 -43 -2q-22 0 -53.5 6t-38.5 6q-1 0 -39 -14t-70 -14q-35 0 -40 5q-8 16 -21 31q-22 26 -25 33q-2 4 -2 27q0 17 66 55q31 18 94 55q26 17 36 50q2 8 9 84q2 22 2 24q0 10 -4 41.5t-4 38.5q0 13 4 60.5 t4 82.5q0 50 -11 148q-9 80 -9 91l6 179l2 178q0 71 -70 119q-32 27 -119 63q-71 30 -90 63q-10 19 -10 40zM530 205q0 -92 36 -125q30 -29 96 -29h40q10 -6 17 -8q6 -5 13 -5q10 0 22 9q38 25 43 29q24 20 45 55q26 41 26 59q-6 69 -10 92q-8 50 -23 70q-25 34 -42 54 q-40 44 -102 44h-3q-63 0 -80 -32q-17 -14 -29 -24q-22 -18 -26 -32q-21 -40 -21 -65q0 -6 1 -11q2 -9 0 -44q-2 -34 -3 -37z" />
<glyph unicode="l" horiz-adv-x="686" d="M35 1438q0 10 6 24q14 30 45 31q28 -4 47 -4q20 0 42 7q26 9 42 10q10 1 76 31q19 9 47 9h6q49 0 78 -21q18 -18 38 -36.5t20 -48.5v-82q0 -53 -9 -70q-2 -8 -2 -33v-42q0 -27 -4 -35q-13 -35 -13 -66q0 -30 17 -99q4 -18 4 -36v-53q0 -32 6 -78t6 -68q0 -18 -8 -72 t-8 -73q0 -6 6 -59q2 -18 2 -58q0 -25 -5 -67l-5 -42q0 -31 25 -57q16 -18 16 -31q0 -7 -6 -18q-14 -26 -14 -47t12 -45q20 -34 20 -35q8 -20 66 -74q20 -18 20 -46q0 -34 -37 -56q-14 -8 -29 -8q-24 4 -38 4q-11 0 -34.5 -10t-33.5 -10q-2 0 -30 9t-44 7q-29 -4 -47 -4 t-63 10t-59 10q-13 0 -41.5 -5t-33.5 -5q-12 0 -48 25q-10 10 -11 22q0 17 18 40t39 31q14 5 46 15q78 30 78 133q0 36 -14 96q-5 18 4 54q15 66 20 104q1 6 1 14q0 19 -5 52q-8 51 -8 65q0 21 13 119q2 23 3 28q0 4 -6 40t-6 59q0 19 5 57.5t5 43.5v-2q-1 0 -11 86 q-3 26 -6 36q-16 72 -34 150q-13 42 -31 63q-14 16 -103 67q-5 3 -13 9q-18 14 -19 35z" />
<glyph unicode="m" horiz-adv-x="1990" d="M18 55q0 43 44 43q78 11 96 68q11 34 20 49q29 48 29 55q2 18 4 92l2 88q0 13 -15.5 40.5t-15.5 37.5q0 5 15 38q8 18 8 32q0 16 -5.5 55t-5.5 48q0 31 11 85q1 6 1 11q0 35 -44 65q-24 21 -68 53q-76 42 -76 72q0 26 64 45l50 25q47 22 77 22h45q53 0 61 -6 q33 -24 91 -59q19 -9 40 -27q15 -12 31 -12q30 0 91 26q19 7 32 17q34 25 70 28q9 0 36.5 15t47.5 17q28 3 36 4q17 0 51.5 -5.5t39.5 -5.5q26 -2 59 -25q20 -14 45 -30q30 -22 55 -50q6 -6 10 -12q6 -1 12 0q39 0 126 52q13 8 57 43q23 18 29 20q30 2 104 29q15 -10 49 -16 q32 8 51 8q5 0 30 -8q30 -9 64 -13q46 -6 120 -86q22 -17 28 -22q6 -10 21 -31q34 -20 43 -28q16 -14 32.5 -48t16.5 -195v-194q0 -30 -1 -77t-1 -65q0 -109 49 -141q94 -62 96 -65q18 -25 18 -54q0 -28 -18 -59q-13 -22 -30 -22q-21 2 -40 2q-39 -8 -98 -19q-13 0 -75 6 q-29 0 -72 -12q-18 -8 -29 -8q-9 0 -16 4q-21 11 -29 15q-16 4 -25 4q-5 -1 -22 -4q-21 -3 -30 4q-17 10 -33 10q-8 0 -27 -8.5t-23 -8.5q-14 0 -34 23q-13 14 -13 26q7 17 14 33q13 18 50 29q43 13 57 45q21 18 51 79q9 33 9 60v49q4 25 4 39q0 10 -5.5 68.5t-5.5 72.5v31 q2 9 4 33q2 19 3 33q0 23 -11 55q-9 23 -17 46q-5 20 -5 28q0 21 -2 26l-12 58q-13 58 -40 73q-8 6 -32 27q-11 10 -27 10q-34 0 -72 19q-13 6 -18 6q-3 0 -19 -10q-19 -13 -37 -20q-22 -9 -43 -17q-20 -10 -37 -36q-19 -30 -38 -56q-10 -21 -10 -78q0 -43 -26 -120 q-5 -15 -5 -33q0 -19 6 -58q17 -103 17 -223q0 -62 6 -83q7 -25 45 -85q17 -26 29 -27q22 7 32 10q16 5 27 0l24 -16q46 -15 46 -49q0 -14 -15 -19q-28 -28 -88 -32q-26 -2 -86 -2q-36 0 -69 8l-34 8q-6 0 -24.5 -9.5t-38.5 -9.5q-6 0 -29.5 9.5t-51.5 9.5q-18 0 -41.5 -6 t-24.5 -6q-14 0 -51 12q-46 15 -46 47q0 19 37 35q48 20 66 74q4 10 22 104q6 18 6 33q0 6 -6 32.5t-6 37.5l6 29q5 29 5 59q0 36 -15.5 80.5t-15.5 60.5v31q0 20 7 49q6 26 5 35q-2 10 -2 14v10q0 9 3 31t3 26v17q0 22 -8 31q-26 27 -68 59q-18 20 -49 47q-11 6 -41 6h-20 q-35 0 -50 -8l-18 -19q-4 -4 -16 -12q-19 -12 -38.5 -48.5t-25.5 -40.5q-17 -13 -40 -79q-30 -86 -38 -150q-6 -36 -6 -75q0 -24 3 -58q3 -42 3 -54v-8q0 -21 -4 -60q-6 -50 -6 -66q0 -82 7 -107q12 -42 59 -55q88 -25 88 -81q0 -18 -6 -25q-18 -7 -54 -29q-10 -6 -18 -6 t-28.5 12.5t-37.5 12.5q-33 -4 -59 -4q-64 0 -145 8q-10 0 -74 -23q-34 -12 -59 -12q-27 0 -39 15q-16 19 -35 44q-17 17 -17 37z" />
<glyph unicode="n" horiz-adv-x="1300" d="M41 39q6 46 39 66q23 9 47 17q38 16 59 49q26 40 27 89q0 34 -9.5 70.5t-9.5 35.5q0 26 12.5 76.5t12.5 69.5q0 26 -6 62q-4 22 13 59q10 24 9 51q0 10 -2 36.5t-2 31.5q0 19 1.5 46.5t1.5 33.5v14q-29 86 -113 109q-33 10 -37 11q-22 14 -22 48q0 47 65 47h27q5 1 48 14 q40 12 58 12q22 0 47 -8q18 -2 59 -12q16 -6 25 -18q16 -22 25 -31q40 -24 96 -76q4 -5 4 -12v-20q0 -17 -8 -90.5t-8 -90.5q-10 -80 -32 -132q-14 -57 -34 -126q-14 -21 -14 -42q0 -11 4 -23q18 -58 18 -107q0 -17 -1 -40t-1 -29q0 -114 64 -140q35 -15 49 -49 q6 -16 -16 -39q-12 -14 -66 -14q-9 0 -31 16.5t-42 16.5q-37 0 -132 -58q-14 -8 -31 -8q-24 4 -38 4h-50q-64 0 -84 27q-6 10 -15 24q-7 11 -7 24v5zM570 985q0 25 48 72q17 16 40 16q22 -2 43 -2q47 0 143 27q40 0 118 -37q11 -6 21 -8q50 -16 61 -45.5t40.5 -60.5 t31.5 -35q6 -14 22 -35q29 -39 29 -76q0 -5 -2 -27t-2 -31q0 -15 -12.5 -77.5t-12.5 -81.5q0 -34 2 -68t2 -33q0 -17 -4.5 -61.5t-4.5 -51.5q0 -10 2.5 -40t2.5 -41q-2 -21 -1 -27q0 -20 9 -31q9 -8 17 -16q10 -15 25 -43q14 -25 32 -35.5t42 -26.5q19 -16 36 -44 q12 -21 12 -37q0 -14 -22 -43q-29 -37 -52 -37h-1q-15 1 -70 27t-82 26q-5 0 -26 -3.5t-33 -2.5q-58 2 -82 2q-18 -6 -32 -6q2 0 -91 14q-29 12 -29 27q0 11 17 29l37 38q75 83 75 162q0 14 -6 40t-6 48q0 14 8.5 71.5t8.5 74.5q0 20 -8.5 55t-8.5 47q0 8 7 61q0 27 -15 72 q-2 33 -6 80q-6 34 -8 74q-2 54 -56 66q-74 18 -74 21q0 1 3 1q-6 0 -16 -7q-22 -2 -72 -20q-21 -13 -31 -12q-10 0 -35 16q-17 7 -25.5 13t-8.5 22z" />
<glyph unicode="o" horiz-adv-x="1243" d="M72 621q0 80 41 137q16 17 34 32l87 116q12 38 22 51q5 6 41 37q21 17 86 38q34 22 75 29q95 35 138 35q27 0 64.5 -17.5t66.5 -17.5q12 0 41 4t33 4q32 0 141 -86q50 -57 140 -135q29 -17 32 -21q51 -62 52 -164q2 -27 11 -60q7 -29 7 -33q0 -11 6 -29t6 -31 q0 -60 -67 -229q-19 -27 -50 -77q-17 -17 -39 -38q-32 -64 -71 -96q-24 -18 -69 -56q-26 -26 -93 -26q-17 2 -41 2q-28 0 -74 -27q-24 -14 -67 -14q-8 0 -40 7q-36 8 -55 10q-27 3 -43 28q-5 8 -10 18q-8 10 -14 10h-29q-119 0 -170 88q-20 18 -38 37q-6 11 -15 19 q-13 10 -39 43q-46 58 -59 128q-4 20 -19 55q-13 30 -12 50q0 6 4 52q1 7 1 15q0 20 -6 48q-9 42 -9 64zM336 373q0 -66 30 -99q13 -36 40 -88q23 -15 73 -72q29 -42 43 -42q37 8 99 24q5 0 27 -7t30 -7q25 4 60 20q11 12 24 25q14 8 18 12q38 27 75 139q13 40 13 103 q0 24 -1 59.5t-1 49.5v22q3 11 5 22t2 25v25q0 70 -9 139q0 70 -37 100q-14 9 -24 37.5t-17 34.5q-38 33 -90 47q-12 3 -35 16q-19 10 -35 11h-4q-14 0 -40 -11q-26 -18 -74 -56q-17 -16 -21 -20q-17 -10 -47 -60q-17 -30 -53 -58q-26 -21 -26 -58q0 -18 1 -28l-4 -44 q-4 -45 -4 -75q0 -60 -9 -122t-9 -64z" />
<glyph unicode="p" horiz-adv-x="1306" d="M-14 985q0 17 10 35q5 6 22 33q14 16 27 16q21 -6 29 -8q22 4 40 4q-2 0 44 -6q16 -2 32 -2q7 0 33 8t49 8q26 0 57 -17q39 -22 45 -24q49 -14 89 -46q41 -34 74 -44q14 -5 34 -12q14 -8 19 -29q1 -8 1 -16q0 -29 -21 -58q-17 -21 -32 -70q-14 -46 -38 -75 q-17 -18 -17 -70q0 -26 3 -41q0 -24 20 -65q13 -24 12 -56q2 -16 2 -24q0 -16 -5 -38l-5 -23q0 3 32 -112q1 -38 20 -110q13 -22 28 -41q4 -9 4 -14q0 -13 -19 -15q-26 -3 -37 -14l-20 -20q-36 -30 -36 -107q0 -71 26 -98q8 -10 12 -16q6 -23 14 -48q20 -45 76 -84 q30 -21 31 -47q0 3 -16 -63q-10 -16 -39 -16q-2 0 -16 2q-36 4 -66 4q-22 0 -70 -8t-98 -8q-12 -1 -29 -2t-22 -1h4q0 2 -66 11q-12 1 -37 4q-110 18 -110 64q0 26 51 40q67 19 100 76q16 28 35 87q2 24 2 46q0 1 -5 64t-5 116q0 19 6 55t6 48q0 14 -7 49t-7 49 q0 54 -14.5 104.5t-14.5 75.5q0 29 15.5 68t15.5 53q0 17 -2 29q0 12 4 45t4 41q0 34 -25 92q-2 18 -14 58q-6 15 -16 20q-24 10 -41 24q-23 19 -91 47q-60 25 -79 49q-8 8 -8 23zM604 970q-1 3 -1 6q0 9 9 18l14 14q4 12 17 37q33 43 82 57q10 -4 39 -4q14 4 49 4 q12 0 55 -28t77 -32q38 -3 63 -24q14 -13 30 -27q14 -6 35.5 -32.5t41.5 -49.5q31 -35 65 -106q25 -38 55 -80q37 -31 37 -88q0 -15 -2 -25q0 -68 -25 -208q-18 -54 -39 -74q-39 -41 -43 -47q-5 -14 -29 -46q-20 -27 -20 -38q-4 -26 -53 -111q-10 -19 -46 -40 q-41 -25 -49 -34q-26 -28 -44 -34q-6 -2 -40 -3q-9 0 -29 1.5t-31 1.5q-15 0 -32 -3q-16 -2 -29 -2q-51 0 -65 31q-6 14 0 29q4 7 14 18q2 2 11 3q6 0 14 -2q21 -3 37 -3q64 0 127 46q18 14 31 30q6 8 18 37q15 21 34 62q2 16 9 125q2 63 7 159q1 18 2 41q2 20 2 25 q0 14 -18.5 53t-18.5 52t-7 27q-12 29 -12 60v41q-5 18 -32 55q-19 32 -54 49q-25 13 -53 13q-21 -2 -31 -2q-22 0 -47 14q-6 3 -66 21q-28 2 -38 1q-17 2 -21 12z" />
<glyph unicode="q" horiz-adv-x="1220" d="M67 625q0 39 31 92q10 38 48 101q24 23 40 89q12 29 16 37q20 37 42 45q98 60 147 86q63 26 111 27q3 0 42.5 -6t72.5 -6q23 0 102 -23q18 -6 42.5 -41.5t45.5 -41.5q30 -9 67 -19q18 0 27 16q13 25 53 65q33 42 72 44h2q31 0 54 -48q4 -8 19 -114l8 -57q3 -21 3 -44 q0 -28 -21 -85q-12 -34 -12 -72q0 -19 8.5 -61.5t8.5 -70.5q0 -37 -2 -42q-2 -34 -8 -94q-2 -14 -7 -44q-15 -116 -15 -161q0 -10 1 -17q10 -27 10 -102q0 -27 -2 -35q-10 -38 -10 -113v-36q0 -86 24 -116q12 -14 19 -40q4 -16 8 -33q9 -20 10 -22q11 -14 39 -16 q90 -9 91 -74q-1 -17 -11 -31q-36 -47 -72 -48q-24 5 -49 9q-74 2 -176 19q-22 11 -47 12q-88 0 -119 20q-41 27 -41 53q0 7 22 29q26 26 33 40q23 28 50 62q8 10 8 44q0 22 -10 110q-8 67 -16 85q-6 14 -32 33l-48 16q-30 10 -29 28q6 21 10 26q9 18 35 50q22 26 28 51 q3 26 41 109q27 42 27 81q0 22 -10 66q-17 70 -17 90q0 6 9 39q4 17 4 43q0 55 -27 98q-11 19 -20 61q-9 39 -15 46q-39 47 -110 111q-16 9 -36 28q-15 14 -24 14q-22 6 -42 12q-18 0 -54 -26q-28 -22 -47 -37q-14 -7 -26 -33q-6 -17 -13 -33q-16 -30 -27 -53 q-10 -30 -9 -61q0 -93 -13 -209q0 -31 -6 -82t-6 -70v-57q14 -38 14 -99t4 -74q6 -20 35 -32q60 -24 61 -70q1 -31 -16 -45q-8 -6 -47 -18q-18 -6 -33 6q-24 20 -29 23q-8 1 -15 1q-18 0 -33 -8q-15 -4 -38 29q-34 50 -41 58q-13 15 -22 55q-21 49 -44 82l-51 69 q-22 57 -22 99q0 14 5 43t5 30q0 25 -12 50q-23 45 -23 88z" />
<glyph unicode="r" horiz-adv-x="929" d="M41 39q0 30 15 52l32 44q0 22 10 37q22 30 44 74q18 23 41 66q3 16 3 22q0 17 -11 50.5t-11 39.5q0 10 15 52t15 90q0 22 -1 32l-7 196q-2 56 -63 134q-6 6 -49 34q-27 18 -25 41q3 26 17 37q25 14 48 27q23 -8 42 -8q13 0 59 10q29 -6 35 -6l22 6q23 6 50 6 q11 0 83.5 -30.5t81.5 -30.5q205 77 237 77h1q31 0 45 -13q22 -23 45 -32l32 -18q29 -16 46 -16q23 0 41 -31q3 -4 3 -15q0 -14 -5 -37q-6 -29 -17 -89q-10 -54 -47 -90q-20 -19 -45 -19q-14 0 -37 8l-41 15q-45 35 -100 73q-23 18 -43 35q-10 0 -31 4q-33 0 -53 -8 q-17 -7 -32 -14q-25 -8 -48 -84q-11 -38 -11 -63q0 -7 1 -13q0 -15 6 -73.5t6 -72.5q0 -66 -16.5 -117t-16.5 -42q0 -13 3 -21l-4 -114v-39q0 -26 12 -47q14 -22 57 -48q20 -11 49 -29t29 -40q0 -18 -25 -31q-61 -21 -55 -20q-20 2 -47 2q2 0 -51 -5t-97 -5q-28 0 -71.5 8 t-48.5 8q-15 0 -35.5 -3t-26.5 -3q-14 2 -29 2q-26 6 -26 45z" />
<glyph unicode="s" horiz-adv-x="975" d="M96 809q0 47 17 90q20 41 26 59q10 22 56.5 62.5t54.5 59.5q13 30 41 30q82 10 123 10q51 0 116 -16q3 -1 69 -39q60 -34 89 -35q30 0 92 27q29 12 42 12q30 0 59 -41q30 -44 30 -76q0 -7 -9 -23.5t-9 -21.5q-3 -24 -27 -84q-22 -54 -22 -81q0 -92 26 -150 q62 -132 62 -182q0 -54 -18 -126q-12 -47 -33 -138q-11 -51 -31 -68q-25 -20 -70.5 -62.5t-70.5 -52.5q-29 -14 -72 -14q-21 0 -46 18t-25 29q0 6 4 10q15 14 20 20q29 29 39 37q50 28 123 95q4 7 32 77q0 10 -8 19q-10 15 -20 29t-23 18q-21 7 -83 48q-56 38 -83 41 q-38 5 -164 46q-44 14 -98 14q-37 0 -70 13q-20 7 -49 24q-10 6 -16 27q-9 26 -14 33q-17 34 -27 53q-30 45 -31 76q0 14 2 30t2 21v12q0 3 -3 27t-3 43zM106 205q0 6 4 29q3 20 3 26q-4 19 -4 33q0 43 25 65q13 11 32 8q18 0 31 -26q12 -41 17 -52q9 -19 28 -34 q12 -18 24 -35q23 -22 38 -53l14 -28q37 -21 52 -33q28 -21 28 -38q4 -34 -25 -34q-46 10 -80 10q-18 0 -51 -6.5t-52 -6.5q-61 2 -61 58q0 13 -17 90q-6 22 -6 27zM264 846q0 -12 13 -43q5 -13 37 -27q105 -47 173 -104q41 -21 60 -21q46 10 59 11h11q42 0 81 55 q11 16 11 29q0 12 -17 32q-21 30 -49 66q-12 6 -32 38t-29 36q-6 3 -25 25q-16 18 -29 18q-70 0 -96 -10q-11 -4 -29 -9q-28 -3 -71 -16q-13 -8 -30 -26l-24 -23q-14 -14 -14 -31z" />
<glyph unicode="t" horiz-adv-x="833" d="M37 969q0 4 6 20q16 14 43 50q18 39 43 69q14 17 43 51q35 44 35 82q0 74 -2 74v-2q0 21 2 26q4 19 26.5 53t36.5 42q18 18 60 18q29 0 49 -47q2 -20 6 -39q14 -38 14 -53q-2 -19 -11 -62q-5 -14 -5 -25q0 -41 16 -60q18 -22 57 -32q46 -10 56 -16q21 -14 78 -24 q21 -4 36 -4q33 0 46 -11q61 -42 61 -81q0 -79 -88 -83q-21 -1 -33 -5q-28 -6 -82 -20q-11 -2 -28 -8q-15 -2 -37 4q-6 2 -12 1q-10 0 -15 -6q-42 -57 -51 -76q-18 -34 -21 -68q-1 -56 -1 -111l-3 -84v-23q0 -48 7 -66q14 -43 14 -80q0 -10 -7 -51q-6 -36 -3 -45 q21 -59 21 -84v-25q34 -70 81 -78q11 -2 22 -2q37 0 73 24q47 30 56 81q0 51 13 81q6 30 20 88q15 51 54 52q10 0 16 -7q10 -10 20 -68l13 -85q4 -26 4 -37q-6 -12 -6 -28q0 -8 -10 -31q-12 -27 -15 -37q-23 -91 -55 -125q-38 -40 -120 -40q-10 0 -27.5 1.5t-20.5 1.5 q-30 0 -69 -17q-30 -14 -52 -14q-6 0 -69 21q-40 13 -68 49q-34 45 -39 49q-17 12 -25 58q-9 12 -16 22q-10 14 -10 33q2 15 -2 37q-10 54 -11 67q0 52 -14 95t-14 39l4 108q2 66 29 156q12 42 12 124v15q-17 18 -38 77q-3 31 -36 48l-14 14q-6 6 -26 15q-17 8 -17 14z" />
<glyph unicode="u" horiz-adv-x="1277" d="M10 985q0 16 39 35q6 6 32 4t29 -2q12 0 33.5 9t28.5 9q17 -2 37 9q60 30 102 30q75 0 87 -62q3 -22 19 -55q14 -27 13 -51q0 -37 -6 -53q-14 -38 -14 -53q0 -26 8 -47q21 -53 20 -82q0 -54 -16 -131q0 -42 -6 -82t-6 -51q0 -22 -4 -54q-4 -34 -4 -48v-7q0 -52 30 -90 q30 -32 58 -63.5t48 -39.5q14 -5 30 -12.5t101 -39.5q23 -9 9 -37q-6 -14 -35 -25l-48 -18q-29 -13 -71 -13h-6q-41 0 -108 17q-42 10 -82 34q-46 28 -73 53q-60 53 -77 113q-12 40 -12 101v10v33q-1 5 -1 10q0 14 7 36q10 30 10 48t-8 47t-8 37q0 3 6 37q3 18 3 37 q0 35 -12 72q-5 42 -9 84q-10 75 -37 106q-14 8 -27 18q-9 30 -46 72q-34 37 -34 55zM666 975q0 40 44 67q40 25 87 25q32 0 85.5 -8.5t63.5 -8.5q29 0 57 3q85 -13 105 -147q2 -9 2 -15v-10q-5 -22 -4 -47q0 -14 6 -49t6 -38q-8 -74 -8 -118q0 -39 -8 -69q-12 -45 -13 -51 q-10 -57 -10 -132q0 -80 8 -91q6 -25 19 -63q10 -22 19 -44q20 -41 50 -58l43 -21q29 -14 25 -28q-6 -42 -15.5 -53t-49.5 -24q-40 -7 -104 -28q-18 -10 -34 -10q-20 17 -45 17q-7 0 -30 -7q-24 -6 -52 17t-41 58.5t-37 71.5q-16 26 -16 75q6 38 12 79q-9 39 -9 73v7 q0 22 32 148q1 5 -4 30q-6 30 -6 58v53q0 14 -3 51.5t-3 53.5q-2 58 -29 85q-34 25 -45 33q-29 14 -43 22q-46 26 -53 79q-2 7 -2 14z" />
<glyph unicode="v" horiz-adv-x="1277" d="M-2 957q0 26 8 46q2 10 27.5 26.5t40.5 16.5q4 1 11 1q17 0 54 -4q60 -5 80 -5q-2 0 80 7l108 8q17 4 21 4q18 -4 29 -7h62q30 0 65 -4q6 0 18 -6q28 -14 104 -14q15 0 53.5 6t51.5 6q24 0 42 2l36 5q92 14 113 14q10 0 43 -4.5t41 -4.5q18 0 40 7.5t25 7.5l24 -8l87 -19 q10 -4 14 -22q2 -9 2 -27q0 -26 -12 -39q-42 -44 -111 -88q-35 -22 -37 -24q-23 -27 -82 -74q-20 -11 -34 -51q-17 -46 -24 -54l-31 -33q-29 -30 -32 -34q-18 -25 -29 -66q-12 -47 -16 -51q-20 -24 -30 -101q-14 -98 -40 -119q-29 -24 -46 -123q-9 -56 -21 -91 q-8 -37 -34 -53l-48 -31q-29 -24 -59 -24q-32 0 -52 31q-11 31 -38 97l-23 46q-6 33 -22 90q-19 43 -39 98q-26 70 -32 143t-7 76q-24 38 -31 72q-2 14 -67 115q-22 48 -64 111q-20 16 -57 32q-32 12 -86 34q-33 14 -62 37q-14 13 -14 42zM526 764q0 -18 5.5 -52t5.5 -44 q0 -62 23 -98l26 -42q22 -34 76 -54q18 -7 34 -7q38 0 60 41q11 14 23 30q19 25 19 40q5 37 29 104q4 13 10 40q7 30 17 72q2 10 2 32q0 38 -22 51q-30 18 -54 30q-34 18 -63 19q-56 0 -138 -70q-53 -25 -53 -92z" />
<glyph unicode="w" horiz-adv-x="1722" d="M2 979q0 24 23 37q38 6 104 33q21 14 35 14q18 -4 30 -6q7 -2 18 -3q7 0 16 2q22 3 32 3q23 0 50 -9q28 -2 77 -10q9 -2 53 -61q13 -17 14 -25q4 -17 4 -77q0 -40 9.5 -67.5t9.5 -25.5q-8 -53 -8 -79q0 -15 9 -55q10 -42 11 -53q2 -37 31 -89q5 -8 41 -51q19 -22 31 -23 q6 0 16 12q18 16 37 36q18 27 56 75q20 20 41 40q23 26 27 53q5 26 5 70v15v49q0 34 -2 43q-15 66 -73 94q-66 32 -66 74q0 22 37 30q15 3 18 3q41 0 92 33q17 10 33 10q1 0 64 -17q18 -5 33 -5q20 0 32 1q63 10 94 11q48 0 62 -8q17 -10 16 -43q0 -46 -23.5 -87t-23.5 -57 q0 -111 33 -182q27 -60 58 -154q6 -55 49 -55h7h19q22 6 33 45q0 25 20 51l29 37q5 29 19 90l28 66q10 77 10 88q0 34 -30 84q-22 37 -19 55q6 57 60 78q38 9 109 29q23 8 58 8q17 0 47 -1t44 -1q45 0 57 -13q17 -22 32 -42q25 -25 25 -46q0 -4 -25 -53q-18 -29 -95 -62 q-72 -31 -80 -54q-21 -39 -49 -100q-7 -35 -33 -104q-21 -49 -42 -96q-20 -17 -34 -34q-26 -34 -27 -72q0 -25 -15 -55.5t-16 -39.5q-2 -19 -38 -69q-17 -22 -17 -55q-6 -66 -20 -87.5t-36 -81.5q-18 -49 -34 -62q-21 -17 -49 -17h-3q-26 0 -38 17q-21 12 -35 26 q-10 44 -49 146q-37 42 -37 81v46q0 45 -25 82q-14 35 -36 81q-12 18 -27 47q-18 29 -39 29q-45 0 -53 -8q-18 -22 -34 -43q-22 -28 -23 -51q-2 -76 -29 -111q-22 -53 -69 -126q-18 -14 -23 -50q-9 -63 -19 -84q-10 -14 -32 -43q-27 -35 -50 -35q-51 0 -63 45 q-21 77 -21 108v32q0 21 -24 40q-55 46 -55 88q0 13 -15 54q-12 34 -14 106q-2 47 -21 92q-5 12 -28 84q-10 34 -33 54q-18 15 -56 46q-11 10 -19 47q-10 42 -17 56q-27 50 -53 68q-29 8 -56 18q-46 43 -47 76z" />
<glyph unicode="x" horiz-adv-x="1243" d="M8 1008q0 18 44 48q14 9 24 9q49 -16 125 -16q-3 0 45 5t96 5q52 0 63.5 4t28.5 2q8 0 41 -12q16 -6 27 -7h26q43 -6 82 -44q8 -8 8 -17q-2 -18 -12 -88q-6 -38 -6 -66q0 -64 62 -85q38 -9 48 -9q7 0 11 2q25 6 49 15q33 41 33 81q0 19 -10 56l-37 70q-9 24 -9 34 q0 8 9 15q61 66 96 75q23 6 49 5q70 -2 56 -3l57 9q19 -2 26 -5q14 -4 51 -20q14 -6 38 -6q6 0 31.5 2t33.5 2q53 0 53 -43q0 -15 -8 -31q-22 -42 -64 -57q-19 -6 -59 -19l-91 -38q-24 -10 -60 -51q-24 -20 -59 -56q-26 -38 -88 -96q-23 -22 -29 -39q-5 -11 -5 -49 q0 -33 42 -107q18 -23 48 -74q9 -18 19 -30l80 -94q28 -50 45 -74q30 -42 68 -61q24 -12 48 -23q17 -14 30.5 -23.5t27.5 -16.5q26 -17 26 -32q0 -8 -12 -25q-25 -26 -43 -26q-1 0 -22.5 9.5t-32.5 4.5q-32 -12 -80 -12q-18 0 -47 2q-28 2 -39 0q-46 -8 -92 -8 q-96 0 -145 49q-3 4 -3 9q0 9 8 22q40 62 40 80q0 11 -15 61q-2 9 -6 23q-7 26 -23 37q-15 22 -40 53q-47 47 -73 47h-3q-60 -6 -72 -43q-24 -73 -24 -135q0 -31 7 -75l7 -44q0 -39 -38 -71q-19 -15 -48 -15q-38 6 -57 6q-86 0 -131 -9l-95 -20h-5q-18 0 -38 11l-24 14 q-25 12 -25 58q0 54 41 65q36 10 48 15q37 16 110 66q45 30 117 73q38 22 48.5 37.5t22.5 31.5q21 19 53 61q2 5 25 42q16 26 16 57q0 46 -14 61.5t-28 54t-29 52.5q-14 10 -29 22q-16 24 -59.5 50.5t-53.5 39.5q-5 7 -12 12q-23 17 -31 29q-14 27 -35 47l-20 17 q-8 7 -12 12q-38 41 -84 41q-14 -2 -21 -2q-8 -2 -14 -2h-10q-13 0 -18 4q-17 12 -19 13q-31 14 -31 51z" />
<glyph unicode="y" horiz-adv-x="1148" d="M16 -238q2 25 31 65q27 35 52 53q22 15 55 15q59 0 117 -41q35 -25 44 -48q16 -39 24.5 -47.5t34.5 -8.5q25 0 32 2q7 6 18 13q35 20 41 26q12 14 22 49q7 25 33 25l33 4q4 -22 4 -31v-12q-4 -8 -4 -10q-62 -131 -78 -156q-70 -112 -165 -133q-28 -6 -46 -6q-5 0 -25.5 1 t-36.5 1q-49 0 -80 20l-44 38q-18 16 -43 73q-19 44 -19 98v10zM30 994q0 25 22 44q20 17 40 16q36 0 107 18.5t112 18.5q8 0 53.5 -10t53.5 -10q29 4 47 4q39 0 63 -22q25 -31 25 -55l-35 -62t-35 -113q0 -41 13 -96q14 -34 34 -108q10 -105 36 -121q20 -13 38 -45 q13 -22 51 -23q35 0 39 33q0 15 28 48q30 36 36 64q4 19 28 29q17 21 19 47v16q0 30 2 89q2 31 2 26q0 43 -39 91q-23 27 -28 55q-4 5 -21 22.5t-12 36.5q0 18 10 31q14 10 19 14q38 25 77 51q22 13 78 13q119 0 145 -10q21 -13 44 -23q49 -12 48 -74v-15q0 -13 -1 -20 q-9 -45 -19 -60q-11 -19 -45 -36q-70 -35 -80 -45q-10 -22 -23 -47q-26 -34 -51.5 -70t-60.5 -100q-6 -21 -6 -41v-91q0 7 2 -57q1 -27 -14 -57q-22 -46 -25 -54q-10 -32 -25 -48q-18 -34 -68 -91q-42 -31 -46 -36q-24 -29 -29 -95q-6 -77 -29 -93q-9 -4 -25 -4q-6 0 -14 1 q-12 2 -22 25q-2 5 -15 45q-2 10 -1 30q0 60 -24 88q-13 15 -26 40q-126 154 -151 300q-8 44 -17 60q-15 28 -20 45q-15 50 -67 122q-49 68 -58 113q-4 23 -23 37q-33 31 -39.5 39t-33.5 37q-43 48 -44 83z" />
<glyph unicode="z" horiz-adv-x="1040" d="M43 49q0 24 43 105q17 67 31 90q22 36 77 79q34 27 50 54q38 67 47 73q17 26 53 68q19 16 35 29q23 11 78 47q22 18 22 41q1 4 11 35q8 26 8 39q0 25 12 43q27 39 27 126q0 33 -17 48q-53 31 -62 31q-8 0 -20 -7h-12q-13 0 -46 -20l-50 -30q-19 -9 -37 -15 q-53 -33 -78 -59q-21 -38 -75 -112q-11 -15 -40 -16q-23 0 -41 52q-8 16 -8 69v54q0 46 23 81q34 54 33 55q10 24 66 41q45 12 89 23q58 21 115 21q17 0 63.5 -8t61.5 -8q9 0 33 3t35 4q16 1 28 2q14 0 38.5 -0.5t33.5 -0.5q35 4 47 4q10 0 51.5 -6t66 -6t43 -23.5 t11.5 -55.5q-7 -40 -15 -81q-6 -34 -17 -43q-14 -21 -44 -64q-30 -34 -45 -66q-15 -35 -29 -51l-37 -56q-24 -15 -74 -56q-34 -32 -34 -66q2 -16 2 -26q0 -29 -28 -63q-19 -39 -44 -81q-54 -35 -91 -146q-9 -28 -9 -54q0 -41 30 -70q18 -17 99 -17q6 0 32 17q29 18 47 22 q26 6 62 16q55 31 82 84q3 10 55 62q14 10 31 26l33 33q5 6 11 6q10 0 23 -15q19 -25 25 -32q47 -47 48 -139q-1 -71 -40 -100q-29 -23 -70 -57q-19 -15 -50 -15q-9 -2 -48 5q-41 7 -47 7q-8 -2 -17 -1q-12 0 -24 3q-24 5 -32 5q-30 -6 -49 -7q-6 -2 -27 11q-24 14 -26.5 15 t-8.5 1q-8 0 -22 -5q-22 -7 -43 -7q-11 0 -48.5 4t-47.5 4t-42 -5t-53 -5q-16 0 -34.5 -4t-26.5 -4q-13 -2 -46.5 -15.5t-53.5 -13.5q-29 0 -52 16q-10 7 -35 35q-16 18 -16 43z" />
<glyph unicode="{" horiz-adv-x="778" d="M35 666q6 4 8 4q14 6 19 6q98 24 127.5 41t56.5 92q20 55 45 97q-6 18 -6 36q0 4 7 23.5t7 40.5q-2 22 -2 32q0 4 8.5 21.5t8.5 27.5q0 6 -4 26q-4 18 1 29q14 28 15 46q0 10 -4 25q-10 34 -11 61q0 20 3 36l8 36q4 22 4 47q0 54 44 100q42 43 84 43l74 14q13 0 43.5 -8 t54.5 -8q31 0 56 8q17 2 31 -7q40 -26 26 -46q-4 -8 -20 -8l-86 8q-14 0 -80 -30q-17 -8 -29 -41q-7 -26 -15 -50q-7 -18 -7 -47q0 -30 2 -62q-10 -20 -10 -26t10 -33q20 -53 20 -122q0 -80 -22 -121q-8 -10 -8 -29q0 -17 2 -35t-2 -25q-9 -33 -31 -74q-23 -13 -62 -51 q-34 -31 -58 -38q-18 -6 -40 -13q-34 -14 -41 -29l41 -16q55 -6 59 -10l44 -27q38 -25 43 -43l8 -37q2 -6 25 -32q21 -23 22.5 -56.5t12.5 -63.5q15 -37 17 -53q6 -34 7 -75q0 -90 -22 -165q-14 -46 -13 -77q0 -24 8 -45q15 -39 16 -43q14 -62 45 -62q10 0 23 7q16 4 20 4 q12 0 32 -11q12 -6 26 -6q6 0 14 2q22 5 23 -26q-4 -21 -4 -25q-2 -8 -26 -10q-12 -1 -23 -1q-7 0 -19 1.5t-16 1.5h-15q-6 0 -29 -7t-40 -7q-16 0 -50 6q-29 5 -33 4q-5 -3 -11 -3q-17 0 -45 18q-24 17 -48 58t-28 73q-2 23 -12 71q-10 45 -11 54q0 6 8 25t8 26l-4 38 q4 33 4 42q0 10 -7 56t-7 62q0 35 10 72q8 14 8 24q0 9 -5 15q-7 26 -17 55q-8 18 -44 51t-46 58q-6 6 -45 24q-8 6 -12 11q-10 14 -74 29q-43 10 -45 16z" />
<glyph unicode="|" horiz-adv-x="573" d="M189 882q0 26 10 88.5t10 69.5q0 10 -4 106.5t-4 113t-3.5 43t-3.5 40.5q0 27 6.5 49.5t6.5 29.5q0 71 5 86q9 28 48 28q78 0 98 -58q7 -47 29 -163q4 -21 4 -49q0 -6 -4 -49t-4 -70q0 -18 -2 -113.5t-2 -152.5q0 -62 -2 -131l-3 -80q0 -27 3 -37q10 -48 10 -96 q0 -24 -2 -35q-4 -22 2 -49q2 -10 7 -51q2 -22 1 -25q0 -2 -4.5 -8t-3.5 -17l7 -162q2 -43 -3 -61q-22 -63 -22 -86v-18q-6 -26 -59 -65q-15 -11 -25 -11l-25 6q-14 6 -29 37q-16 10 -18 16t-2 50q0 29 -11 104q-3 21 -3 59v51q0 38 9 103t9 78q0 25 -11 97t-11 87 q0 57 -2 133t-2 112z" />
<glyph unicode="}" horiz-adv-x="778" d="M35 1489q-15 20 27 46q14 9 30 7q25 -9 55 -8q26 0 56.5 8t42.5 8l73 -14q42 0 84 -43q46 -46 46 -100q0 -25 4 -47l7 -36q3 -16 3 -36t-7 -51t-7 -35q0 -18 14 -46q6 -11 2 -28q-4 -18 -4 -27q0 -10 8 -27.5t8 -21.5q0 -10 -2 -32q0 -21 7.5 -40.5t7.5 -23.5 q0 -18 -7 -36q26 -42 45 -97q27 -74 57 -91.5t128 -41.5q4 0 18 -6q3 -1 8 -4q-2 -6 -45 -16q-16 -4 -55 -13l-31 -27q-38 -18 -45 -24q-10 -25 -45 -58q-37 -34 -45 -51q-4 -22 -16 -55q-6 -6 -7 -15q0 -10 8 -24q10 -37 11 -72q0 -22 -4 -45q-10 -58 -11 -73q0 -9 4 -42 l-4 -38q0 -6 8.5 -22.5t8.5 -28.5q0 -9 -10 -54q-11 -48 -14 -71q-2 -32 -26.5 -73.5t-47.5 -57.5q-29 -18 -46 -18q-7 0 -12 3q-3 1 -33 -4q-33 -6 -48 -6q-17 0 -40.5 7t-29.5 7h-14q-4 0 -16.5 -1.5t-19.5 -1.5q-10 0 -23 1q-24 2 -25 10q0 4 -4 25q0 30 22 26 q7 -2 14 -2q14 0 27 6q18 10 31 11q4 0 20 -4q13 -6 22 -7q31 0 46 62q2 8 16 43q8 21 8 45q0 34 -10 62q-25 94 -24 180q0 87 23 128q6 10 13 64q7 47 23 56q21 14 25 32l8 37q4 18 43 43q11 7 43 27q4 4 59 10l41 16q-6 15 -41 29q-20 6 -40 13q-38 14 -54 34 q-27 33 -66 55q-8 5 -19 39q-6 18 -11 35q-4 6 -3 25q1 18 3 35q0 18 -9 29q-22 41 -22 121q0 70 20 122q10 26 11 33q0 6 -11 26q-1 3 0 9v17q2 22 2 36q0 10 -22 97q-6 26 -29 41q-22 12 -45 23q-14 6 -34 7l-87 -8q-16 0 -20 8z" />
<glyph unicode="~" horiz-adv-x="1147" d="M84 482q0 55 34 85q40 34 66 72q9 12 65 26.5t91 14.5q26 0 49 5l41 9q6 0 40 -8t36 -8q86 -28 111 -28q14 0 67.5 -16.5t73.5 -16.5q21 0 69.5 12t58.5 12q22 2 60 27l39 24q7 2 25 -6q46 -22 57 -84q18 -110 -135 -172q-50 -21 -106 -20q-37 0 -74 8q-83 18 -111 18 q-41 0 -78 29q-45 35 -65 41q-23 4 -27 4q-37 -8 -69 -8q-25 0 -40 4l-24 6q-12 2 -79 -36q-63 -36 -124 -36q-43 0 -51 42z" />
<glyph unicode="&#xa1;" horiz-adv-x="694" d="M186 -197q0 70 18 171q5 31 3 47q-2 13 -2 30q0 43 16 76l7 40q3 18 16 40q3 8 14 43q18 58 19 112q0 26 20 109q14 57 14 90q0 50 31 111l-6 2q-18 -4 -26 -4q-15 0 -40 12q-27 14 -31.5 29t-7.5 18q-37 37 -37 105q0 26 14 55q17 38 18 39q4 16 20 26q25 16 31 23 q14 17 30 17q6 0 25 -7q9 1 66 -11q33 -10 44 -22q6 -10 15 -20l16 -12q6 -5 29 -56q13 -26 12 -40q0 -33 -21 -83q-7 -16 -24 -42q-16 -17 -53 -31q-2 -8 -10 -23q-6 -11 -6 -17q1 -5 2 -8l5 -36q2 -11 3 -23q0 -12 -2 -24.5t-2 -20.5q0 -11 8 -39.5t8 -29.5q17 -82 16 -97 q0 -58 16.5 -113.5t16.5 -132.5q0 -29 11 -55q3 -10 22 -47q11 -22 10 -47q-2 -55 -2 -45v-50q0 11 2 -59q1 -35 -12 -77l-23 -68q-1 -6 -61 -31q-20 -8 -24 -10q-19 -6 -44 -6q-40 0 -67 15l-38 26q-43 22 -55 77q-4 19 -4 41v33z" />
<glyph unicode="&#xa2;" horiz-adv-x="835" d="M45 786q0 20 9 41q24 63 24 117q0 21 16 50q8 14 16 30q20 20 48 51q11 18 60 51q57 38 68 49l13 17q10 10 33 18q16 0 34 3q4 11 32 51q12 18 12 63q-1 8 -1 15q0 38 45 47q34 0 46 -14.5t12 -55.5q-2 -9 -2 -21q0 -25 30 -40q22 -13 35 -13q66 0 113 -32q3 -2 76 -68 q41 -37 41 -100q-2 -23 -2 -29q-15 -17 -35 -58q-4 -19 -37.5 -38t-71.5 -19q-48 0 -88 31q-14 11 -21 29q-3 10 -8 20q-8 13 -16 27q-4 4 -14 6q-2 -6 -2 -11q18 -41 18 -45q-1 -5 -1 -8t1 -4q2 -4 2 -8q0 -10 -6 -27q-8 -25 -8 -100q0 -80 3 -148l7 -151h4q10 21 17 22 q4 4 19 8q37 10 48 21q16 8 27 12q14 6 31 27q26 26 49 27q47 0 47 -76q0 -38 -49 -90q-24 -26 -53 -35q-12 -4 -41 -14q-54 -26 -62 -31q-45 -29 -45 -84q0 -40 -2 -47q-8 -29 -39 -43q-8 -2 -14 -4h-10q-35 0 -35 73q0 6 -38 83q-10 21 -30 38q-8 8 -43 29q-76 46 -96 63 q-27 24 -82 97q-8 14 -29 38q-15 46 -38 105q-17 27 -17 55zM268 772q9 -39 9 -70q0 -14 9 -28q17 -34 48 -88q10 -13 32 -16q6 0 7 1v25q2 14 1 33q0 16 -3 44t-2 33q2 35 1 40q0 11 -0.5 39.5t-0.5 44.5v24q4 14 4 20q6 12 6 44q0 9 -5 39.5t-5 41.5q0 27 4 55 q3 21 -12 21q-10 0 -19 -12q-14 -6 -28 -35q-1 -18 -19 -45q-18 -30 -21 -43q0 -19 -4 -95q-4 -66 -2 -73z" />
<glyph unicode="&#xa3;" horiz-adv-x="1038" d="M82 160v53q4 22 20 37q21 5 56 14q6 3 36 31q20 18 60 19l95 -10q32 -3 62.5 -3t69.5 -33t49 -33q6 0 23 5q8 14 18 30q6 2 11 25l6 35q2 12 2 28q0 33 -16 68q-22 38 -32 53l-28 34q-31 32 -60 32q-22 8 -38 8q-27 -6 -37 -6q-9 0 -18 6q-10 3 -43 -11q-38 5 -99 32 q-6 6 -5 10q0 5 3 8l17 16q11 2 40 6q35 0 45 11q18 11 33 22q22 16 18 37q-7 45 -42 86q-23 21 -42 70q-18 45 -16 64q1 7 1 17q0 14 -1 34l-4 36q0 33 15 76q0 51 24 78q35 38 47 68q4 2 22 16q29 20 38 22q13 4 55 23q38 17 41 16l62 -8q-1 0 30 -2t66 -2q19 2 77 -49 q33 -21 77 -72q10 -22 10 -66q0 -53 -23 -65q-12 -19 -35 -41q-30 -12 -49 -12q-13 0 -18 6q-51 29 -51 99q0 8 4 40q10 27 -8 56q-29 43 -112 43q-47 -14 -93.5 -50.5t-54.5 -63.5q-11 -44 -11 -71q0 -57 28 -114l66 -99q7 -8 14 -18q9 -32 58 -109q43 -47 77 -47 q11 0 41.5 -4t38.5 -4q6 0 25 3t23 3h10q7 0 28.5 -6.5t33.5 -6.5q13 0 32.5 3.5t23.5 3.5h11q-3 0 58 -25q26 -10 26 -33q0 -17 -17.5 -37t-33.5 -20t-41 19q-10 2 -27 1q-4 0 -47.5 -9t-74 -9t-30.5 -28q0 -16 2 -21t9 -18q33 -72 26 -96q-14 -54 -14 -80q2 -18 2 -27 q0 -25 -21 -78q-8 -21 19 -45q33 -25 37 -26q9 -5 25 -3q18 2 22 7q25 4 64 16q109 70 122 69q20 0 37.5 -21t17.5 -42q0 -13 -4 -17q-27 -17 -57 -36q-17 -19 -34 -39q-27 -31 -74 -39q-2 0 -33 -11q-26 -10 -41 -3q-20 10 -62 14t-57 12q1 0 -34.5 6.5t-55.5 6.5 q-62 0 -121 -35q-14 0 -34.5 -7.5t-26.5 -7.5q-19 0 -51 11q-20 6 -60 6q-27 0 -78 24q-12 6 -122 66q-23 13 -23 78zM238 133q0 -28 14 -35q29 -8 63 -18q22 -5 37 0q42 12 47 12q13 4 27 8q6 7 6 21q4 26 -25 44q-25 15 -59 15q-3 1 -47 -8q-59 0 -61 -16q-2 -6 -2 -23z " />
<glyph unicode="&#xa4;" horiz-adv-x="1312" d="M59 746q0 23 3 30q14 51 18 59q6 13 47 80q27 37 27 64q-2 53 -3 39q0 33 7 47l16 39q8 14 8 26q0 21 -24 21q-16 20 -19 27q-16 24 -16 40q0 25 39 62t65 37q14 0 31 -11q14 -11 30 -22q27 -24 26 -43q2 -3 8 0l44 27q29 8 54 17q38 14 78 36q50 26 88 26q5 0 30.5 -2 t37.5 -2q24 0 67.5 7.5t54.5 7.5q33 0 74 -11q28 -11 82 -34q36 -17 86 -62l35 35q62 30 67 31q23 0 62 -44q42 -46 43 -83q0 -33 -29 -56q-4 -3 -45 -20q-25 -10 -14 -28q8 -16 26 -36q72 -75 81 -158q6 -48 6 -92v-142q-6 -38 -10 -52q-7 -27 -23 -49q-26 -36 -39 -88 q-2 -16 -7 -45q-2 -9 30 -29.5t32 -44.5q0 -36 -45 -75q-42 -35 -66 -35q-13 0 -36 14q-8 5 -14.5 20t-8.5 15q-10 -4 -14 -7l-74 -36q-77 -38 -129 -72q-10 -6 -39 -24q-1 0 -109 -12q-46 0 -105 28.5t-64 30.5q-31 13 -75 19q-50 7 -77 44q-18 25 -45 25q-6 0 -14 -3 q-2 0 -7 -1q-44 -42 -49 -46q-26 -16 -41 -16q-26 0 -65 42q-42 43 -42 75q0 14 7 26q26 51 61 58v6q-42 46 -61 102l-29 80q-33 61 -33 138zM295 710q0 -83 39 -184q20 -50 68 -94q45 -40 116 -63q55 -18 99 -19q16 0 67 3t58 3q166 25 208 93q6 10 41 35t39 54l4 37 q12 13 29 76q12 29 12 95q0 55 -12 101q-9 30 -39 105q-14 38 -43 94q-25 32 -57 48q-117 55 -214 55q-57 0 -157 14q-32 -22 -86 -73l-72 -70q-19 -19 -49 -94q-51 -130 -51 -216z" />
<glyph unicode="&#xa5;" horiz-adv-x="1511" d="M-16 1413q0 67 41 111q14 14 37 14q6 0 32 -6t33 -6q29 4 51 4q8 0 43 -4q13 -4 43 -4q33 0 82 6l88 11q38 5 48 5q30 0 59 -10q55 -15 150 -45q30 -10 61 -11q7 2 26.5 -3t22.5 -5q7 0 29.5 5.5t33.5 5.5q17 -2 33 -3q23 0 72 21q29 12 51 12q5 0 45 9.5t47 9.5 q18 0 55 -6q8 2 15 2h14q21 0 59.5 -15.5t49.5 -15.5q13 0 27 5.5t22 5.5q11 0 50 -20q43 -21 83 -26q20 -2 20 -37q0 -26 -37 -44q-29 -13 -34 -21q-33 -28 -46 -45q-20 -28 -58 -51q-42 -24 -51 -33q-19 -21 -30 -29q-19 -19 -25 -33q-34 -87 -51 -182q-2 -12 -5 -41 l104 -2q74 -2 73 -51q0 -39 -13 -54q-17 -20 -56 -26q-18 -8 -100 -8q-11 0 -36 4t-52 4q-33 -29 -33 -84l-25 -64l109 11q8 2 21 2h18q112 0 141 -29q18 -18 18 -55q0 -59 -98 -59h-42q-19 0 -37 1q-9 -2 -20 -1q-14 0 -33 2q-34 6 -44 6h-19q-8 -4 -10 -4q-33 -4 -61 -4 q-9 -58 -9 -93q0 -34 9 -57q15 -45 19 -61q7 -46 22 -120q4 -10 10 -16q22 -22 31 -35l49 -53q29 -4 68 -22q8 -11 8 -25q0 -43 -64 -43q-8 0 -38.5 11t-47.5 7q-18 -7 -38 -13q-34 -13 -54 -13q-54 49 -135 49q-70 0 -176 -51q-51 -24 -87 -24q-19 0 -42 5q-43 12 -55 21 q-31 23 -31 76t16 86q10 22 37 49q14 14 74 53q37 24 57 60q9 17 16 34q29 37 29 109v47q-4 18 -4 24q-33 4 -68 4q-4 0 -49 -6t-90 -6q-12 0 -54 8q-36 6 -50 3q-22 -4 -47 -4h-33q-62 0 -70 55q-8 58 62 74q53 14 96 14q30 0 45 -2q74 -10 88 -10h25q12 2 18 2 q58 14 86 14q-6 19 -22.5 45l-49.5 78h-50q-26 0 -78 -6q-29 -6 -54 -7q-26 0 -53 8l-35 9q-42 10 -45 12q-31 18 -25 63q8 56 70 56h33q17 0 39 -3t28 -3q4 0 39 6t58 6q-41 68 -80 138q-61 139 -152 139q-8 0 -24 -4q-13 0 -84 14q-26 2 -35 10q-4 2 -15 21l-51 55 q-28 25 -28 92zM645 1178q0 -29 13 -95q5 -27 33 -62q21 -23 41 -47q10 -20 39 -64q14 -38 37 -95q7 -14 19 -29q3 -6 15 -28q7 -14 32 -27q26 -17 56 -33q6 -2 9 -2q9 0 34 21q16 14 21 25q3 46 24 120q62 110 82 180q6 22 6 52q0 86 -57 143q-39 39 -46 47q-23 7 -55 22 q-28 25 -49 25q-18 -2 -31 -6q-53 -17 -59 -19q-12 -2 -23 3q-16 4 -22 4q-25 0 -59.5 -16.5t-41.5 -30.5q-18 -43 -18 -88z" />
<glyph unicode="&#xa7;" horiz-adv-x="1024" d="M94 637q0 74 8 98q17 50 76 70q23 8 43 33q23 30 31 34.5t22 21.5l23 31q10 14 10 23q0 22 -47 111q-22 42 -20 55q1 5 -30 56q-21 35 -21 77q0 21 8 45q18 53 18 58q-2 8 -1 16q0 54 46 68q86 91 254 124q20 4 35 4q34 0 109 -27q79 -30 81 -29q17 -2 41 -28 q17 -16 43 -44q22 -23 21 -52q-2 -74 -4 -88q-4 -42 -18 -57q-25 -16 -33 -23q-25 -22 -83 -22q-56 0 -98 48q-34 40 -20 62q24 40 24 72q0 65 -79 111q-13 4 -23 4q-20 0 -33 -11q-28 -5 -67 -12q-14 -2 -44 -43q-38 -51 -47 -65q-8 -12 15 -64q28 -62 29 -72q2 -16 24 -31 q30 -21 41 -36q68 -92 135 -92q13 -2 49 -33q42 -36 127 -91q50 -33 91 -87q54 -72 65 -113q14 -13 23 -25q24 -33 30 -85l15 -31q10 -19 10 -60v-38q0 -43 -8 -51q-11 -14 -39 -109q-6 -22 -68 -59q-49 -30 -80 -43q-21 -8 -20 -49q0 -15 10 -29q35 -48 72 -109 q53 -89 53 -131q0 2 -23 -74q-10 -30 -10 -48q-5 -42 -102 -128q-22 -31 -57 -44q-66 -17 -156 -17q-5 0 -27 2t-31 2q-23 0 -49 -8q-13 -4 -40.5 17.5t-41.5 19.5l-18 -7q-12 -4 -27 -4q-118 30 -118 215q0 114 41 109q34 6 84 8q31 -10 56 -47.5t25 -77.5q0 -35 -22 -68 q-14 -16 -15 -30q0 -11 51 -54q26 -23 54 -22q24 1 50 3t40 16t29 14q48 6 90 65q33 46 33 91q0 38 -68 139q-6 28 -15 41q-29 46 -108 85q-26 13 -43 17q-31 28 -149 105q-33 24 -95 104q-5 6 -45 39q-31 26 -40 53q-24 72 -32 97q-20 68 -20 104zM202 688q0 -43 25 -82 q4 -7 21 -35q22 -38 57 -63q16 -9 39 -40q6 -17 58 -55.5t67 -38.5l65 -12q6 -4 21 -4q22 2 37 3q13 0 37 -8.5t41 -8.5q65 0 107 37.5t42 101.5q0 19 -2 29q-6 57 -79 135q-59 62 -93 80q-12 6 -94 66q-54 38 -106 47q-33 3 -66 7q-25 7 -33 7q-14 0 -43 -14 q-12 -6 -21 -23l-18 -31q-62 -37 -62 -98z" />
<glyph unicode="&#xa8;" horiz-adv-x="1243" d="M174 1354q0 14 19 32q22 22 26 29q25 41 84 41q11 2 41 -6.5t41 -7.5q8 0 54 -60q14 -18 14 -41.5t2.5 -47.5t2.5 -25q0 -26 -21.5 -55t-74.5 -31q-46 -2 -81 28q-47 31 -51 33q-55 43 -56 111zM770 1272q-4 10 1 42q5 39 5 40q0 25 4 35q11 28 47 69q18 10 50 11 q37 0 65 -17l47 -34q10 -8 47 -66q4 -6 4 -27q0 -37 -10 -46t-16 -44q-8 -29 -12 -37q-17 -25 -64 -24q-9 0 -20 4q-27 7 -76 28q-25 22 -33 29q-29 10 -39 37z" />
<glyph unicode="&#xa9;" horiz-adv-x="1556" d="M-8 721q0 26 2 39q23 73 24 75q4 14 58 103q33 43 44 133l14 124q11 44 55 81q51 34 69 49l133 76q55 19 74 26q34 14 101 51q54 31 104 32q8 0 38.5 -3t53.5 -4q38 -1 103 13t75 14q41 0 88 -10q82 -38 123 -62q74 -44 127 -98q30 -32 79 -125t62 -106q70 -73 95 -175 q18 -76 18 -240v-34q0 -17 2 -33q0 -21 -2 -33q-6 -36 -26.5 -94t-28.5 -63q-27 -19 -27 -31q5 -10 4 -16q0 -6 -15.5 -31t-15.5 -56v-24q0 -4 3 -10q-66 -92 -104 -126q-46 -42 -140 -84q-107 -49 -154 -79q-29 -19 -71 -47q-11 -1 -63 -7q-42 -5 -56 -5h-33q-21 6 -29 8 q-31 8 -166 65q-43 18 -114 19h-25q-55 0 -73 6q-29 10 -57 55q-38 61 -48 72l-91 86l-104 139q-18 24 -42 95t-26 73q-38 58 -38 162zM198 666q0 -130 60 -271q45 -107 110 -165q62 -55 179 -97q70 -24 135 -24q41 0 88 5q110 14 116 15q242 31 327 148q37 26 95 78 q12 16 19 61q3 22 7 42q6 9 24 56l24 64q16 47 16 147q0 134 -68 306q-38 95 -58 128q-40 64 -109 100q-162 86 -328 87q-88 0 -231 18q-46 -23 -118 -90q-44 -40 -130 -127q-20 -22 -39 -58q-21 -40 -40 -90q-78 -197 -79 -333zM307 717q0 8 5.5 40.5t5.5 49.5q0 23 10 47 q12 29 14 41q0 16 8 27q13 13 20 22l24 29q10 6 13 18q14 38 19 43q8 24 30 67q17 20 35 33q10 10 37 28l53 18q18 18 63 45q14 4 37 23q19 16 33 16h52q9 2 14 2h10q14 0 54 -15q24 -4 38 -26q6 -10 17 -41q1 -4 1 -8q0 -24 -52 -38q-39 -10 -86 -9q-10 -2 -20 -3 q-25 -7 -56 -51q-5 -6 -20 -12q-10 -21 -16 -25q-12 -6 -25 -26q-33 -53 -33 -121q0 -15 5 -72q5 -50 3 -59q-12 -47 -12 -82q0 -33 8 -60q6 -12 6 -43q-2 -20 -2 -28q0 -13 10 -35q15 -33 20 -46q7 -23 14 -45.5t19 -25.5q28 -35 64 -49q42 -27 84.5 -27t54.5 -1l20 -4 q31 0 93 30q10 0 27 4q9 2 14 -2q6 -10 6 -20q0 -53 -58 -70q-22 -6 -30 -6l-49 8q-42 -27 -63 -31q-6 -1 -25 3q-21 4 -25 4q-9 0 -33.5 -2t-29.5 -2q-48 0 -84 24q-49 33 -51 32q-14 5 -37 29q-49 42 -111 107q-50 42 -57 82q-10 18 -23 51q-6 33 -19.5 62t-16.5 51 q-6 34 -7 49zM1020 1086q0 49 37 69q2 4 8 15q4 15 35 48q15 11 20 13q16 4 27 0q27 -11 31 -79q2 -43 2 -46l-2 -37q0 -16 10 -88q2 -16 -8 -41q-5 -6 -18 -33q-13 -4 -21 -1q-14 2 -25 12l-14 14q-3 20 -15 47l-27 26q-30 27 -30 44q-10 30 -10 37zM1069 379q-11 35 13 63 q6 16 24 54q21 20 24 34q14 35 23 36q9 -2 18 -13q4 -4 7 -16v-11q-3 -10 -10.5 -32t-14 -40t-6.5 -30q0 -51 -41 -59q-30 -6 -37 14z" />
<glyph unicode="&#xaa;" horiz-adv-x="808" d="M14 682q0 47 60 47h39q85 9 281 9q88 0 130 4l113 10q48 0 65 -5q46 -2 59 -25q7 -15 9 -40q1 -28 -7.5 -36.5t-40.5 -13.5q-65 -10 -130 -14l-96 -4h-107q2 0 -11 -1q-16 -2 -52 -3q-52 -2 -142 -2q-72 0 -79 2q-31 6 -79 25q-12 10 -12 47zM30 954q13 58 40 84 q7 16 22 51q19 16 51 45l24 24q13 13 40 26q38 8 75 30q14 8 62 8q26 0 33 4l10 11q26 9 55 53q10 15 11 35q0 14 -4 31.5t-4.5 19.5t-24.5 50q-8 16 -25 30q-29 14 -34 14q-55 0 -87 -17q-16 -9 -20 -26q-2 -8 -4 -33q-6 -20 -16 -52q-20 -51 -58 -70q-26 -13 -41 -6 q-2 2 -14 12q-23 21 -27 24q-17 22 -16 80q-6 21 -6 37q0 42 53 68q10 4 37 16q14 4 27 21q11 5 65 34q41 22 51 21q38 -6 94 -8q8 2 17.5 -6.5t19.5 -14.5q4 -2 25 -2h47q8 -2 29 -33q20 -38 49 -75l12 -54q8 -20 8 -48q-4 -29 -4 -52q0 -2 6 -27t6 -53q-9 -26 -20 -73 q0 -15 8 -35t8 -27q-8 -26 -8 -39q0 -10 15 -41q20 -42 36 -41q7 0 17 2q16 10 21.5 48t30.5 68q10 11 40 11q21 -2 20 -33q0 -21 -12 -44q-5 -8 -16 -51q-14 -10 -40 -65q-6 -22 -16 -30q-4 -4 -28 -4h-31q-10 -3 -29 -8q-42 -10 -87 40q-19 22 -44 30q-6 11 -34 12 q-18 1 -35 -12q-54 -42 -91 -54l-20 -6q-15 -5 -22 -10q-31 -4 -60 -9l-53 -13q-3 0 -25 12q-24 15 -30 18q-27 10 -50 33q-6 6 -18 35t-11 34zM219 1014q0 -53 37 -70q6 -4 25 -4q79 0 125 42q14 13 32 42l7 21q0 4 2.5 20.5t2.5 30.5q0 52 -33 70q-23 12 -44 12 q-11 -4 -27 -11l-57 -25q-27 -6 -35 -20q-14 -27 -20 -32q-13 -12 -13 -48q-2 -6 -2 -28z" />
<glyph unicode="&#xab;" horiz-adv-x="1192" d="M162 549q0 18 40 55q21 18 65 69q18 23 28 36q4 10 36 33t35 28l54 57q16 10 56 44q70 79 100.5 99t29.5 21q38 -2 39 -63q0 -40 -15 -54q-21 -20 -30 -43q-13 -31 -14 -33q-10 -15 -20 -20q-6 -6 -28 -22q-18 -21 -40 -66q-25 -36 -37 -43q-9 -15 -36 -48 q-27 -28 -27 -75q0 -26 12 -51q6 -10 20 -37q11 -20 28 -38q10 -10 29 -32q26 -34 87 -122q24 -35 28 -60q0 1 15 -23t20 -52q2 -6 1 -11q0 -15 -12 -32q-17 -21 -26 -15q-7 6 -33 35q-46 54 -59 74q-27 18 -77 57q-18 17 -24 29q-2 10 -46 40q-74 52 -84 92q-3 13 -28 29 q-37 26 -40 29q-47 43 -47 113zM622 508q0 70 48 113q31 18 68 58q10 39 84 91q45 31 46 41q15 30 64 59q35 22 37 27q14 20 59 73q26 30 33 36q9 6 25 -16q13 -16 13 -31q0 -6 -1 -11q-5 -28 -20 -52t-15 -23q-5 -25 -29 -60q-65 -94 -86 -123q-6 -6 -29 -31 q-17 -18 -28 -38q-9 -14 -21 -37q-12 -25 -12 -51q0 -47 28 -75q11 -20 36 -48q12 -7 36 -44q22 -45 41 -65q21 -16 27 -23q26 -10 35 -52q4 -18 30 -44q14 -14 15 -53q0 -62 -39 -63q3 3 -27 20.5t-103 99.5q-20 22 -56 44l-54 56q-31 22 -71 62q-3 4 -25 33q-23 32 -68 72 q-41 37 -41 55z" />
<glyph unicode="&#xac;" horiz-adv-x="1147" d="M88 663l10 60q14 42 44 53q24 4 51 4q10 0 48.5 -5t57.5 -5q24 0 47 -4q27 -12 94 -12q60 17 64 16q12 0 33.5 -4t28.5 -4q8 0 52 4q8 0 25 -4q25 -12 49 -12q18 0 39 4q53 10 66 10h57q42 0 53 6q29 2 41 2q21 0 35 -8q14 3 27 -17l18 -26q12 -13 12 -19l-8 -85 q-2 -7 -2 -15q0 -12 5 -25q7 -22 7 -28t-4 -27q-6 -25 -9 -46q-2 -30 -11 -42q0 -9 -1 -33t-1 -40v-21q10 -41 10 -59q0 -29 -2 -39q-3 -6 -6 -16q-7 -27 -33 -28q-21 0 -59 15q-38 6 -45 8q-31 9 -31 35q0 14 10 49q-6 35 -6 61q0 14 6 37q18 31 18 51q0 10 -4 21 q-14 24 -14 53q0 33 8 70q-4 0 -8 8q-18 6 -37 2q-33 -8 -69 -8h-40q-18 -2 -53 4t-32 6q-1 0 -29 -7t-41 -7q-6 0 -34 2t-42 2l-89 17q-4 1 -10 1t-40 -8t-59 -8q-14 0 -51 5q-32 5 -44 3q-33 -4 -43 -4q-59 0 -59 57z" />
<glyph unicode="&#xad;" horiz-adv-x="706" d="M35 645q0 88 86 88q92 19 245 19q88 0 124 5l80 11q30 0 47 -8q16 -14 34 -27q12 -6 17 -14q14 -20 14 -74v-49q-6 -35 -41 -41q-31 -11 -59 -10q-62 2 -52 2q-14 0 -37 -6.5t-44 -6.5q-51 0 -93 11q-41 -10 -174 -11q-62 0 -92 19q-36 9 -45.5 23.5t-9.5 68.5z" />
<glyph unicode="&#xae;" horiz-adv-x="1580" d="M18 618q0 34 17 103q9 53 28 169q14 77 37 136q20 49 39 137q17 76 76 107q50 26 62 39q37 42 88 100q89 100 247 109q110 6 160 32q27 14 58 15q24 0 93 -19.5t80 -19.5q38 0 76 -23q113 -66 135 -72q55 -22 68 -28q39 -20 86 -78q29 -36 54 -90q60 -134 69 -148l54 -81 q28 -51 34 -100q8 -35 8 -97q0 -130 -41 -275q-14 -50 -115 -264q-16 -54 -24 -77q-29 -86 -123 -91q-52 -2 -80 -10q-60 -18 -141 -56l-98 -46q-28 -12 -80 -12q-9 0 -47.5 2t-53.5 2q-49 0 -106 12q-110 24 -145 22q-70 -2 -66 -2q-46 0 -80 16q-42 21 -72 52q-6 7 -55 69 q-23 30 -41 72q-48 114 -53 123q-17 30 -80 103q-68 77 -68 169zM182 731q0 -10 2 -30.5t2 -24.5q23 -170 107 -296q89 -135 223 -229q58 -40 134 -63q66 -21 136 -21q110 0 202 27q45 13 103 45q134 73 227 223q53 86 71 169q16 76 16 212l-11 105q-7 77 -47 170 q-27 66 -92 141q-98 116 -237 168q-88 33 -205 33h-53q-126 0 -186 -17q-41 -11 -124 -58q-86 -48 -89 -50q-26 -37 -47 -94q-24 -66 -29.5 -74.5t-49.5 -36.5q-28 -18 -28 -82q0 -6 -12.5 -92t-12.5 -125zM341 1171q0 21 25 21q37 0 66 4t26 4q10 -1 18 -1q13 0 42 5 q20 -8 31 -10q4 -1 12 -1t43 2.5t55 2.5q27 -9 39 -8q7 0 33 10q23 -4 27 -4q22 8 40 8q17 0 44 -8l39 -6q12 -4 26 -4q43 14 70 14q26 0 53 -27q32 -32 50 -37q32 -10 57 -16q19 -8 29 -30q17 -38 20 -41q14 -21 14 -46v-33q2 -2 2 -6q0 -9 -7 -26q-10 -27 -15 -33 q-8 -9 -35 -16q-9 -2 -37 -27t-33 -32q-10 -13 -18 -17l-29 -27l-29 -8q-8 -6 -8 -12q0 -7 12 -14q11 -2 17 -5q10 -4 16 -14q14 -18 37 -41q17 -16 18 -20q5 -22 27 -50q6 -34 44 -110q1 -11 9 -33q4 -10 35 -22q14 -6 29 -11q4 0 37 19q18 10 22 10q7 2 16 -8.5t9 -24.5 q0 -36 -29 -47q-18 -22 -80 -49q-6 0 -23 -6t-21 -6q-13 0 -29 -4q-6 0 -19 -7l-51 23q-15 6 -43 19q-30 25 -30 29q-14 16 -25 81q6 25 6 51q0 16 -9 50.5t-9 62.5q0 16 -17.5 39.5t-18.5 34.5q-3 18 -14 22l-21 8q-21 4 -59 21q-8 8 -18 30q-3 15 40 29q26 8 46 8 q17 0 31 -4q12 -3 16 0l27 25q12 18 18 29q0 4 16 20q10 10 11 69q0 42 -24 69q-24 21 -48 43q-10 4 -21 6.5t-32 17.5q-17 1 -55 14q-30 13 -45 13q-18 0 -35 -13l-27 -33q-9 -10 -25 -26q-5 -6 -8 -31l-6 -43q0 -8 8 -26l17 -37q2 -9 1 -14v-11q-4 -13 -4 -21q1 -7 7 -26 l18 -41l-11 -21q-11 -22 -11 -40q-4 -21 -7 -41q2 -13 3 -29q0 -14 -5.5 -34t-5.5 -24q-2 -10 4 -30q6 -24 7 -26q2 -10 1 -33q-4 -31 -4 -46q2 -18 20 -49q11 -10 13.5 -14.5t39.5 -18.5q32 -13 32 -32q0 -25 -21 -25q-47 -6 -63 -6q-22 0 -33 4q-28 10 -35 10 q-71 -14 -118 -14q-31 6 -47 6q-17 0 -31 -14q-2 -1 -5 -1q-10 0 -32 9q-14 14 -23 19q-20 14 -20 28q0 13 11 18q14 -2 28 -1q31 0 48 26q9 14 32 29q6 2 14 6q10 8 10 51q0 18 -1 44q-1 21 -1 28l4 72l9 77q-2 13 -3 23q0 10 3 16q0 9 -9.5 48.5t-9.5 47.5q-2 10 3 43 q6 35 5 44q0 41 -16 63l-12 37q-14 14 -23 32q-7 15 -26 19l-51 10l-29 -4q-7 2 -17.5 21.5t-10.5 31.5z" />
<glyph unicode="&#xb0;" horiz-adv-x="888" d="M92 1226q0 38 43 108q8 10 8 22v42q38 60 107 89l51 33q17 8 33 8q29 -8 49 -8q16 0 29 2l24 4q10 0 39 -6q27 -10 80 -56q18 -15 28.5 -38.5t26.5 -39.5q12 -29 35 -78q25 -46 25 -75q0 -12 -14 -44q-14 -35 -16 -44q-2 -24 -22 -66q-133 -122 -216 -122q-27 0 -52 13 q-64 38 -157 103q-20 33 -87 111q-14 29 -14 42zM248 1163q14 -19 30 -39q27 -26 83 -26q100 -1 114 36q37 43 37 105q0 33 -16 47q-13 33 -17 48q-10 26 -45 48q-17 -2 -31 -2q-10 -2 -51 6q-32 0 -82 -59q-17 -71 -16 -86v-12q4 -8 4 -11q0 -7 -6 -28t-4 -27z" />
<glyph unicode="&#xb1;" horiz-adv-x="1024" d="M33 72q9 55 69 55h27q13 -2 37 -4q9 -2 38 3q33 5 46 5q17 0 47 -2.5t39 -2.5q7 0 12 1q-6 0 148 6q21 1 57 -8q13 -6 25 -7q6 0 29 5.5t28 5.5h38q19 0 37 2q22 0 36 -2q33 -10 89 -11h57q3 0 62 3q26 1 32 -18q7 -22 8 -41q1 -42 -32 -58l-40 -12q-22 -6 -84 -6 q-19 0 -27 2q-30 8 -129 8h-80q-13 0 -64.5 -5t-55.5 -5h-25q-37 0 -68 10l-12 4h-11q-29 -4 -55 -8q-3 0 -22 -2t-27 -2q-7 0 -37 5t-51 5q-13 0 -43 -3t-33 -3q-22 8 -43 16q-30 22 -22 64zM63 606q0 22 21 52q6 6 16 20q14 10 50 14q78 0 96 -8q9 -4 24 -4q19 0 60.5 4 t42.5 4q49 0 73 13q2 24 7 49q0 13 -6.5 40t-6.5 37q0 6 8.5 20.5t8.5 22.5q0 6 -5.5 29.5t-5.5 32.5v41q-2 8 -1 21q0 37 71 36q54 -6 55 -55l3 -60q3 -9 -4 -14t-7 -10q0 -14 8 -45q2 -7 3 -20q-4 -21 -4 -36q0 -12 5 -34q2 -8 -1 -51q38 4 44 1q23 0 54 -10l30 -10 q6 0 24.5 8t27.5 8q8 0 20 -4q6 -4 24 -4q50 0 62 -6q26 -14 37 -16h35q59 0 53 -50q0 -30 -70 -48q-7 -2 -26 -3q-10 0 -63.5 4t-67.5 4q-22 0 -80 -6t-70 -6q-18 0 -41 7l4 -15q-2 -10 6 -45q7 -38 7 -43q-5 -17 -5 -21q-2 -10 -1 -22v-34q0 -40 6 -62q-10 -34 -17 -80 q0 -27 -1 -31q-9 -12 -50 -12h-10q-44 0 -53 52q-4 24 -4 44q0 18 6 44t6 34q-6 24 -11 51q2 8 3 15v9q0 2 -7.5 28t-7.5 38q4 37 4 51l-44 -5q-15 -2 -37 -3q-14 0 -33 7q-4 1 -33 -6q-32 -7 -43 -7q12 0 -59 14q-10 2 -21 3q-15 0 -42 -5.5t-25 -5.5q-14 0 -21 4 q-21 13 -21 35z" />
<glyph unicode="&#xb4;" horiz-adv-x="735" d="M186 1155q0 8 14.5 35t14.5 35q8 19 19 47q0 22 14 50q16 33 18 44q4 23 44 43q6 4 20 49l26 39q16 20 29 29q37 30 61 49q30 22 64 23q31 0 60.5 -26t29.5 -58q0 -17 -8 -36q-15 -34 -35 -55q-10 -10 -41 -33q-10 -20 -30 -44q-18 -25 -62 -56q-18 -8 -33 -26 q-35 -46 -43 -50q-50 -66 -70 -80q-28 -20 -55 -20q-37 0 -37 41z" />
<glyph unicode="&#xb5;" horiz-adv-x="1257" d="M10 985q10 33 48 37h52q12 0 33.5 9t28.5 8t70 26q34 14 69 14q75 0 87 -62q3 -22 19 -55q14 -27 13 -51q0 -37 -6 -53q-14 -38 -14 -53q0 -26 8 -47q21 -53 20 -82q0 -82 -14 -170t-14 -94q0 -22 -4 -54q-4 -34 -4 -48q-2 -56 30 -97q37 -39 74 -79q38 -36 88 -48 q65 -8 133 -14q12 6 27 6q14 0 14 -12q0 -18 -23 -36t-51 -18q-8 -14 -50 -23l-54 -11q-31 -14 -72 -15h-28q-74 12 -64 12q-18 4 -35 9l4 -33q2 -16 45 -49q31 -24 31 -74q0 -42 -29 -92q-18 -34 -44 -82q-20 -32 -76 -57q-25 -9 -37 -9q-18 0 -43 28q-32 38 -44 47 q-28 19 -28 40.5t-15.5 59t-15.5 43.5q0 10 11 37t10 51q-1 9 -1.5 20t-0.5 14q0 26 14 42q30 32 43 78l12 46q-14 16 -26 35q-35 66 -35 162v35q-1 5 -1 10q0 14 7 36q10 30 10 48t-9 50t-9 44q0 7 4 34.5t4 39.5q0 31 -10 67q-3 50 -12 121q-10 36 -33 58q-14 12 -27 24 q-4 17 -41 60q-24 19 -33 28q-14 14 -6 39zM672 977q0 46 70 75q38 15 55 15q53 0 109 -13q27 -6 40 -4q27 4 37 4q67 0 95 -56q33 -70 32 -99q0 -2 -2 -26.5t-2 -38.5t6 -49t6 -38q-8 -74 -8 -118q0 -39 -8 -69q-12 -45 -13 -51q-10 -57 -10 -132q0 -80 8 -91q6 -25 19 -63 q10 -22 19 -44q20 -41 50 -58l43 -21q29 -14 25 -28q-6 -42 -15.5 -53t-47.5 -24q-41 -5 -104 -25q-17 -13 -27 -13q-9 0 -23 7l-27 14q-1 0 -16.5 -6t-28.5 -6q-22 0 -46 22t-33 48.5t-17 37.5q-43 55 -43 94q8 49 16 100q-6 50 -5 86q0 53 9 86q8 23 19 56q0 1 -8 78 q-9 93 -8 168q0 48 -14 70t-61 48q-91 50 -91 117z" />
<glyph unicode="&#xb6;" horiz-adv-x="1380" d="M26 975q0 14 17 53q10 25 11 41q0 17 -11 57q0 22 12 40q21 26 27 52q7 30 32 64q26 31 79 94q7 14 19.5 17t21.5 14q31 38 55 55q34 25 81 25q10 0 36 -3q10 -2 22 -2q8 0 18 11q45 37 82 37q10 0 54 -12t65 -12q22 0 51 5q21 10 41 11q9 0 48.5 -7.5t54.5 -7.5 q46 0 84 13q20 6 26 6h14q7 0 51 -12q39 -10 56 -7q35 8 72 8q18 0 69 -9q21 -5 41 -5q12 0 40 6.5t34 6.5q17 0 29 -11q12 -16 18 -22q13 -17 13 -29q0 -37 -102 -110q-91 -65 -91 -171q0 -44 21 -131q0 -22 -9 -53q-22 -84 -22 -153q0 -26 2 -106l2 -93q0 -47 -2 -61 q-18 -74 -18 -148q0 -30 6 -84l6 -53q0 -94 3 -172q7 -55 23 -176q5 -38 10 -87q12 -69 62 -118q35 -27 70 -55q12 -4 18 -4q12 -5 12 -17q0 -37 -22 -59q-8 -8 -23 -8q-12 0 -25 5q-24 4 -36 4t-33 -4q-3 -2 -8 -1q-8 0 -20 4q-21 6 -27 5q-12 0 -21.5 -8t-26.5 -8l-81 12 q-12 -4 -23 -4h-20q-48 0 -76 19q-24 -12 -47 -27q-14 -14 -31 -14q-10 0 -41 12q-22 9 -41 9q-6 0 -16.5 -1.5t-15.5 -1.5q-21 0 -43 11q-30 14 -52 14q-16 -2 -48 -19q-23 -14 -36 -14q-5 0 -8 2q-18 6 -41 6q-16 0 -54 -5t-42 -5q-48 0 -82 31q-9 8 -4 20q6 18 25 47 q10 18 34 19q22 -2 37 -2q17 0 35 6q86 65 86 168q0 19 -7.5 64.5t-7.5 48.5q-2 16 12 88q15 85 16 98q3 30 4 54q0 13 -5.5 76.5t-5.5 78.5q0 78 19 153q-114 0 -153 7.5t-87 36.5q-49 21 -96 40q-16 13 -48 68q-34 60 -77 100q-30 30 -62 92q-29 58 -29 97zM297 1116 q0 -24 13 -114q13 -87 12 -107q-2 -56 34 -90q53 -47 58 -55q12 -30 47 -45q23 -9 47 -17q3 -1 8 -1q8 0 22 2q25 3 33 3l4 46q9 41 9 96q0 -2 -14 141q-14 51 -24 128q-8 66 -9 68q-5 12 0 27q18 60 18 68q0 96 -14 132q-21 5 -31 5q-23 0 -45 -27q-37 -46 -82 -75 q-59 -40 -80 -130q-6 -26 -6 -55zM782 63q0 -55 27 -92q17 -22 17 -37l-12 -32q-13 -33 -13 -58q0 -29 13 -58q18 -38 19 -41q4 -15 47 -30l56 -18q0 102 8 127q2 65 10 150q12 38 12 92q0 71 -16 132q-2 8 -2 29q0 8 2 53.5t2 65.5v31q0 1 -2 21q-8 84 -8 114q0 33 12 135 q3 76 9 214q3 50 7 96q0 64 -24 97q-17 23 -16 40q0 2 11 34.5t11 53.5q0 38 -8 53q-16 29 -20 43q-2 6 -2 10q0 15 9 35q11 26 11 35q0 15 -10 31q-22 33 -54 33q-14 0 -28 -4q-11 -4 -24 -8q-11 -6 -11 -24q0 -10 7 -34v-43q0 -84 -11 -110q-6 -15 -6 -39v-66 q0 -25 -4 -41q-12 -22 -12 -78q0 -68 12 -135q4 -23 4 -46q0 -5 -2 -40.5t-2 -51.5q0 -33 6 -73q0 -10 2 -38.5t2 -41.5q0 -50 -4 -82q-14 -112 -14 -123t2 -35.5t2 -31.5q0 -50 -7.5 -133.5t-7.5 -80.5z" />
<glyph unicode="&#xb8;" horiz-adv-x="895" d="M188 -395q0 21 11 21q6 0 15 -4q44 -17 52 -16q27 0 64 12q47 15 73 16q18 0 27 -3q14 -2 24 13q18 18 19 45q0 14 -6 33q-7 31 -22 71q-4 4 -29 10q-47 12 -68 46q-1 2 -2 5q0 10 17 24q22 17 28 44q0 37 35 37q33 -8 37 -8q-2 -5 -5 -10q-6 -10 -12 -23q28 -16 68 -43 q3 -6 84 -70q16 -14 27 -26q18 -22 18 -72q4 -37 4 -51q0 -45 -17 -68q-19 -27 -22 -46q-14 -46 -114 -46q-10 0 -34 2t-30 2l-39 -4q-42 8 -100 25l-47 25q-56 24 -56 59z" />
<glyph unicode="&#xba;" horiz-adv-x="808" d="M35 682q0 47 59 47h39q85 9 281 9q89 0 131 4l113 10q47 0 65 -5q46 -2 59 -25q7 -15 8 -40q1 -28 -7.5 -36.5t-40.5 -13.5q-66 -10 -130 -14l-96 -4h-106q2 0 -12 -1q-16 -2 -52 -3q-51 -2 -141 -2q-72 0 -80 2q-30 6 -78 25q-12 10 -12 47zM66 1266q0 58 30 88 q11 8 17 14q46 51 55 79q6 17 12 26l27 22q22 10 51 23q22 16 47 18q13 5 33 12q26 10 53 10q16 0 40 -11t42 -11q33 4 45 4q18 0 35 -14q60 -38 97 -83q26 -21 63 -53q30 -34 30 -100q6 -31 13 -59q0 -12 3 -23t3 -14q0 -25 -19 -79l-22 -62q-18 -28 -43 -64l-12 -8 q-20 -39 -45 -60q-18 -15 -38 -33t-61 -18q-13 2 -28 3q-14 0 -39 -13.5t-45 -13.5q-10 0 -16 2q-36 10 -42 10q-26 0 -34 28q-4 6 -27 7q-75 0 -107 53q-12 12 -22 24q-6 0 -31 32t-29 47q-4 27 -21 73q-9 13 -9 33q0 15 2 29q2 10 -4 42q-5 34 -4 40zM230 1110 q0 -43 18 -61q10 -24 24 -55q14 -8 47 -46q17 -24 27 -24q30 5 56 14q4 2 16.5 -3t21.5 -5q10 4 18 4q13 2 21 8l15 15q34 28 57 96q8 25 8 61v64q0 18 2 32q2 8 2 33q0 17 -3 48t-3 36q0 43 -23 62q-7 17 -26 45q-16 15 -46 26q-15 6 -32 13q-5 4 -14 4q-4 0 -7 1.5t-7 1.5 t-19 -7l-29 -21l-31 -26q-14 -24 -59 -72q-22 -17 -19 -40q2 -11 1 -24q0 -14 -2 -37t-2 -28q0 -34 -6 -72.5t-6 -42.5z" />
<glyph unicode="&#xbb;" horiz-adv-x="1192" d="M114 928q0 61 40 63q4 2 8 -4q1 -1 20.5 -17t51.5 -46q31 -34 81 -82q14 -9 25 -15l54 -57q31 -22 71 -61q21 -27 59 -72q74 -70 74 -88q0 -70 -47 -113q-31 -18 -68 -58q-10 -39 -84 -92q-45 -31 -47 -40q-14 -29 -70 -63q-29 -18 -30 -23q-14 -20 -59 -74 q-26 -30 -33 -35q-9 -6 -26 15q-13 16 -12 32q0 6 1 11q5 28 20 52t15 23q5 25 28 60q65 94 86 122q23 23 61 74q30 54 29 84q0 47 -27 75q-11 20 -36 48q-12 7 -37 43q-22 45 -41 66q-20 16 -27 22q-17 6 -34 49q-4 22 -31 47q-14 14 -15 54zM575 129q0 40 15 53 q27 26 31 48q15 42 34 48q6 6 27 23q19 21 41 65q25 36 37 44q9 15 36 48q27 28 27 75q0 30 -29 84q-8 14 -61 73q-25 34 -86 123q-24 35 -29 60q0 -1 -14.5 23t-19.5 52q-2 6 -2 11q0 15 13 31q17 21 26 16q7 -6 33 -36q46 -54 59 -73q2 -5 37 -27q49 -30 63 -59 q2 -10 47 -41q74 -52 84 -91q3 -13 28 -29q37 -26 40 -29q47 -43 47 -113q0 -18 -41 -55q-20 -18 -64 -69q-18 -23 -28 -36q-5 -10 -36.5 -33t-35.5 -29l-53 -56q-17 -10 -56 -44q-74 -82 -104 -100q-10 -6 -19 -16q-4 -6 -8 -4q-39 2 -39 63z" />
<glyph unicode="&#xbf;" horiz-adv-x="968" d="M121 -37q0 4 17 55q15 47 12 64q-6 31 -7 35q0 9 4 12q10 8 24.5 63.5t33.5 73.5q26 25 57 52q49 74 111 100q18 6 29 14q30 25 50 36t58 81q22 17 45 57l62 41q-33 6 -62 27q-4 4 -43 39q-34 22 -43 44q-8 20 -8 73q-1 11 -1 20q0 52 50 92q14 22 23 28q24 23 73 33 q6 2 20 3q25 0 60 -12q30 -10 66 -28q21 -10 37 -34q30 -66 30 -84q0 -14 -7 -38.5t-8 -37t-26 -69.5q-16 -33 -94 -44q0 -6 -26 -41q-1 -1 -23 -54q-21 -49 -21 -60q-8 -68 -30 -88q-41 -37 -60 -74q-53 -105 -92 -158q-41 -56 -41 -227q0 -33 -6 -76t-6 -41q0 -16 4 -29 q1 -2 24 -49q38 -74 113 -92q14 -3 41 -8q6 8 13 15q6 24 5 67q-4 25 -4 33q0 10 25 70q30 75 105 75q16 0 49 -8q45 -16 62 -28q58 -37 58 -109q0 -39 -20 -72q-2 -1 -25 -42t-35 -52q-14 -15 -69 -27q-7 -2 -75 -12q-8 -2 -43 3q-37 5 -41 5q-12 0 -42.5 -5t-48.5 -5 q-23 0 -76 32l-100 42q-43 18 -63 50q-55 85 -62 93q-46 58 -51 107q-2 18 -2 44v25z" />
<glyph unicode="&#xc0;" horiz-adv-x="1910" d="M-14 105v20q4 14 4 21q6 20 53 44q10 6 75 20q59 13 84 34q27 13 55 26q53 29 85 78q28 43 61 82q10 23 35 70q5 19 16 51q6 32 30 85q10 10 18 44t17 46q14 17 14 26q2 17 27.5 48.5t28.5 40.5t21 29q22 26 35.5 80.5t24.5 66.5q14 24 43 66q32 37 33 39l12 45 q0 38 22.5 90.5t22.5 94.5q0 30 5 54t5 21q0 24 17 41t18 21q20 26 26 37q19 32 59 40q37 4 73 9q42 5 72 -35q21 -31 49 -107q10 -51 53 -81q26 -19 42 -67q13 -41 25 -83q6 -15 7 -22q-4 -45 -4 -66q0 -30 6 -55.5t6 -28.5q0 -30 8 -45q26 -48 40 -96q11 -38 18 -47 t17.5 -50t28.5 -65q4 -27 24 -61q21 -37 25 -54l13 -86q4 -8 6 -22q15 -9 40 -71q7 -39 21 -64q-2 -11 29 -55q8 -26 16 -54q15 -46 50 -62q7 -3 12 -8q8 -10 22 -10q119 0 242 -12q27 0 51 -22q13 -12 13 -33q0 -22 -13 -43q-20 -35 -51 -47q-6 -2 -57 -13q-14 -8 -27 -8 q15 0 -37 12q-14 2 -35 2q-15 0 -37.5 -2t-38.5 -2q-25 0 -61 6q-15 0 -33 -4q-15 -4 -46.5 2.5t-35.5 5.5q-14 -2 -26 -4h-18q-16 0 -29 7q-34 16 -92 16q-18 0 -37.5 -8t-22.5 -8q-19 -8 -61.5 -11.5t-60.5 -10.5q-32 -11 -48 -9q-14 0 -21 2q-16 14 -20 16q-2 5 -18 4 l-46 -2q-17 0 -42.5 12.5t-28.5 12.5q-17 0 -39 -17l-106 -10q-11 -1 -47 -14q-32 -12 -52 -12q-25 0 -39 2q-20 2 -58 -6q-42 -10 -50 -11q-6 0 -54 7.5t-61 7.5q-18 -2 -27 -2q-23 0 -40 2l-33 4q-22 0 -41 -4q-16 -3 -41 1q-31 6 -39 7q-28 0 -51 -3l-23 -3h-8 q-26 5 -53 16q-17 6 -41 37q-2 28 -4 37.5t-2 26.5zM600 274q0 -30 6 -40q10 -18 52 -33q18 -6 43 -29q22 -18 32 -18h41q34 0 52 -8q46 -37 67 -37q8 0 31.5 21t40.5 21q14 0 63.5 -4t61.5 -4q30 0 40 8q14 21 44 50q3 13 12 33q10 27 10 88q0 38 -7 63t-7 22 q0 50 -104 105q-13 6 -25 8q-8 0 -26.5 3t-27.5 3h-22q-10 0 -34 -3t-29 -3q-25 0 -51.5 -11t-32.5 -11q-16 0 -50 6q-14 2 -40 -12q-29 -15 -45 -17q-26 -2 -58.5 -39.5t-32.5 -66.5l-2 -39t-2 -56zM649 2006q0 9 2 14q5 19 29.5 51.5t34.5 31.5q6 0 28 -11l25 -12 q22 -10 55 -41q21 -40 64 -79q11 -10 22.5 -47.5t19.5 -46.5q14 -14 22 -30q23 -47 28 -53q39 -39 48 -99q3 -22 4 -38q0 -25 -8 -39q-9 -24 -28 -24q-16 0 -40 24l-20 21q-16 10 -44 40q-10 15 -18 29q-40 20 -74 47q-11 9 -40 96q-3 10 -76 76q-17 20 -28 55q-6 21 -6 35z M719 723q0 -18 19 -37q7 -8 26 -10l80 -10q20 6 47 6q12 0 19 2q14 10 22 12l49 28q21 17 21 60v61q0 37 -7 46q-15 19 -33 70q-2 24 -14 32l-26 26q-23 22 -40 21q-12 0 -30 -6q-21 -18 -34.5 -47t-16.5 -33q-29 -29 -29 -49q0 -16 -2 -21q-3 -34 -27 -96q-7 -10 -12 -18 q-12 -20 -12 -37z" />
<glyph unicode="&#xc1;" horiz-adv-x="1910" d="M-14 105v20q4 14 4 21q6 20 53 44q10 6 75 20q59 13 84 34q27 13 55 26q53 29 85 78q28 43 61 82q10 23 35 70q5 19 16 51q6 32 30 85q10 10 18 44t17 46q14 17 14 26q2 17 27.5 48.5t28.5 40.5t21 29q22 26 35.5 80.5t24.5 66.5q14 24 43 66q32 37 33 39l12 45 q0 38 22.5 90.5t22.5 94.5q0 30 5 54t5 21q0 24 17 41t18 21q20 26 26 37q19 32 59 40q37 4 73 9q42 5 72 -35q21 -31 49 -107q10 -51 53 -81q26 -19 42 -67q13 -41 25 -83q6 -15 7 -22q-4 -45 -4 -66q0 -30 6 -55.5t6 -28.5q0 -30 8 -45q26 -48 40 -96q11 -38 18 -47 t17.5 -50t28.5 -65q4 -27 24 -61q21 -37 25 -54l13 -86q4 -8 6 -22q15 -9 40 -71q7 -39 21 -64q-2 -11 29 -55q8 -26 16 -54q15 -46 50 -62q7 -3 12 -8q8 -10 22 -10q119 0 242 -12q27 0 51 -22q13 -12 13 -33q0 -22 -13 -43q-20 -35 -51 -47q-6 -2 -57 -13q-14 -8 -27 -8 q15 0 -37 12q-14 2 -35 2q-15 0 -37.5 -2t-38.5 -2q-25 0 -61 6q-15 0 -33 -4q-15 -4 -46.5 2.5t-35.5 5.5q-14 -2 -26 -4h-18q-16 0 -29 7q-34 16 -92 16q-18 0 -37.5 -8t-22.5 -8q-19 -8 -61.5 -11.5t-60.5 -10.5q-32 -11 -48 -9q-14 0 -21 2q-16 14 -20 16q-2 5 -18 4 l-46 -2q-17 0 -42.5 12.5t-28.5 12.5q-17 0 -39 -17l-106 -10q-11 -1 -47 -14q-32 -12 -52 -12q-25 0 -39 2q-20 2 -58 -6q-42 -10 -50 -11q-6 0 -54 7.5t-61 7.5q-18 -2 -27 -2q-23 0 -40 2l-33 4q-22 0 -41 -4q-16 -3 -41 1q-31 6 -39 7q-28 0 -51 -3l-23 -3h-8 q-26 5 -53 16q-17 6 -41 37q-2 28 -4 37.5t-2 26.5zM600 274q0 -30 6 -40q10 -18 52 -33q18 -6 43 -29q22 -18 32 -18h41q34 0 52 -8q46 -37 67 -37q8 0 31.5 21t40.5 21q14 0 63.5 -4t61.5 -4q30 0 40 8q14 21 44 50q3 13 12 33q10 27 10 88q0 38 -7 63t-7 22 q0 50 -104 105q-13 6 -25 8q-8 0 -26.5 3t-27.5 3h-22q-10 0 -34 -3t-29 -3q-25 0 -51.5 -11t-32.5 -11q-16 0 -50 6q-14 2 -40 -12q-29 -15 -45 -17q-26 -2 -58.5 -39.5t-32.5 -66.5l-2 -39t-2 -56zM719 723q0 -18 19 -37q7 -8 26 -10l80 -10q20 6 47 6q12 0 19 2 q14 10 22 12l49 28q21 17 21 60v61q0 37 -7 46q-15 19 -33 70q-2 24 -14 32l-26 26q-23 22 -40 21q-12 0 -30 -6q-21 -18 -34.5 -47t-16.5 -33q-29 -29 -29 -49q0 -16 -2 -21q-3 -34 -27 -96q-7 -10 -12 -18q-12 -20 -12 -37zM812 1651q0 8 14.5 35t14.5 35q8 19 19 47 q0 22 14 50q16 33 18 44q4 23 44 43q6 4 20 49l26 39q16 20 29 29q37 30 61 49q30 22 64 23q31 0 60.5 -26t29.5 -58q0 -17 -8 -36q-15 -34 -35 -55q-10 -10 -41 -33q-10 -20 -30 -44q-18 -25 -62 -56q-18 -8 -33 -26q-35 -46 -43 -50q-50 -66 -70 -80q-28 -20 -55 -20 q-37 0 -37 41z" />
<glyph unicode="&#xc2;" horiz-adv-x="1910" d="M-14 105v20q4 14 4 21q6 20 53 44q10 6 75 20q59 13 84 34q27 13 55 26q53 29 85 78q28 43 61 82q10 23 35 70q5 19 16 51q6 32 30 85q10 10 18 44t17 46q14 17 14 26q2 17 27.5 48.5t28.5 40.5t21 29q22 26 35.5 80.5t24.5 66.5q14 24 43 66q32 37 33 39l12 45 q0 38 22.5 90.5t22.5 94.5q0 30 5 54t5 21q0 24 17 41t18 21q20 26 26 37q19 32 59 40q37 4 73 9q42 5 72 -35q21 -31 49 -107q10 -51 53 -81q26 -19 42 -67q13 -41 25 -83q6 -15 7 -22q-4 -45 -4 -66q0 -30 6 -55.5t6 -28.5q0 -30 8 -45q26 -48 40 -96q11 -38 18 -47 t17.5 -50t28.5 -65q4 -27 24 -61q21 -37 25 -54l13 -86q4 -8 6 -22q15 -9 40 -71q7 -39 21 -64q-2 -11 29 -55q8 -26 16 -54q15 -46 50 -62q7 -3 12 -8q8 -10 22 -10q119 0 242 -12q27 0 51 -22q13 -12 13 -33q0 -22 -13 -43q-20 -35 -51 -47q-6 -2 -57 -13q-14 -8 -27 -8 q15 0 -37 12q-14 2 -35 2q-15 0 -37.5 -2t-38.5 -2q-25 0 -61 6q-15 0 -33 -4q-15 -4 -46.5 2.5t-35.5 5.5q-14 -2 -26 -4h-18q-16 0 -29 7q-34 16 -92 16q-18 0 -37.5 -8t-22.5 -8q-19 -8 -61.5 -11.5t-60.5 -10.5q-32 -11 -48 -9q-14 0 -21 2q-16 14 -20 16q-2 5 -18 4 l-46 -2q-17 0 -42.5 12.5t-28.5 12.5q-17 0 -39 -17l-106 -10q-11 -1 -47 -14q-32 -12 -52 -12q-25 0 -39 2q-20 2 -58 -6q-42 -10 -50 -11q-6 0 -54 7.5t-61 7.5q-18 -2 -27 -2q-23 0 -40 2l-33 4q-22 0 -41 -4q-16 -3 -41 1q-31 6 -39 7q-28 0 -51 -3l-23 -3h-8 q-26 5 -53 16q-17 6 -41 37q-2 28 -4 37.5t-2 26.5zM600 274q0 -30 6 -40q10 -18 52 -33q18 -6 43 -29q22 -18 32 -18h41q34 0 52 -8q46 -37 67 -37q8 0 31.5 21t40.5 21q14 0 63.5 -4t61.5 -4q30 0 40 8q14 21 44 50q3 13 12 33q10 27 10 88q0 38 -7 63t-7 22 q0 50 -104 105q-13 6 -25 8q-8 0 -26.5 3t-27.5 3h-22q-10 0 -34 -3t-29 -3q-25 0 -51.5 -11t-32.5 -11q-16 0 -50 6q-14 2 -40 -12q-29 -15 -45 -17q-26 -2 -58.5 -39.5t-32.5 -66.5l-2 -39t-2 -56zM621 1585q-11 26 67 166q23 33 52 74q9 6 39 75q6 25 57 72q78 71 100 80 q8 3 29 4q32 2 63 -26q43 -39 51 -47q29 -30 49 -66q18 -31 40 -57q22 -22 28 -35q10 -23 21 -47q10 -9 24 -46q77 -112 74 -126q-8 -39 -28 -39q-41 0 -50 28q-22 8 -69 45q-19 22 -41 46q-14 17 -37 42q-18 20 -49.5 36t-37.5 25q-11 15 -18 18q-3 3 -12 3q-10 0 -29 -6 l-6 -2q-16 -5 -38 -12q-28 -10 -44 -40.5t-32 -38.5q-20 -10 -35 -28q-17 -20 -34.5 -30t-34.5 -31q-14 -18 -29.5 -22.5t-29.5 -20.5t-21 -16q-10 0 -19 22zM719 723q0 -18 19 -37q7 -8 26 -10l80 -10q20 6 47 6q12 0 19 2q14 10 22 12l49 28q21 17 21 60v61q0 37 -7 46 q-15 19 -33 70q-2 24 -14 32l-26 26q-23 22 -40 21q-12 0 -30 -6q-21 -18 -34.5 -47t-16.5 -33q-29 -29 -29 -49q0 -16 -2 -21q-3 -34 -27 -96q-7 -10 -12 -18q-12 -20 -12 -37z" />
<glyph unicode="&#xc3;" horiz-adv-x="1910" d="M-14 105v20q4 14 4 21q6 20 53 44q10 6 75 20q59 13 84 34q27 13 55 26q53 29 85 78q28 43 61 82q10 23 35 70q5 19 16 51q6 32 30 85q10 10 18 44t17 46q14 17 14 26q2 17 27.5 48.5t28.5 40.5t21 29q22 26 35.5 80.5t24.5 66.5q14 24 43 66q32 37 33 39l12 45 q0 38 22.5 90.5t22.5 94.5q0 30 5 54t5 21q0 24 17 41t18 21q20 26 26 37q19 32 59 40q37 4 73 9q42 5 72 -35q21 -31 49 -107q10 -51 53 -81q26 -19 42 -67q13 -41 25 -83q6 -15 7 -22q-4 -45 -4 -66q0 -30 6 -55.5t6 -28.5q0 -30 8 -45q26 -48 40 -96q11 -38 18 -47 t17.5 -50t28.5 -65q4 -27 24 -61q21 -37 25 -54l13 -86q4 -8 6 -22q15 -9 40 -71q7 -39 21 -64q-2 -11 29 -55q8 -26 16 -54q15 -46 50 -62q7 -3 12 -8q8 -10 22 -10q119 0 242 -12q27 0 51 -22q13 -12 13 -33q0 -22 -13 -43q-20 -35 -51 -47q-6 -2 -57 -13q-14 -8 -27 -8 q15 0 -37 12q-14 2 -35 2q-15 0 -37.5 -2t-38.5 -2q-25 0 -61 6q-15 0 -33 -4q-15 -4 -46.5 2.5t-35.5 5.5q-14 -2 -26 -4h-18q-16 0 -29 7q-34 16 -92 16q-18 0 -37.5 -8t-22.5 -8q-19 -8 -61.5 -11.5t-60.5 -10.5q-32 -11 -48 -9q-14 0 -21 2q-16 14 -20 16q-2 5 -18 4 l-46 -2q-17 0 -42.5 12.5t-28.5 12.5q-17 0 -39 -17l-106 -10q-11 -1 -47 -14q-32 -12 -52 -12q-25 0 -39 2q-20 2 -58 -6q-42 -10 -50 -11q-6 0 -54 7.5t-61 7.5q-18 -2 -27 -2q-23 0 -40 2l-33 4q-22 0 -41 -4q-16 -3 -41 1q-31 6 -39 7q-28 0 -51 -3l-23 -3h-8 q-26 5 -53 16q-17 6 -41 37q-2 28 -4 37.5t-2 26.5zM591 1684q0 57 28 85q6 6 28 35l28 37q6 12 52.5 26.5t75.5 14.5q14 0 43 7t33 7q3 0 64 -16q58 -28 92 -28q18 0 69 -21q31 -12 47 -12q18 0 59.5 12t49.5 12q16 2 49 27l33 24l18 -6q41 -22 50 -84q15 -112 -113 -172 q-43 -21 -88 -20q-36 0 -62 8q-58 18 -92 18q-35 4 -65 31q-46 41 -78 43q-29 -8 -57 -8q-22 0 -54 10q-6 1 -61 -35q-58 -37 -107 -37q-34 0 -42 42zM600 274q0 -30 6 -40q10 -18 52 -33q18 -6 43 -29q22 -18 32 -18h41q34 0 52 -8q46 -37 67 -37q8 0 31.5 21t40.5 21 q14 0 63.5 -4t61.5 -4q30 0 40 8q14 21 44 50q3 13 12 33q10 27 10 88q0 38 -7 63t-7 22q0 50 -104 105q-13 6 -25 8q-8 0 -26.5 3t-27.5 3h-22q-10 0 -34 -3t-29 -3q-25 0 -51.5 -11t-32.5 -11q-16 0 -50 6q-14 2 -40 -12q-29 -15 -45 -17q-26 -2 -58.5 -39.5t-32.5 -66.5 l-2 -39t-2 -56zM719 723q0 -18 19 -37q7 -8 26 -10l80 -10q20 6 47 6q12 0 19 2q14 10 22 12l49 28q21 17 21 60v61q0 37 -7 46q-15 19 -33 70q-2 24 -14 32l-26 26q-23 22 -40 21q-12 0 -30 -6q-21 -18 -34.5 -47t-16.5 -33q-29 -29 -29 -49q0 -16 -2 -21q-3 -34 -27 -96 q-7 -10 -12 -18q-12 -20 -12 -37z" />
<glyph unicode="&#xc4;" horiz-adv-x="1910" d="M-2 105v20q4 14 4 21q6 20 53 44q10 6 75 20q59 13 84 34q27 13 55 26q53 29 85 78q28 43 61 82q10 23 35 70q5 19 16 51q6 32 30 85q10 10 18 44t17 46q14 17 14 26q2 17 27.5 48.5t28.5 40.5t21 29q22 26 35.5 80.5t24.5 66.5q14 24 43 66q32 37 33 39l12 45 q0 38 22.5 90.5t22.5 94.5q0 30 5 54t5 21q0 24 17 41t18 21q20 26 26 37q19 32 59 40q37 4 73 9q42 5 72 -35q21 -31 49 -107q10 -51 53 -81q26 -19 42 -67q13 -41 25 -83q6 -15 7 -22q-4 -45 -4 -66q0 -30 6 -55.5t6 -28.5q0 -30 8 -45q26 -48 40 -96q11 -38 18 -47 t17.5 -50t28.5 -65q4 -27 24 -61q21 -37 25 -54l13 -86q4 -8 6 -22q15 -9 40 -71q7 -39 21 -64q-2 -11 29 -55q8 -26 16 -54q15 -46 50 -62q7 -3 12 -8q8 -10 22 -10q119 0 242 -12q27 0 51 -22q13 -12 13 -33q0 -22 -13 -43q-20 -35 -51 -47q-6 -2 -57 -13q-14 -8 -27 -8 q15 0 -37 12q-14 2 -35 2q-15 0 -37.5 -2t-38.5 -2q-25 0 -61 6q-15 0 -33 -4q-15 -4 -46.5 2.5t-35.5 5.5q-14 -2 -26 -4h-18q-16 0 -29 7q-34 16 -92 16q-18 0 -37.5 -8t-22.5 -8q-19 -8 -61.5 -11.5t-60.5 -10.5q-32 -11 -48 -9q-14 0 -21 2q-16 14 -20 16q-2 5 -18 4 l-46 -2q-17 0 -42.5 12.5t-28.5 12.5q-17 0 -39 -17l-106 -10q-11 -1 -47 -14q-32 -12 -52 -12q-25 0 -39 2q-20 2 -58 -6q-42 -10 -50 -11q-6 0 -54 7.5t-61 7.5q-18 -2 -27 -2q-23 0 -40 2l-33 4q-22 0 -41 -4q-16 -3 -41 1q-31 6 -39 7q-28 0 -51 -3l-23 -3h-8 q-26 5 -53 16q-17 6 -41 37q-2 28 -4 37.5t-2 26.5zM555 1808q0 14 19 32q22 22 26 29q25 41 84 41q11 2 41 -6.5t41 -7.5q8 0 54 -60q14 -18 14 -41.5t2.5 -47.5t2.5 -25q0 -26 -21.5 -55t-74.5 -31q-46 -2 -81 28q-47 31 -51 33q-55 43 -56 111zM612 274q0 -30 6 -40 q10 -18 52 -33q18 -6 43 -29q22 -18 32 -18h41q34 0 52 -8q46 -37 67 -37q8 0 31.5 21t40.5 21q14 0 63.5 -4t61.5 -4q30 0 40 8q14 21 44 50q3 13 12 33q10 27 10 88q0 38 -7 63t-7 22q0 50 -104 105q-13 6 -25 8q-8 0 -26.5 3t-27.5 3h-22q-10 0 -34 -3t-29 -3 q-25 0 -51.5 -11t-32.5 -11q-16 0 -50 6q-14 2 -40 -12q-29 -15 -45 -17q-26 -2 -58.5 -39.5t-32.5 -66.5l-2 -39t-2 -56zM731 723q0 -18 19 -37q7 -8 26 -10l80 -10q20 6 47 6q12 0 19 2q14 10 22 12l49 28q21 17 21 60v61q0 37 -7 46q-15 19 -33 70q-2 24 -14 32l-26 26 q-23 22 -40 21q-12 0 -30 -6q-21 -18 -34.5 -47t-16.5 -33q-29 -29 -29 -49q0 -16 -2 -21q-3 -34 -27 -96q-7 -10 -12 -18q-12 -20 -12 -37zM1151 1726q-4 10 1 42q5 39 5 40q0 25 4 35q11 28 47 69q18 10 50 11q37 0 65 -17l47 -34q10 -8 47 -66q4 -6 4 -27q0 -37 -10 -46 t-16 -44q-8 -29 -12 -37q-17 -25 -64 -24q-9 0 -20 4q-27 7 -76 28q-25 22 -33 29q-29 10 -39 37z" />
<glyph unicode="&#xc5;" horiz-adv-x="1910" d="M-2 105v20q4 14 4 21q6 20 53 44q10 6 75 20q59 13 84 34q27 13 55 26q53 29 85 78q28 43 61 82q10 23 35 70q5 19 16 51q6 32 30 85q10 10 18 44t17 46q14 17 14 26q2 17 27.5 48.5t28.5 40.5t21 29q22 26 35.5 80.5t24.5 66.5q14 24 43 66q32 37 33 39l12 45 q0 38 22.5 90.5t22.5 94.5q0 30 5 54t5 21q0 24 17 41t18 21q20 26 26 37q19 32 59 40q37 4 73 9q42 5 72 -35q21 -31 49 -107q10 -51 53 -81q26 -19 42 -67q13 -41 25 -83q6 -15 7 -22q-4 -45 -4 -66q0 -30 6 -55.5t6 -28.5q0 -30 8 -45q26 -48 40 -96q11 -38 18 -47 t17.5 -50t28.5 -65q4 -27 24 -61q21 -37 25 -54l13 -86q4 -8 6 -22q15 -9 40 -71q7 -39 21 -64q-2 -11 29 -55q8 -26 16 -54q15 -46 50 -62q7 -3 12 -8q8 -10 22 -10q119 0 242 -12q27 0 51 -22q13 -12 13 -33q0 -22 -13 -43q-20 -35 -51 -47q-6 -2 -57 -13q-14 -8 -27 -8 q15 0 -37 12q-14 2 -35 2q-15 0 -37.5 -2t-38.5 -2q-25 0 -61 6q-15 0 -33 -4q-15 -4 -46.5 2.5t-35.5 5.5q-14 -2 -26 -4h-18q-16 0 -29 7q-34 16 -92 16q-18 0 -37.5 -8t-22.5 -8q-19 -8 -61.5 -11.5t-60.5 -10.5q-32 -11 -48 -9q-14 0 -21 2q-16 14 -20 16q-2 5 -18 4 l-46 -2q-17 0 -42.5 12.5t-28.5 12.5q-17 0 -39 -17l-106 -10q-11 -1 -47 -14q-32 -12 -52 -12q-25 0 -39 2q-20 2 -58 -6q-42 -10 -50 -11q-6 0 -54 7.5t-61 7.5q-18 -2 -27 -2q-23 0 -40 2l-33 4q-22 0 -41 -4q-16 -3 -41 1q-31 6 -39 7q-28 0 -51 -3l-23 -3h-8 q-26 5 -53 16q-17 6 -41 37q-2 28 -4 37.5t-2 26.5zM612 274q0 -30 6 -40q10 -18 52 -33q18 -6 43 -29q22 -18 32 -18h41q34 0 52 -8q46 -37 67 -37q8 0 31.5 21t40.5 21q14 0 63.5 -4t61.5 -4q30 0 40 8q14 21 44 50q3 13 12 33q10 27 10 88q0 38 -7 63t-7 22 q0 50 -104 105q-13 6 -25 8q-8 0 -26.5 3t-27.5 3h-22q-10 0 -34 -3t-29 -3q-25 0 -51.5 -11t-32.5 -11q-16 0 -50 6q-14 2 -40 -12q-29 -15 -45 -17q-26 -2 -58.5 -39.5t-32.5 -66.5l-2 -39t-2 -56zM731 723q0 -18 19 -37q7 -8 26 -10l80 -10q20 6 47 6q12 0 19 2 q14 10 22 12l49 28q21 17 21 60v61q0 37 -7 46q-15 19 -33 70q-2 24 -14 32l-26 26q-23 22 -40 21q-12 0 -30 -6q-21 -18 -34.5 -47t-16.5 -33q-29 -29 -29 -49q0 -16 -2 -21q-3 -34 -27 -96q-7 -10 -12 -18q-12 -20 -12 -37zM754 1804v15q0 8 22 81l15 48q6 20 22 28 q10 5 29 15q4 2 22 26q8 11 35 23q18 8 86 8q22 0 27 -4q10 -10 43 -16q8 0 29 -12q28 -16 35 -19q15 -6 22 -8q18 -8 30 -27q10 -30 23 -63q14 -18 18 -27q11 -16 9 -32q-23 -195 -111 -209q-10 3 -45 -3q-97 -16 -109 -16q-46 16 -110 24q-24 8 -35 23q-18 26 -27 86 q0 11 -8 21q-14 15 -20 24q-2 8 -2 14zM873 1812l26 -51q11 -20 23 -24q10 -21 22 -39q21 0 47 -8q30 -6 75 40q38 38 37 61q1 4 -1 7q0 36 -21.5 71.5t-45.5 35.5l-36 20q-21 13 -52 8q-9 -2 -19 -18q-15 -10 -29 -19q-26 -26 -26 -84z" />
<glyph unicode="&#xc6;" horiz-adv-x="1924" d="M2 55q0 26 39 66q18 22 69 51q28 15 56 45q6 14 46 67q45 52 54 95q3 16 27 46q21 26 21 50q0 66 63 107q16 21 45 55q15 40 60 130q14 25 42 51q23 21 28 38q6 23 44 74q20 27 43 96q2 12 8 19q26 26 41 53q21 21 29 59q6 31 25 51q36 41 40 50q25 46 25 89q0 50 -27 56 q-9 -2 -22 -6q-14 -6 -25 0q-22 16 -23 37q0 20 21.5 35.5t42.5 15.5q42 14 57 14q25 -8 66 -8q4 0 24 2q10 2 15 1q6 0 8 -1q6 1 29 6q16 4 27 4q8 0 14 -2q37 6 57 6t39 -1l37 -5q18 0 49 6.5t49 6.5q17 0 57 -4l40 -3q39 0 71 13q11 4 25 0l28 -9q3 -2 28 3q28 6 36 6 q30 0 60 -10q10 -4 48 0q45 5 41 5q12 2 37 -6l25 -8q34 26 55 19q41 -13 63 -70q25 -62 25 -125q0 -14 -7 -35.5t-7 -23.5v-40q0 -55 -4 -67q-8 -12 -8 -98q0 -83 -33 -83q-26 0 -36 36q-7 26 -13 59q-15 46 -33 74q-29 43 -31 57q-2 10 -29 27q-24 37 -37 45 q-27 14 -47 37q-9 10 -22 13q-22 5 -29 8q-14 6 -34 18q-3 2 -13 4q-6 0 -10 2q-7 0 -27 -6q-5 -2 -31 5q-32 9 -51 9l-86 4q-22 -3 -61 -23q-10 -9 -30.5 -27.5t-25.5 -69.5q-5 -44 -9 -88q-7 -38 -7 -52q0 -25 7 -68v-65q0 -70 22 -89.5t45 -17.5l57 7l66 33q36 18 58 51 q17 26 32 73q13 37 57 37q9 2 18 -17.5t9 -41.5q0 -17 -3 -47l-3 -33q0 -18 2 -25q10 -43 10 -77q0 -9 -4 -41.5t-4 -45.5q0 -22 2 -45.5t2 -27.5q0 -117 -12 -148q-9 -13 -29 -12q-11 0 -31 12q-20 8 -33 21.5t-18 42.5q-10 61 -24 86q-6 10 -29 29q-38 22 -92 22 q-74 0 -94 -42q-10 -21 -8 -52q2 -72 1 -62q0 -21 -0.5 -58t-0.5 -55q0 -35 2 -46.5t2 -34.5q0 -16 -1.5 -51.5t-1.5 -53.5q0 -88 34 -99q28 -9 65 -27q25 -13 53 -13q39 0 93 13.5t52 13.5q17 0 31 -5q16 -4 49 14.5t46 36.5q35 13 79 47q6 16 18 25q33 27 33 31 q4 15 42 65q14 19 22 56l20 86q13 41 31 41q6 0 20 -11q27 -18 27 -51q0 -6 -6 -30q-2 -8 5 -77q7 -77 7 -103q0 -23 4.5 -49.5t4.5 -67.5q0 -68 -24 -116q-21 -42 -44 -45t-45 -3q-10 0 -38.5 2t-33.5 2q-32 0 -79.5 -8t-66.5 -8q-66 0 -97 8q-2 1 -7 1q-7 0 -22 -2 q-24 -3 -27 -3q-22 0 -37 2q-73 10 -82 10q-25 0 -48 -6t-21 -6q-14 0 -30 5l-28 9q-10 2 -16 2h-14q-14 0 -49.5 -5t-41.5 -5q-18 0 -47 6q-51 -2 -69 -2q-71 0 -104 8q-62 15 -62 53q0 33 33 47q50 22 97 24q11 1 52 42q1 29 16 96q2 26 11 86q4 26 4 31q0 33 -22 65 l-29 46q-16 22 -23 22q-10 2 -21 2h-16q-30 0 -82 -12q-17 -4 -53 0q-21 2 -35 2q-10 0 -17 -1q-16 -3 -72 9q-38 8 -55 8q-10 0 -14 -2q-22 -16 -59 -16q-23 0 -43 -16.5t-23.5 -33t-47.5 -75.5q-16 -21 -29 -64q-14 -50 -26 -73q-9 -15 -9 -29q0 -28 39 -67q26 -26 54 -27 q10 1 22 2q26 2 38 -15l23 -22q12 -10 14 -29q4 -26 -22 -45q-9 -6 -35 -16q-4 -2 -13 -1q-6 0 -24.5 1t-26.5 1q-11 0 -18 -1q-1 0 -18 5t-27 5q1 0 -27.5 -5t-49.5 -5q-16 0 -64 4t-57 4q-27 -6 -47 -6q-37 0 -54 26q-6 13 -6 25zM549 692q0 -20 2 -29q3 -29 33 -22l20 4 h17q7 0 48 -5t54 -5q15 0 55 8t44 8q20 -4 32 -4q34 0 61 67q10 22 10 35q0 4 -1 7q-5 28 -5 74q0 24 4.5 63.5t4.5 42.5q0 11 -4 25q-10 34 -10 51q6 22 5 34q0 8 -33 99q-8 22 -22 22q-29 -4 -42 -29q-37 -42 -76 -108q-1 -4 -22.5 -27t-21.5 -33q0 -16 -16 -40t-16 -23 q-9 -23 -31 -47q-10 -11 -18 -34q-22 -38 -60 -91q-12 -10 -12 -43z" />
<glyph unicode="&#xc7;" horiz-adv-x="1441" d="M55 705q0 2 8.5 58.5t8.5 82.5q0 47 12 68q14 24 23 64q9 37 18 47q19 26 64 81q18 12 32 49q18 46 19 47q13 38 45 104q26 29 59 54q10 9 55 41l74 25q36 12 51 30q29 35 58 43q32 8 48 29q6 6 17 18q16 14 45 15h80q29 4 37 4q20 0 48 -11q35 -12 36 -12q48 -10 69 -57 q8 -17 19 -51q2 -6 2 -12q0 -37 -82 -56q-53 -5 -170 -23q-39 -9 -84 -75q-8 -13 -33 -21q-10 -22 -28 -40q-23 -22 -35 -40q-50 -74 -49 -192q0 -28 6 -96.5t6 -77.5q0 -18 -2 -27q-21 -82 -21 -131q0 -46 15 -94q11 -38 10 -66q-2 -62 -2 -45q0 -18 31 -90q22 -54 39 -117 q4 -16 12 -24q4 -5 16 -5q34 -48 101 -75q70 -41 133 -41q33 0 115 -10q12 0 74 22q66 24 76 26q18 3 36 5q19 2 23 -4q10 -10 10 -31q0 -41 -43 -80t-95 -39q-16 0 -46 6.5t-31 6.5q-81 -47 -99 -47q-12 0 -42 5t-35 5q4 0 -107 -6q-8 -1 -45 4q-46 10 -78 33 q-46 22 -141 96q-84 90 -150 138q-12 10 -22 28q-76 72 -89 130q-15 31 -34 79q-12 63 -37 104q-31 51 -31 148zM502 -395q0 21 11 21q6 0 15 -4q44 -17 52 -16q27 0 64 12q47 15 73 16q18 0 27 -3q14 -2 24 13q18 18 19 45q0 14 -6 33q-7 31 -22 71q-4 4 -29 10 q-47 12 -68 46q-1 2 -2 5q0 10 17 24q22 17 28 44q0 37 35 37q33 -8 37 -8q-2 -5 -5 -10q-6 -10 -12 -23q28 -16 68 -43q3 -6 84 -70q16 -14 27 -26q18 -22 18 -72q4 -37 4 -51q0 -45 -17 -68q-19 -27 -22 -46q-14 -46 -114 -46q-10 0 -34 2t-30 2l-39 -4q-42 8 -100 25 l-47 25q-56 24 -56 59zM1170 1282q0 63 56 108q4 4 13 23q19 42 23 47q26 36 65 50q10 2 27 1q34 0 53 -49q10 -26 11 -135v-51q-2 -17 -3 -21q-3 -33 7 -85q2 -14 9 -52q6 -26 -12 -64q-3 -6 -29 -52q-6 -10 -32 -3q-22 4 -37 17q-6 4 -23 26l-24 74q-42 38 -86 88 q-18 50 -18 78zM1243 201q0 38 22.5 75.5t22.5 44.5q0 17 17 37q14 13 37 58q22 53 36 53q6 -2 29 -20q8 -9 11 -21q1 -12 -3 -21q-6 -30 -37 -114q-4 -39 -28 -107q-20 -27 -48 -30q-8 -2 -14 -2h-12q-33 0 -33 47z" />
<glyph unicode="&#xc8;" horiz-adv-x="1634" d="M2 1442q0 39 52 68q47 27 112 34q15 0 45 -8q68 -18 75 -18q24 0 44 6q57 18 69 18q21 0 54 -8q18 -4 100 8l57 -31q27 -14 33 -16q18 -6 33 -6q5 0 37 6t49 6q21 0 51 -6q10 -2 21 0q44 8 59 8q25 0 110 25q14 4 21 4q24 0 55 -10q82 -26 111 -27q27 0 80 13l64 16 q60 0 122 -51q25 -21 25 -80v-27q-2 -9 -4.5 -26.5t-2.5 -30.5v-25l3 -71q-2 -14 -3 -23q0 -34 19 -56q21 -29 21 -73q0 -59 -21 -91q-8 -12 -39 -12q-6 -1 -9 0q-15 0 -25 16q-10 19 -22 38q-12 13 -30 59q-10 48 -29 70q-63 36 -80 83q-10 28 -77 77q-26 26 -53 55 q-21 12 -72 12h-43q-16 2 -20 2q-11 1 -40 -2q-32 -4 -39 -4q-14 0 -51 8l-38 8q-13 2 -23 -4q-52 -15 -104 -31q-41 -17 -62 -53q-16 -27 -16 -118v-32q0 -18 -12.5 -59t-12.5 -51q0 -23 16 -47q22 -31 27 -92q2 -25 19 -35q37 -15 42 -15q8 0 64 21q47 27 136 67 q54 15 54 93q0 37 3 43q8 16 18 35q12 53 35 72q8 8 10 8q20 -8 53 -41q11 -20 18 -51q2 -9 3 -29q0 -31 -29 -129l-11 -98q-2 -20 -1 -31q0 -12 1 -19q5 -15 11 -26q4 -34 9 -56l9 -36q4 -16 4 -44q0 -49 -8 -61q-6 -10 -34 -10q-21 2 -25 2q-18 0 -33 22q-34 52 -57 70 q-47 17 -66 29l-47 40h-63q-3 1 -41 15q-28 10 -58 10q-10 0 -30 -43q-11 -22 -17 -30q-10 -10 -10 -27l-16 -90q-4 -22 -4 -43q0 -24 19.5 -74t19.5 -67q0 -54 37 -135q12 -26 24 -53q13 -23 36 -48q28 -18 132 -19q10 0 36 7q24 6 33 4q14 -4 35 -4q25 0 44 10q6 2 20 15 l45 9q31 20 47 27q26 12 69 12q26 30 101 88q16 10 22 25q20 48 49 92l29 43q29 26 46 80q10 33 34 37q7 1 14 1q26 0 45 -26l25 -32q11 -14 18 -58q9 -60 13 -75v-54q0 -63 -25 -129q-18 -45 -35 -89q-10 -37 -26 -58q-22 -29 -35 -57q-8 -2 -16 -2q-38 0 -78 30 q-50 37 -76 37q-18 0 -43 -10q-14 -6 -29 -3q-14 5 -26 9q-19 0 -37 -6q-40 -14 -80 -15q-10 6 -16 11q-22 19 -50 14q-31 -6 -61 -6q-21 0 -51 6t-29 6q6 0 -43 -24q-3 -2 -12 -3q-8 0 -21 3q-28 4 -51 4q-30 0 -63.5 -10.5t-50.5 -10.5q-42 0 -127 31q-11 4 -48 4h-32 q-34 0 -70 11q-14 0 -76 -38q-30 -18 -62 -18q-90 17 -106 16q-22 0 -33 7q-49 49 -49 52q0 12 25 33q19 17 35 19q38 6 77 17q67 16 82 26t22 44q2 12 23 80q5 18 4 22l-10 51q0 31 9 49q22 50 22 143v258q0 27 -9 68.5t-9 44.5q0 6 13 96q6 35 5 55q0 47 -33 119 q-14 40 -30 86q-19 39 -39 54q-5 2 -54 26q-8 4 -51 -12q-15 -6 -26 -2q-18 10 -33 16q-34 18 -35 76zM561 1996q0 9 2 14q5 19 29.5 51.5t34.5 31.5q6 0 28 -11l25 -12q22 -10 55 -41q21 -40 64 -79q11 -10 22.5 -47.5t19.5 -46.5q14 -14 22 -30q23 -47 28 -53 q39 -39 48 -99q3 -22 4 -38q0 -25 -8 -39q-9 -24 -28 -24q-16 0 -40 24l-20 21q-16 10 -44 40q-10 15 -18 29q-40 20 -74 47q-11 9 -40 96q-3 10 -76 76q-17 20 -28 55q-6 21 -6 35z" />
<glyph unicode="&#xc9;" horiz-adv-x="1634" d="M2 1442q0 39 52 68q47 27 112 34q15 0 45 -8q68 -18 75 -18q24 0 44 6q57 18 69 18q21 0 54 -8q18 -4 100 8l57 -31q27 -14 33 -16q18 -6 33 -6q5 0 37 6t49 6q21 0 51 -6q10 -2 21 0q44 8 59 8q25 0 110 25q14 4 21 4q24 0 55 -10q82 -26 111 -27q27 0 80 13l64 16 q60 0 122 -51q25 -21 25 -80v-27q-2 -9 -4.5 -26.5t-2.5 -30.5v-25l3 -71q-2 -14 -3 -23q0 -34 19 -56q21 -29 21 -73q0 -59 -21 -91q-8 -12 -39 -12q-6 -1 -9 0q-15 0 -25 16q-10 19 -22 38q-12 13 -30 59q-10 48 -29 70q-63 36 -80 83q-10 28 -77 77q-26 26 -53 55 q-21 12 -72 12h-43q-16 2 -20 2q-11 1 -40 -2q-32 -4 -39 -4q-14 0 -51 8l-38 8q-13 2 -23 -4q-52 -15 -104 -31q-41 -17 -62 -53q-16 -27 -16 -118v-32q0 -18 -12.5 -59t-12.5 -51q0 -23 16 -47q22 -31 27 -92q2 -25 19 -35q37 -15 42 -15q8 0 64 21q47 27 136 67 q54 15 54 93q0 37 3 43q8 16 18 35q12 53 35 72q8 8 10 8q20 -8 53 -41q11 -20 18 -51q2 -9 3 -29q0 -31 -29 -129l-11 -98q-2 -20 -1 -31q0 -12 1 -19q5 -15 11 -26q4 -34 9 -56l9 -36q4 -16 4 -44q0 -49 -8 -61q-6 -10 -34 -10q-21 2 -25 2q-18 0 -33 22q-34 52 -57 70 q-47 17 -66 29l-47 40h-63q-3 1 -41 15q-28 10 -58 10q-10 0 -30 -43q-11 -22 -17 -30q-10 -10 -10 -27l-16 -90q-4 -22 -4 -43q0 -24 19.5 -74t19.5 -67q0 -54 37 -135q12 -26 24 -53q13 -23 36 -48q28 -18 132 -19q10 0 36 7q24 6 33 4q14 -4 35 -4q25 0 44 10q6 2 20 15 l45 9q31 20 47 27q26 12 69 12q26 30 101 88q16 10 22 25q20 48 49 92l29 43q29 26 46 80q10 33 34 37q7 1 14 1q26 0 45 -26l25 -32q11 -14 18 -58q9 -60 13 -75v-54q0 -63 -25 -129q-18 -45 -35 -89q-10 -37 -26 -58q-22 -29 -35 -57q-8 -2 -16 -2q-38 0 -78 30 q-50 37 -76 37q-18 0 -43 -10q-14 -6 -29 -3q-14 5 -26 9q-19 0 -37 -6q-40 -14 -80 -15q-10 6 -16 11q-22 19 -50 14q-31 -6 -61 -6q-21 0 -51 6t-29 6q6 0 -43 -24q-3 -2 -12 -3q-8 0 -21 3q-28 4 -51 4q-30 0 -63.5 -10.5t-50.5 -10.5q-42 0 -127 31q-11 4 -48 4h-32 q-34 0 -70 11q-14 0 -76 -38q-30 -18 -62 -18q-90 17 -106 16q-22 0 -33 7q-49 49 -49 52q0 12 25 33q19 17 35 19q38 6 77 17q67 16 82 26t22 44q2 12 23 80q5 18 4 22l-10 51q0 31 9 49q22 50 22 143v258q0 27 -9 68.5t-9 44.5q0 6 13 96q6 35 5 55q0 47 -33 119 q-14 40 -30 86q-19 39 -39 54q-5 2 -54 26q-8 4 -51 -12q-15 -6 -26 -2q-18 10 -33 16q-34 18 -35 76zM677 1608q0 8 14.5 35t14.5 35q8 19 19 47q0 22 14 50q16 33 18 44q4 23 44 43q6 4 20 49l26 39q16 20 29 29q37 30 61 49q30 22 64 23q31 0 60.5 -26t29.5 -58 q0 -17 -8 -36q-15 -34 -35 -55q-10 -10 -41 -33q-10 -20 -30 -44q-18 -25 -62 -56q-18 -8 -33 -26q-35 -46 -43 -50q-50 -66 -70 -80q-28 -20 -55 -20q-37 0 -37 41z" />
<glyph unicode="&#xca;" horiz-adv-x="1634" d="M2 1442q0 39 52 68q47 27 112 34q15 0 45 -8q68 -18 75 -18q24 0 44 6q57 18 69 18q21 0 54 -8q18 -4 100 8l57 -31q27 -14 33 -16q18 -6 33 -6q5 0 37 6t49 6q21 0 51 -6q10 -2 21 0q44 8 59 8q25 0 110 25q14 4 21 4q24 0 55 -10q82 -26 111 -27q27 0 80 13l64 16 q60 0 122 -51q25 -21 25 -80v-27q-2 -9 -4.5 -26.5t-2.5 -30.5v-25l3 -71q-2 -14 -3 -23q0 -34 19 -56q21 -29 21 -73q0 -59 -21 -91q-8 -12 -39 -12q-6 -1 -9 0q-15 0 -25 16q-10 19 -22 38q-12 13 -30 59q-10 48 -29 70q-63 36 -80 83q-10 28 -77 77q-26 26 -53 55 q-21 12 -72 12h-43q-16 2 -20 2q-11 1 -40 -2q-32 -4 -39 -4q-14 0 -51 8l-38 8q-13 2 -23 -4q-52 -15 -104 -31q-41 -17 -62 -53q-16 -27 -16 -118v-32q0 -18 -12.5 -59t-12.5 -51q0 -23 16 -47q22 -31 27 -92q2 -25 19 -35q37 -15 42 -15q8 0 64 21q47 27 136 67 q54 15 54 93q0 37 3 43q8 16 18 35q12 53 35 72q8 8 10 8q20 -8 53 -41q11 -20 18 -51q2 -9 3 -29q0 -31 -29 -129l-11 -98q-2 -20 -1 -31q0 -12 1 -19q5 -15 11 -26q4 -34 9 -56l9 -36q4 -16 4 -44q0 -49 -8 -61q-6 -10 -34 -10q-21 2 -25 2q-18 0 -33 22q-34 52 -57 70 q-47 17 -66 29l-47 40h-63q-3 1 -41 15q-28 10 -58 10q-10 0 -30 -43q-11 -22 -17 -30q-10 -10 -10 -27l-16 -90q-4 -22 -4 -43q0 -24 19.5 -74t19.5 -67q0 -54 37 -135q12 -26 24 -53q13 -23 36 -48q28 -18 132 -19q10 0 36 7q24 6 33 4q14 -4 35 -4q25 0 44 10q6 2 20 15 l45 9q31 20 47 27q26 12 69 12q26 30 101 88q16 10 22 25q20 48 49 92l29 43q29 26 46 80q10 33 34 37q7 1 14 1q26 0 45 -26l25 -32q11 -14 18 -58q9 -60 13 -75v-54q0 -63 -25 -129q-18 -45 -35 -89q-10 -37 -26 -58q-22 -29 -35 -57q-8 -2 -16 -2q-38 0 -78 30 q-50 37 -76 37q-18 0 -43 -10q-14 -6 -29 -3q-14 5 -26 9q-19 0 -37 -6q-40 -14 -80 -15q-10 6 -16 11q-22 19 -50 14q-31 -6 -61 -6q-21 0 -51 6t-29 6q6 0 -43 -24q-3 -2 -12 -3q-8 0 -21 3q-28 4 -51 4q-30 0 -63.5 -10.5t-50.5 -10.5q-42 0 -127 31q-11 4 -48 4h-32 q-34 0 -70 11q-14 0 -76 -38q-30 -18 -62 -18q-90 17 -106 16q-22 0 -33 7q-49 49 -49 52q0 12 25 33q19 17 35 19q38 6 77 17q67 16 82 26t22 44q2 12 23 80q5 18 4 22l-10 51q0 31 9 49q22 50 22 143v258q0 27 -9 68.5t-9 44.5q0 6 13 96q6 35 5 55q0 47 -33 119 q-14 40 -30 86q-19 39 -39 54q-5 2 -54 26q-8 4 -51 -12q-15 -6 -26 -2q-18 10 -33 16q-34 18 -35 76zM473 1585q-11 26 67 166q23 33 52 74q9 6 39 75q6 25 57 72q78 71 100 80q8 3 29 4q32 2 63 -26q43 -39 51 -47q29 -30 49 -66q18 -31 40 -57q22 -22 28 -35 q10 -23 21 -47q10 -9 24 -46q77 -112 74 -126q-8 -39 -28 -39q-41 0 -50 28q-22 8 -69 45q-19 22 -41 46q-14 17 -37 42q-18 20 -49.5 36t-37.5 25q-11 15 -18 18q-3 3 -12 3q-10 0 -29 -6l-6 -2q-16 -5 -38 -12q-28 -10 -44 -40.5t-32 -38.5q-20 -10 -35 -28 q-17 -20 -34.5 -30t-34.5 -31q-14 -18 -29.5 -22.5t-29.5 -20.5t-21 -16q-10 0 -19 22z" />
<glyph unicode="&#xcb;" horiz-adv-x="1634" d="M2 1442q0 39 52 68q47 27 112 34q15 0 45 -8q68 -18 75 -18q24 0 44 6q57 18 69 18q21 0 54 -8q18 -4 100 8l57 -31q27 -14 33 -16q18 -6 33 -6q5 0 37 6t49 6q21 0 51 -6q10 -2 21 0q44 8 59 8q25 0 110 25q14 4 21 4q24 0 55 -10q82 -26 111 -27q27 0 80 13l64 16 q60 0 122 -51q25 -21 25 -80v-27q-2 -9 -4.5 -26.5t-2.5 -30.5v-25l3 -71q-2 -14 -3 -23q0 -34 19 -56q21 -29 21 -73q0 -59 -21 -91q-8 -12 -39 -12q-6 -1 -9 0q-15 0 -25 16q-10 19 -22 38q-12 13 -30 59q-10 48 -29 70q-63 36 -80 83q-10 28 -77 77q-26 26 -53 55 q-21 12 -72 12h-43q-16 2 -20 2q-11 1 -40 -2q-32 -4 -39 -4q-14 0 -51 8l-38 8q-13 2 -23 -4q-52 -15 -104 -31q-41 -17 -62 -53q-16 -27 -16 -118v-32q0 -18 -12.5 -59t-12.5 -51q0 -23 16 -47q22 -31 27 -92q2 -25 19 -35q37 -15 42 -15q8 0 64 21q47 27 136 67 q54 15 54 93q0 37 3 43q8 16 18 35q12 53 35 72q8 8 10 8q20 -8 53 -41q11 -20 18 -51q2 -9 3 -29q0 -31 -29 -129l-11 -98q-2 -20 -1 -31q0 -12 1 -19q5 -15 11 -26q4 -34 9 -56l9 -36q4 -16 4 -44q0 -49 -8 -61q-6 -10 -34 -10q-21 2 -25 2q-18 0 -33 22q-34 52 -57 70 q-47 17 -66 29l-47 40h-63q-3 1 -41 15q-28 10 -58 10q-10 0 -30 -43q-11 -22 -17 -30q-10 -10 -10 -27l-16 -90q-4 -22 -4 -43q0 -24 19.5 -74t19.5 -67q0 -54 37 -135q12 -26 24 -53q13 -23 36 -48q28 -18 132 -19q10 0 36 7q24 6 33 4q14 -4 35 -4q25 0 44 10q6 2 20 15 l45 9q31 20 47 27q26 12 69 12q26 30 101 88q16 10 22 25q20 48 49 92l29 43q29 26 46 80q10 33 34 37q7 1 14 1q26 0 45 -26l25 -32q11 -14 18 -58q9 -60 13 -75v-54q0 -63 -25 -129q-18 -45 -35 -89q-10 -37 -26 -58q-22 -29 -35 -57q-8 -2 -16 -2q-38 0 -78 30 q-50 37 -76 37q-18 0 -43 -10q-14 -6 -29 -3q-14 5 -26 9q-19 0 -37 -6q-40 -14 -80 -15q-10 6 -16 11q-22 19 -50 14q-31 -6 -61 -6q-21 0 -51 6t-29 6q6 0 -43 -24q-3 -2 -12 -3q-8 0 -21 3q-28 4 -51 4q-30 0 -63.5 -10.5t-50.5 -10.5q-42 0 -127 31q-11 4 -48 4h-32 q-34 0 -70 11q-14 0 -76 -38q-30 -18 -62 -18q-90 17 -106 16q-22 0 -33 7q-49 49 -49 52q0 12 25 33q19 17 35 19q38 6 77 17q67 16 82 26t22 44q2 12 23 80q5 18 4 22l-10 51q0 31 9 49q22 50 22 143v258q0 27 -9 68.5t-9 44.5q0 6 13 96q6 35 5 55q0 47 -33 119 q-14 40 -30 86q-19 39 -39 54q-5 2 -54 26q-8 4 -51 -12q-15 -6 -26 -2q-18 10 -33 16q-34 18 -35 76zM381 1808q0 14 19 32q22 22 26 29q25 41 84 41q11 2 41 -6.5t41 -7.5q8 0 54 -60q14 -18 14 -41.5t2.5 -47.5t2.5 -25q0 -26 -21.5 -55t-74.5 -31q-46 -2 -81 28 q-47 31 -51 33q-55 43 -56 111zM977 1726q-4 10 1 42q5 39 5 40q0 25 4 35q11 28 47 69q18 10 50 11q37 0 65 -17l47 -34q10 -8 47 -66q4 -6 4 -27q0 -37 -10 -46t-16 -44q-8 -29 -12 -37q-17 -25 -64 -24q-9 0 -20 4q-27 7 -76 28q-25 22 -33 29q-29 10 -39 37z" />
<glyph unicode="&#xcc;" horiz-adv-x="921" d="M31 1444q0 46 42 74q23 14 31 12q46 -16 58 -16q65 8 70 8l79 12q2 0 61.5 -10t82.5 -10q18 0 118 24q4 0 68 -14q36 -9 49 -9q-1 0 36.5 10.5t59.5 10.5q43 0 80 -28q29 -21 29 -58q-1 -13 -7 -19q-14 -20 -26 -38q-21 -22 -47 -23q-11 -2 -80 -31q-17 -7 -66 -45 q-22 -49 -22 -80q2 -21 2 -34q0 -14 -7 -70.5t-7 -75.5q16 -77 16 -145q0 -38 -15.5 -88t-15.5 -54q-14 -42 -14 -122v-25q0 3 4 -24.5t2 -49.5q-6 -37 -6 -80q0 -18 4 -51t4 -73q0 -54 4 -66q2 -6 39 -79q34 -66 76 -67q10 -2 37 11q6 3 14 6q16 -7 20 -10q21 -16 21 -41 q0 -57 -39 -72q-10 -4 -49 -4h-30q-31 0 -56 8q-18 4 -57 -12q-25 -10 -60 -10q-15 0 -59 20q-26 12 -62 12q-46 -30 -77 -30q-12 2 -20 2q-29 -6 -56 -6q-22 0 -67.5 12t-48.5 12q-21 -4 -28 -4q-14 -2 -16 4q-21 17 -20 51q0 27 20 54q17 2 55 7q3 1 41 18q33 14 58 13 q13 6 26 46q4 11 23 102q9 43 13 51q34 80 34 176q0 2 -18 150q10 82 10 86q0 54 -10 76q-19 47 -19 76l21 94q2 16 2 24q0 27 -4 71l-3 46q0 31 -22 82q0 38 -6 53q-44 58 -88 63q-47 0 -64 5q-50 21 -84 30t-34 62zM251 2017q0 9 2 14q5 19 29.5 51.5t34.5 31.5 q6 0 28 -11l25 -12q22 -10 55 -41q21 -40 64 -79q11 -10 22.5 -47.5t19.5 -46.5q14 -14 22 -30q23 -47 28 -53q39 -39 48 -99q3 -22 4 -38q0 -25 -8 -39q-9 -24 -28 -24q-16 0 -40 24l-20 21q-16 10 -44 40q-10 15 -18 29q-40 20 -74 47q-11 9 -40 96q-3 10 -76 76 q-17 20 -28 55q-6 21 -6 35z" />
<glyph unicode="&#xcd;" horiz-adv-x="921" d="M31 1444q0 46 42 74q23 14 31 12q46 -16 58 -16q65 8 70 8l79 12q2 0 61.5 -10t82.5 -10q18 0 118 24q4 0 68 -14q36 -9 49 -9q-1 0 36.5 10.5t59.5 10.5q43 0 80 -28q29 -21 29 -58q-1 -13 -7 -19q-14 -20 -26 -38q-21 -22 -47 -23q-11 -2 -80 -31q-17 -7 -66 -45 q-22 -49 -22 -80q2 -21 2 -34q0 -14 -7 -70.5t-7 -75.5q16 -77 16 -145q0 -38 -15.5 -88t-15.5 -54q-14 -42 -14 -122v-25q0 3 4 -24.5t2 -49.5q-6 -37 -6 -80q0 -18 4 -51t4 -73q0 -54 4 -66q2 -6 39 -79q34 -66 76 -67q10 -2 37 11q6 3 14 6q16 -7 20 -10q21 -16 21 -41 q0 -57 -39 -72q-10 -4 -49 -4h-30q-31 0 -56 8q-18 4 -57 -12q-25 -10 -60 -10q-15 0 -59 20q-26 12 -62 12q-46 -30 -77 -30q-12 2 -20 2q-29 -6 -56 -6q-22 0 -67.5 12t-48.5 12q-21 -4 -28 -4q-14 -2 -16 4q-21 17 -20 51q0 27 20 54q17 2 55 7q3 1 41 18q33 14 58 13 q13 6 26 46q4 11 23 102q9 43 13 51q34 80 34 176q0 2 -18 150q10 82 10 86q0 54 -10 76q-19 47 -19 76l21 94q2 16 2 24q0 27 -4 71l-3 46q0 31 -22 82q0 38 -6 53q-44 58 -88 63q-47 0 -64 5q-50 21 -84 30t-34 62zM372 1641q0 8 14.5 35t14.5 35q8 19 19 47q0 22 14 50 q16 33 18 44q4 23 44 43q6 4 20 49l26 39q16 20 29 29q37 30 61 49q30 22 64 23q31 0 60.5 -26t29.5 -58q0 -17 -8 -36q-15 -34 -35 -55q-10 -10 -41 -33q-10 -20 -30 -44q-18 -25 -62 -56q-18 -8 -33 -26q-35 -46 -43 -50q-50 -66 -70 -80q-28 -20 -55 -20q-37 0 -37 41z " />
<glyph unicode="&#xce;" horiz-adv-x="921" d="M25 1444q0 46 42 74q23 14 31 12q46 -16 58 -16q65 8 70 8l79 12q2 0 61.5 -10t82.5 -10q18 0 118 24q4 0 68 -14q36 -9 49 -9q-1 0 36.5 10.5t59.5 10.5q43 0 80 -28q29 -21 29 -58q-1 -13 -7 -19q-14 -20 -26 -38q-21 -22 -47 -23q-11 -2 -80 -31q-17 -7 -66 -45 q-22 -49 -22 -80q2 -21 2 -34q0 -14 -7 -70.5t-7 -75.5q16 -77 16 -145q0 -38 -15.5 -88t-15.5 -54q-14 -42 -14 -122v-25q0 3 4 -24.5t2 -49.5q-6 -37 -6 -80q0 -18 4 -51t4 -73q0 -54 4 -66q2 -6 39 -79q34 -66 76 -67q10 -2 37 11q6 3 14 6q16 -7 20 -10q21 -16 21 -41 q0 -57 -39 -72q-10 -4 -49 -4h-30q-31 0 -56 8q-18 4 -57 -12q-25 -10 -60 -10q-15 0 -59 20q-26 12 -62 12q-46 -30 -77 -30q-12 2 -20 2q-29 -6 -56 -6q-22 0 -67.5 12t-48.5 12q-21 -4 -28 -4q-14 -2 -16 4q-21 17 -20 51q0 27 20 54q17 2 55 7q3 1 41 18q33 14 58 13 q13 6 26 46q4 11 23 102q9 43 13 51q34 80 34 176q0 2 -18 150q10 82 10 86q0 54 -10 76q-19 47 -19 76l21 94q2 16 2 24q0 27 -4 71l-3 46q0 31 -22 82q0 38 -6 53q-44 58 -88 63q-47 0 -64 5q-50 21 -84 30t-34 62zM105 1585q-11 26 67 166q23 33 52 74q9 6 39 75 q6 25 57 72q78 71 100 80q8 3 29 4q32 2 63 -26q43 -39 51 -47q29 -30 49 -66q18 -31 40 -57q22 -22 28 -35q10 -23 21 -47q10 -9 24 -46q77 -112 74 -126q-8 -39 -28 -39q-41 0 -50 28q-22 8 -69 45q-19 22 -41 46q-14 17 -37 42q-18 20 -49.5 36t-37.5 25q-11 15 -18 18 q-3 3 -12 3q-10 0 -29 -6l-6 -2q-16 -5 -38 -12q-28 -10 -44 -40.5t-32 -38.5q-20 -10 -35 -28q-17 -20 -34.5 -30t-34.5 -31q-14 -18 -29.5 -22.5t-29.5 -20.5t-21 -16q-10 0 -19 22z" />
<glyph unicode="&#xcf;" horiz-adv-x="921" d="M25 1444q0 46 42 74q23 14 31 12q46 -16 58 -16q65 8 70 8l79 12q2 0 61.5 -10t82.5 -10q18 0 118 24q4 0 68 -14q36 -9 49 -9q-1 0 36.5 10.5t59.5 10.5q43 0 80 -28q29 -21 29 -58q-1 -13 -7 -19q-14 -20 -26 -38q-21 -22 -47 -23q-11 -2 -80 -31q-17 -7 -66 -45 q-22 -49 -22 -80q2 -21 2 -34q0 -14 -7 -70.5t-7 -75.5q16 -77 16 -145q0 -38 -15.5 -88t-15.5 -54q-14 -42 -14 -122v-25q0 3 4 -24.5t2 -49.5q-6 -37 -6 -80q0 -18 4 -51t4 -73q0 -54 4 -66q2 -6 39 -79q34 -66 76 -67q10 -2 37 11q6 3 14 6q16 -7 20 -10q21 -16 21 -41 q0 -57 -39 -72q-10 -4 -49 -4h-30q-31 0 -56 8q-18 4 -57 -12q-25 -10 -60 -10q-15 0 -59 20q-26 12 -62 12q-46 -30 -77 -30q-12 2 -20 2q-29 -6 -56 -6q-22 0 -67.5 12t-48.5 12q-21 -4 -28 -4q-14 -2 -16 4q-21 17 -20 51q0 27 20 54q17 2 55 7q3 1 41 18q33 14 58 13 q13 6 26 46q4 11 23 102q9 43 13 51q34 80 34 176q0 2 -18 150q10 82 10 86q0 54 -10 76q-19 47 -19 76l21 94q2 16 2 24q0 27 -4 71l-3 46q0 31 -22 82q0 38 -6 53q-44 58 -88 63q-47 0 -64 5q-50 21 -84 30t-34 62zM27 1808q0 14 19 32q22 22 26 29q25 41 84 41 q11 2 41 -6.5t41 -7.5q8 0 54 -60q14 -18 14 -41.5t2.5 -47.5t2.5 -25q0 -26 -21.5 -55t-74.5 -31q-46 -2 -81 28q-47 31 -51 33q-55 43 -56 111zM623 1726q-4 10 1 42q5 39 5 40q0 25 4 35q11 28 47 69q18 10 50 11q37 0 65 -17l47 -34q10 -8 47 -66q4 -6 4 -27 q0 -37 -10 -46t-16 -44q-8 -29 -12 -37q-17 -25 -64 -24q-9 0 -20 4q-27 7 -76 28q-25 22 -33 29q-29 10 -39 37z" />
<glyph unicode="&#xd1;" horiz-adv-x="1794" d="M12 1431q0 95 94 105q26 2 89 -10q66 -13 65 -12q10 0 76 24q31 11 41 8l92 -26q42 -12 100 -18q48 -5 72 -15q6 -5 35 -21q4 -2 28.5 8.5t26.5 10.5q18 -2 41 -19q12 -9 12 -36v-37q0 -50 14 -91q13 -35 47 -63q58 -47 65 -55q11 -15 19 -62q8 -50 44 -69q62 -37 84 -68 q10 -14 28 -43q15 -16 32 -31q19 -21 25 -45q17 -59 47 -82q35 -45 58 -53q43 -22 62 -22q10 0 16 1l16 9q16 8 43 8q31 0 27 27q-27 94 -27 114q6 28 6 74q0 38 -10 70q-6 12 -7 42q0 5 4.5 29.5t4.5 37.5t10 50.5t10 50.5q0 48 -47 88q-26 22 -49 28q-94 18 -157 63 q-47 34 -48 73q0 14 27 48q10 14 22 14q4 0 42.5 -2t60.5 -2q54 0 115.5 -12.5t54.5 -12.5q25 0 92 23q3 0 24.5 -6t33.5 -6q74 0 118 26q21 13 35 13q18 2 52 -31q40 -39 40 -74q0 -57 -59 -67q-182 -34 -219 -177q-8 -31 -8 -42q0 -2 2 -24.5t2 -39.5q0 -37 -11.5 -72.5 t-11.5 -38.5q0 -49 31 -129q4 -29 4 -78q0 -64 -7 -92q-4 -18 -5 -33q2 -18 1 -42v-138q0 -66 -5 -116.5t-5 -65.5v-49q-4 -31 -4 -47q0 -14 11.5 -37t11.5 -37q0 -22 -13.5 -45.5t-25.5 -23.5q4 0 -87 24q-38 10 -56 20q-22 22 -46 44q-20 18 -40 35q-39 41 -49 74 q-18 63 -61 83q-40 18 -63 87q-11 36 -69 105q-14 20 -45 54q-28 16 -76 102q-30 53 -76 90q-14 11 -24 27l-29 41q-21 21 -64 68q-16 20 -30 40q-18 18 -45 18q-19 0 -67 -19q-22 -9 -32 -93q-3 -25 -3 -39q0 -30 3 -53l6 -56q0 -8 23 -93q10 -42 13 -89q3 -56 4 -63 q6 -30 6 -45v-22q-2 -42 -3 -52q0 -78 36 -112q6 -23 37 -69q22 -19 63 -18q57 2 95 -18q42 -22 42 -63q-14 -82 -121 -82h-111q-15 0 -36 -5.5t-33 -4.5q-53 2 -50 1q-16 0 -22 -1q-41 -21 -86 -21q-6 0 -33.5 8t-37.5 6q-20 0 -35 -2q-74 -10 -82 -10q-21 0 -45.5 8 t-34.5 8q-58 0 -81 32q-15 22 -15 34q6 55 45 94q51 51 113 51q26 -4 40 -4q21 0 40 11l77 57q29 33 29 72q0 95 3 111.5t30 60.5q14 23 14 43q0 1 -7 43.5t-7 68.5q0 58 -23 148q-1 10 7.5 41t8.5 53.5t6 55.5q6 29 5 38q-2 19 -13 51q-28 93 -30 102q-4 23 -19 54 q-21 44 -22 51q-14 38 -68 66q-11 6 -20 5q-29 -8 -47 -8q-2 0 -20.5 4.5t-31.5 3.5q-41 -2 -49 -1q-22 6 -51 30q-45 39 -45 92zM500 1704q0 57 28 85q6 6 28 35l28 37q6 12 52.5 26.5t75.5 14.5q14 0 43 7t33 7q3 0 64 -16q58 -28 92 -28q18 0 69 -21q31 -12 47 -12 q18 0 59.5 12t49.5 12q16 2 49 27l33 24l18 -6q41 -22 50 -84q15 -112 -113 -172q-43 -21 -88 -20q-36 0 -62 8q-58 18 -92 18q-35 4 -65 31q-46 41 -78 43q-29 -8 -57 -8q-22 0 -54 10q-6 1 -61 -35q-58 -37 -107 -37q-34 0 -42 42z" />
<glyph unicode="&#xd2;" horiz-adv-x="1689" d="M49 789q0 38 14 71q16 53 54 128q17 18 18 24q19 60 31 90q22 59 72 102q19 18 63 94q22 38 69 78q17 6 48 29q18 22 86 58q26 6 53 14q34 10 58 31q54 46 151 46q10 0 44 -5t51 -4t68 -11q75 -18 80 -19q34 -6 64 -8q27 -8 49 -30q38 -38 92 -64q94 -44 154 -129 q9 -13 35 -30q42 -30 68 -67l42 -58q26 -29 33 -43q22 -31 32 -103q11 -78 32 -113q17 -29 16 -51q0 -10 -11 -36q-14 -31 -20 -65q-8 -46 -10 -50l-16 -66q0 -21 -7 -47l-14 -61q-10 -70 -34 -125q-3 -18 -23 -47q-38 -30 -84 -88q-36 -26 -97 -84q-20 -25 -48 -44 q-42 -30 -99 -88q-12 -12 -53 -26q-28 -10 -56.5 -25.5t-66.5 -15.5q-18 0 -33 2l-28 4q-10 0 -51 4t-68 4q-70 2 -91 8q-30 10 -118 62q-10 8 -27 8q-33 -6 -63 -10q-78 21 -86 25q-44 16 -112 88q-14 26 -42 72q-10 14 -47 42q-41 30 -49 37q-19 16 -33 59 q-36 118 -63 170q-14 27 -14 48q0 10 12 37t12 34q0 18 -18.5 41.5t-18.5 102.5zM453 768q8 -67 8 -160q0 -30 26 -135q14 -56 15 -119q4 -46 20 -82q10 -23 39 -70q25 -27 61 -73q48 -70 168 -70l40 10q32 7 59 7q33 0 76 -6l43 -7q30 0 90 33q38 21 47 29q22 18 39 57 q1 3 24 64q13 30 18 73l9 75q0 2 5 120q1 25 22 64q6 18 6 48q0 26 -9 59q-10 41 -12 57q-4 34 -8 71q0 223 -21 270q-9 27 -28 76q0 1 -44 118q-26 74 -52 83q-53 21 -80 47q-39 38 -63 38q-10 0 -15 -7q-21 -16 -43 -16q-53 10 -55 9q-61 -28 -109 -28q-24 0 -90 -24 q-14 -5 -18 -21q-7 -28 -36 -66q-26 -34 -28 -47q-2 -21 -45 -154q-27 -83 -41 -137q-18 -110 -18 -186zM561 1996q0 9 2 14q5 19 29.5 51.5t34.5 31.5q6 0 28 -11l25 -12q22 -10 55 -41q21 -40 64 -79q11 -10 22.5 -47.5t19.5 -46.5q14 -14 22 -30q23 -47 28 -53 q39 -39 48 -99q3 -22 4 -38q0 -25 -8 -39q-9 -24 -28 -24q-16 0 -40 24l-20 21q-16 10 -44 40q-10 15 -18 29q-40 20 -74 47q-11 9 -40 96q-3 10 -76 76q-17 20 -28 55q-6 21 -6 35z" />
<glyph unicode="&#xd3;" horiz-adv-x="1689" d="M49 789q0 38 14 71q16 53 54 128q17 18 18 24q19 60 31 90q22 59 72 102q19 18 63 94q22 38 69 78q17 6 48 29q18 22 86 58q26 6 53 14q34 10 58 31q54 46 151 46q10 0 44 -5t51 -4t68 -11q75 -18 80 -19q34 -6 64 -8q27 -8 49 -30q38 -38 92 -64q94 -44 154 -129 q9 -13 35 -30q42 -30 68 -67l42 -58q26 -29 33 -43q22 -31 32 -103q11 -78 32 -113q17 -29 16 -51q0 -10 -11 -36q-14 -31 -20 -65q-8 -46 -10 -50l-16 -66q0 -21 -7 -47l-14 -61q-10 -70 -34 -125q-3 -18 -23 -47q-38 -30 -84 -88q-36 -26 -97 -84q-20 -25 -48 -44 q-42 -30 -99 -88q-12 -12 -53 -26q-28 -10 -56.5 -25.5t-66.5 -15.5q-18 0 -33 2l-28 4q-10 0 -51 4t-68 4q-70 2 -91 8q-30 10 -118 62q-10 8 -27 8q-33 -6 -63 -10q-78 21 -86 25q-44 16 -112 88q-14 26 -42 72q-10 14 -47 42q-41 30 -49 37q-19 16 -33 59 q-36 118 -63 170q-14 27 -14 48q0 10 12 37t12 34q0 18 -18.5 41.5t-18.5 102.5zM453 768q8 -67 8 -160q0 -30 26 -135q14 -56 15 -119q4 -46 20 -82q10 -23 39 -70q25 -27 61 -73q48 -70 168 -70l40 10q32 7 59 7q33 0 76 -6l43 -7q30 0 90 33q38 21 47 29q22 18 39 57 q1 3 24 64q13 30 18 73l9 75q0 2 5 120q1 25 22 64q6 18 6 48q0 26 -9 59q-10 41 -12 57q-4 34 -8 71q0 223 -21 270q-9 27 -28 76q0 1 -44 118q-26 74 -52 83q-53 21 -80 47q-39 38 -63 38q-10 0 -15 -7q-21 -16 -43 -16q-53 10 -55 9q-61 -28 -109 -28q-24 0 -90 -24 q-14 -5 -18 -21q-7 -28 -36 -66q-26 -34 -28 -47q-2 -21 -45 -154q-27 -83 -41 -137q-18 -110 -18 -186zM727 1651q0 8 14.5 35t14.5 35q8 19 19 47q0 22 14 50q16 33 18 44q4 23 44 43q6 4 20 49l26 39q16 20 29 29q37 30 61 49q30 22 64 23q31 0 60.5 -26t29.5 -58 q0 -17 -8 -36q-15 -34 -35 -55q-10 -10 -41 -33q-10 -20 -30 -44q-18 -25 -62 -56q-18 -8 -33 -26q-35 -46 -43 -50q-50 -66 -70 -80q-28 -20 -55 -20q-37 0 -37 41z" />
<glyph unicode="&#xd4;" horiz-adv-x="1689" d="M49 789q0 38 14 71q16 53 54 128q17 18 18 24q19 60 31 90q22 59 72 102q19 18 63 94q22 38 69 78q17 6 48 29q18 22 86 58q26 6 53 14q34 10 58 31q54 46 151 46q10 0 44 -5t51 -4t68 -11q75 -18 80 -19q34 -6 64 -8q27 -8 49 -30q38 -38 92 -64q94 -44 154 -129 q9 -13 35 -30q42 -30 68 -67l42 -58q26 -29 33 -43q22 -31 32 -103q11 -78 32 -113q17 -29 16 -51q0 -10 -11 -36q-14 -31 -20 -65q-8 -46 -10 -50l-16 -66q0 -21 -7 -47l-14 -61q-10 -70 -34 -125q-3 -18 -23 -47q-38 -30 -84 -88q-36 -26 -97 -84q-20 -25 -48 -44 q-42 -30 -99 -88q-12 -12 -53 -26q-28 -10 -56.5 -25.5t-66.5 -15.5q-18 0 -33 2l-28 4q-10 0 -51 4t-68 4q-70 2 -91 8q-30 10 -118 62q-10 8 -27 8q-33 -6 -63 -10q-78 21 -86 25q-44 16 -112 88q-14 26 -42 72q-10 14 -47 42q-41 30 -49 37q-19 16 -33 59 q-36 118 -63 170q-14 27 -14 48q0 10 12 37t12 34q0 18 -18.5 41.5t-18.5 102.5zM453 768q8 -67 8 -160q0 -30 26 -135q14 -56 15 -119q4 -46 20 -82q10 -23 39 -70q25 -27 61 -73q48 -70 168 -70l40 10q32 7 59 7q33 0 76 -6l43 -7q30 0 90 33q38 21 47 29q22 18 39 57 q1 3 24 64q13 30 18 73l9 75q0 2 5 120q1 25 22 64q6 18 6 48q0 26 -9 59q-10 41 -12 57q-4 34 -8 71q0 223 -21 270q-9 27 -28 76q0 1 -44 118q-26 74 -52 83q-53 21 -80 47q-39 38 -63 38q-10 0 -15 -7q-21 -16 -43 -16q-53 10 -55 9q-61 -28 -109 -28q-24 0 -90 -24 q-14 -5 -18 -21q-7 -28 -36 -66q-26 -34 -28 -47q-2 -21 -45 -154q-27 -83 -41 -137q-18 -110 -18 -186zM492 1585q-11 26 67 166q23 33 52 74q9 6 39 75q6 25 57 72q78 71 100 80q8 3 29 4q32 2 63 -26q43 -39 51 -47q29 -30 49 -66q18 -31 40 -57q22 -22 28 -35 q10 -23 21 -47q10 -9 24 -46q77 -112 74 -126q-8 -39 -28 -39q-41 0 -50 28q-22 8 -69 45q-19 22 -41 46q-14 17 -37 42q-18 20 -49.5 36t-37.5 25q-11 15 -18 18q-3 3 -12 3q-10 0 -29 -6l-6 -2q-16 -5 -38 -12q-28 -10 -44 -40.5t-32 -38.5q-20 -10 -35 -28 q-17 -20 -34.5 -30t-34.5 -31q-14 -18 -29.5 -22.5t-29.5 -20.5t-21 -16q-10 0 -19 22z" />
<glyph unicode="&#xd5;" horiz-adv-x="1689" d="M49 789q0 38 14 71q16 53 54 128q17 18 18 24q19 60 31 90q22 59 72 102q19 18 63 94q22 38 69 78q17 6 48 29q18 22 86 58q26 6 53 14q34 10 58 31q54 46 151 46q10 0 44 -5t51 -4t68 -11q75 -18 80 -19q34 -6 64 -8q27 -8 49 -30q38 -38 92 -64q94 -44 154 -129 q9 -13 35 -30q42 -30 68 -67l42 -58q26 -29 33 -43q22 -31 32 -103q11 -78 32 -113q17 -29 16 -51q0 -10 -11 -36q-14 -31 -20 -65q-8 -46 -10 -50l-16 -66q0 -21 -7 -47l-14 -61q-10 -70 -34 -125q-3 -18 -23 -47q-38 -30 -84 -88q-36 -26 -97 -84q-20 -25 -48 -44 q-42 -30 -99 -88q-12 -12 -53 -26q-28 -10 -56.5 -25.5t-66.5 -15.5q-18 0 -33 2l-28 4q-10 0 -51 4t-68 4q-70 2 -91 8q-30 10 -118 62q-10 8 -27 8q-33 -6 -63 -10q-78 21 -86 25q-44 16 -112 88q-14 26 -42 72q-10 14 -47 42q-41 30 -49 37q-19 16 -33 59 q-36 118 -63 170q-14 27 -14 48q0 10 12 37t12 34q0 18 -18.5 41.5t-18.5 102.5zM453 768q8 -67 8 -160q0 -30 26 -135q14 -56 15 -119q4 -46 20 -82q10 -23 39 -70q25 -27 61 -73q48 -70 168 -70l40 10q32 7 59 7q33 0 76 -6l43 -7q30 0 90 33q38 21 47 29q22 18 39 57 q1 3 24 64q13 30 18 73l9 75q0 2 5 120q1 25 22 64q6 18 6 48q0 26 -9 59q-10 41 -12 57q-4 34 -8 71q0 223 -21 270q-9 27 -28 76q0 1 -44 118q-26 74 -52 83q-53 21 -80 47q-39 38 -63 38q-10 0 -15 -7q-21 -16 -43 -16q-53 10 -55 9q-61 -28 -109 -28q-24 0 -90 -24 q-14 -5 -18 -21q-7 -28 -36 -66q-26 -34 -28 -47q-2 -21 -45 -154q-27 -83 -41 -137q-18 -110 -18 -186zM460 1680q0 57 28 85q6 6 28 35l28 37q6 12 52.5 26.5t75.5 14.5q14 0 43 7t33 7q3 0 64 -16q58 -28 92 -28q18 0 69 -21q31 -12 47 -12q18 0 59.5 12t49.5 12 q16 2 49 27l33 24l18 -6q41 -22 50 -84q15 -112 -113 -172q-43 -21 -88 -20q-36 0 -62 8q-58 18 -92 18q-35 4 -65 31q-46 41 -78 43q-29 -8 -57 -8q-22 0 -54 10q-6 1 -61 -35q-58 -37 -107 -37q-34 0 -42 42z" />
<glyph unicode="&#xd6;" horiz-adv-x="1664" d="M49 789q0 38 14 71q16 53 54 128q17 18 18 24q19 60 31 90q22 59 72 102q19 18 63 94q22 38 69 78q17 6 48 29q18 22 86 58q26 6 53 14q34 10 58 31q54 46 151 46q10 0 44 -5t51 -4t68 -11q75 -18 80 -19q34 -6 64 -8q27 -8 49 -30q38 -38 92 -64q94 -44 154 -129 q9 -13 35 -30q42 -30 68 -67l42 -58q26 -29 33 -43q22 -31 32 -103q11 -78 32 -113q17 -29 16 -51q0 -10 -11 -36q-14 -31 -20 -65q-8 -46 -10 -50l-16 -66q0 -21 -7 -47l-14 -61q-10 -70 -34 -125q-3 -18 -23 -47q-38 -30 -84 -88q-36 -26 -97 -84q-20 -25 -48 -44 q-42 -30 -99 -88q-12 -12 -53 -26q-28 -10 -56.5 -25.5t-66.5 -15.5q-18 0 -33 2l-28 4q-10 0 -51 4t-68 4q-70 2 -91 8q-30 10 -118 62q-10 8 -27 8q-33 -6 -63 -10q-78 21 -86 25q-44 16 -112 88q-14 26 -42 72q-10 14 -47 42q-41 30 -49 37q-19 16 -33 59 q-36 118 -63 170q-14 27 -14 48q0 10 12 37t12 34q0 18 -18.5 41.5t-18.5 102.5zM409 1784q0 14 19 32q22 22 26 29q25 41 84 41q11 2 41 -6.5t41 -7.5q8 0 54 -60q14 -18 14 -41.5t2.5 -47.5t2.5 -25q0 -26 -21.5 -55t-74.5 -31q-46 -2 -81 28q-47 31 -51 33 q-55 43 -56 111zM453 768q8 -67 8 -160q0 -30 26 -135q14 -56 15 -119q4 -46 20 -82q10 -23 39 -70q25 -27 61 -73q48 -70 168 -70l40 10q32 7 59 7q33 0 76 -6l43 -7q30 0 90 33q38 21 47 29q22 18 39 57q1 3 24 64q13 30 18 73l9 75q0 2 5 120q1 25 22 64q6 18 6 48 q0 26 -9 59q-10 41 -12 57q-4 34 -8 71q0 223 -21 270q-9 27 -28 76q0 1 -44 118q-26 74 -52 83q-53 21 -80 47q-39 38 -63 38q-10 0 -15 -7q-21 -16 -43 -16q-53 10 -55 9q-61 -28 -109 -28q-24 0 -90 -24q-14 -5 -18 -21q-7 -28 -36 -66q-26 -34 -28 -47q-2 -21 -45 -154 q-27 -83 -41 -137q-18 -110 -18 -186zM1005 1702q-4 10 1 42q5 39 5 40q0 25 4 35q11 28 47 69q18 10 50 11q37 0 65 -17l47 -34q10 -8 47 -66q4 -6 4 -27q0 -37 -10 -46t-16 -44q-8 -29 -12 -37q-17 -25 -64 -24q-9 0 -20 4q-27 7 -76 28q-25 22 -33 29q-29 10 -39 37z" />
<glyph unicode="&#xd8;" horiz-adv-x="1692" d="M59 772q0 58 19 94q11 38 31 86q16 16 59 119q42 100 82 135q22 19 69 99q42 70 144 137q20 14 79 32q56 17 95 46q23 17 102 31q17 3 47 3q14 0 46 -5t41 -5q18 2 68 -10q75 -18 80 -19q34 -6 65 -8q26 -8 48 -30q18 -18 64 -43q54 72 70 90q32 38 94 38q13 2 22 2 q19 0 28 -6q17 -10 26 -44q6 -11 6 -25q0 -15 -18 -31q-50 -43 -64 -64l-31 -47q22 -42 82.5 -89.5t68.5 -66.5q33 -43 77 -105q16 -24 16 -52q0 -42 15 -72q51 -104 51 -139q-1 -16 -15 -41q-14 -54 -28 -114q-10 -72 -19 -126q-15 -86 -53 -173q-11 -25 -36 -51 q-28 -30 -44 -60q-12 -22 -37 -40q-11 -9 -37 -25q-88 -60 -197 -175q-11 -12 -53 -26q-30 -13 -59 -26q-42 -18 -69 -17q-8 0 -56 8t-90 8q-24 0 -41 -2l-35 -4q-39 0 -95 34q-46 28 -67 42q-12 8 -26 8q-33 -6 -64 -10q-57 12 -98 29q-22 -58 -24 -60q-48 -89 -88 -88 q-14 0 -48 16q-22 16 -45 31q-18 17 -19 41q0 8 4 24q10 40 42 84q18 27 57 70l-20 37q-8 14 -47 42.5t-50 37.5q-25 24 -42 80q-31 98 -54 149q-9 14 -10 19q-6 11 -6 25l11 56q3 15 3 33q0 21 -6 27q-21 26 -21 86zM463 797q0 -15 5 -91t5 -98q0 -26 18 -118l7 -32 q43 23 57 43l31 41q14 20 32 56q42 80 56 103q49 67 152 209q113 150 159 223l139 213q-2 6 -46 25q-14 6 -75 52q-41 31 -55 15q-16 -14 -34 -15q-2 0 -30 7q-25 6 -34 1q-36 -13 -100 -22q-53 -7 -70 -19q-20 -6 -47 -32q-13 -34 -49 -84q-11 -14 -14 -32q-5 -30 -8 -39 q-7 -23 -15 -40q-20 -26 -65 -213q-19 -82 -19 -153zM557 230q17 -22 43 -56q25 -30 35 -45q22 -33 41 -49q34 -29 80 -29q19 0 47 8q62 18 107 19q14 0 48 -5q40 -6 48 -7q42 -4 100 28q47 26 51 31q22 18 39 57q55 130 55 283q1 70 23 113q9 22 8 44q0 5 -15.5 76.5 t-15.5 114.5q0 223 -20 270q-30 54 -33 91l-45 -78l-103 -162q-20 -32 -102 -133q-53 -66 -121 -143q-34 -73 -102 -179q-34 -55 -82 -129q-44 -69 -86 -120z" />
<glyph unicode="&#xd9;" horiz-adv-x="1521" d="M21 1418q0 30 22 69q19 33 47 41q21 2 42 5q18 3 26 3q24 0 84 -14q34 -8 51 -8q19 0 29 1q50 10 84 11q30 0 63.5 -12.5t42.5 -12.5q18 0 39 8.5t28 8.5q11 0 37 -22.5t38 -22.5q2 0 40 20q34 18 45 10q22 -17 23 -69q0 -80 -45 -80q-13 0 -19 2q-17 6 -22 6q-8 2 -17 2 q-7 0 -26 -12q-31 -15 -75 -53t-44 -91q2 -9 14 -55q9 -30 9 -55q0 -104 20 -238q4 -26 4 -40v-34q0 -16 -5 -92t-5 -112q0 -105 12 -170q4 -22 21 -76q10 -33 40 -70q13 -17 19 -22q12 -13 29 -25q22 -20 66 -46l40 -13q25 -9 64 -9q35 0 51 7q43 17 53 18q74 24 107 59 l34 27q19 14 31 82q6 35 13 99l10 80q14 107 14 127q0 57 -2 75q-8 30 -12 81q-2 26 -3 46v33q0 25 14 90t14 63q0 95 -15 126q-2 19 -21 87q-12 39 -39 62q-33 17 -110 63q-47 33 -47 64q0 22 10 29q22 11 62 34q62 35 84 37q4 0 59 -10t68 -10q11 -2 40 14t49 16 q13 0 37 -8t27 -8q6 -2 28 2q26 4 29 4q19 2 48 -41.5t24 -71.5q-14 -78 -65 -77h-56q-31 -8 -40 -75q-18 -126 -19 -169q0 -66 19 -174q10 -60 9 -90q0 -10 -4.5 -56.5t-4.5 -68.5q0 -24 2 -59.5t2 -39.5v-30q-2 -10 -4 -29q-9 -64 -17 -84q-22 -53 -25 -65 q-10 -105 -18 -150q-14 -80 -96 -131q-27 -17 -137 -108q-14 -18 -58 -46q-23 -14 -35 -14q-10 0 -41 16.5t-41 16.5q-30 0 -84 -13q-20 -10 -30 -14q-21 -6 -43 3q-50 18 -63 20q-76 14 -88 16q-34 9 -56 24q-42 32 -93 40q-60 10 -116 53q-17 38 -62 95q-18 12 -44 117 q-11 46 -11 93q0 37 10 82q4 76 12 176q3 18 3 24v15q0 14 -4 37q-5 26 -7 53q-2 39 -1 49q0 104 22 266q6 22 6 50q0 24 -12 61q-18 40 -20 45q-17 30 -33 33q-14 2 -42.5 -4t-27.5 -6q-37 0 -51 38q-2 3 -10 42q-4 17 -4 29zM497 2017q0 9 2 14q5 19 29.5 51.5t34.5 31.5 q6 0 28 -11l25 -12q22 -10 55 -41q21 -40 64 -79q11 -10 22.5 -47.5t19.5 -46.5q14 -14 22 -30q23 -47 28 -53q39 -39 48 -99q3 -22 4 -38q0 -25 -8 -39q-9 -24 -28 -24q-16 0 -40 24l-20 21q-16 10 -44 40q-10 15 -18 29q-40 20 -74 47q-11 9 -40 96q-3 10 -76 76 q-17 20 -28 55q-6 21 -6 35z" />
<glyph unicode="&#xda;" horiz-adv-x="1521" d="M21 1418q0 30 22 69q19 33 47 41q21 2 42 5q18 3 26 3q24 0 84 -14q34 -8 51 -8q19 0 29 1q50 10 84 11q30 0 63.5 -12.5t42.5 -12.5q18 0 39 8.5t28 8.5q11 0 37 -22.5t38 -22.5q2 0 40 20q34 18 45 10q22 -17 23 -69q0 -80 -45 -80q-13 0 -19 2q-17 6 -22 6q-8 2 -17 2 q-7 0 -26 -12q-31 -15 -75 -53t-44 -91q2 -9 14 -55q9 -30 9 -55q0 -104 20 -238q4 -26 4 -40v-34q0 -16 -5 -92t-5 -112q0 -105 12 -170q4 -22 21 -76q10 -33 40 -70q13 -17 19 -22q12 -13 29 -25q22 -20 66 -46l40 -13q25 -9 64 -9q35 0 51 7q43 17 53 18q74 24 107 59 l34 27q19 14 31 82q6 35 13 99l10 80q14 107 14 127q0 57 -2 75q-8 30 -12 81q-2 26 -3 46v33q0 25 14 90t14 63q0 95 -15 126q-2 19 -21 87q-12 39 -39 62q-33 17 -110 63q-47 33 -47 64q0 22 10 29q22 11 62 34q62 35 84 37q4 0 59 -10t68 -10q11 -2 40 14t49 16 q13 0 37 -8t27 -8q6 -2 28 2q26 4 29 4q19 2 48 -41.5t24 -71.5q-14 -78 -65 -77h-56q-31 -8 -40 -75q-18 -126 -19 -169q0 -66 19 -174q10 -60 9 -90q0 -10 -4.5 -56.5t-4.5 -68.5q0 -24 2 -59.5t2 -39.5v-30q-2 -10 -4 -29q-9 -64 -17 -84q-22 -53 -25 -65 q-10 -105 -18 -150q-14 -80 -96 -131q-27 -17 -137 -108q-14 -18 -58 -46q-23 -14 -35 -14q-10 0 -41 16.5t-41 16.5q-30 0 -84 -13q-20 -10 -30 -14q-21 -6 -43 3q-50 18 -63 20q-76 14 -88 16q-34 9 -56 24q-42 32 -93 40q-60 10 -116 53q-17 38 -62 95q-18 12 -44 117 q-11 46 -11 93q0 37 10 82q4 76 12 176q3 18 3 24v15q0 14 -4 37q-5 26 -7 53q-2 39 -1 49q0 104 22 266q6 22 6 50q0 24 -12 61q-18 40 -20 45q-17 30 -33 33q-14 2 -42.5 -4t-27.5 -6q-37 0 -51 38q-2 3 -10 42q-4 17 -4 29zM653 1651q0 8 14.5 35t14.5 35q8 19 19 47 q0 22 14 50q16 33 18 44q4 23 44 43q6 4 20 49l26 39q16 20 29 29q37 30 61 49q30 22 64 23q31 0 60.5 -26t29.5 -58q0 -17 -8 -36q-15 -34 -35 -55q-10 -10 -41 -33q-10 -20 -30 -44q-18 -25 -62 -56q-18 -8 -33 -26q-35 -46 -43 -50q-50 -66 -70 -80q-28 -20 -55 -20 q-37 0 -37 41z" />
<glyph unicode="&#xdb;" horiz-adv-x="1521" d="M21 1418q0 30 22 69q19 33 47 41q21 2 42 5q18 3 26 3q24 0 84 -14q34 -8 51 -8q19 0 29 1q50 10 84 11q30 0 63.5 -12.5t42.5 -12.5q18 0 39 8.5t28 8.5q11 0 37 -22.5t38 -22.5q2 0 40 20q34 18 45 10q22 -17 23 -69q0 -80 -45 -80q-13 0 -19 2q-17 6 -22 6q-8 2 -17 2 q-7 0 -26 -12q-31 -15 -75 -53t-44 -91q2 -9 14 -55q9 -30 9 -55q0 -104 20 -238q4 -26 4 -40v-34q0 -16 -5 -92t-5 -112q0 -105 12 -170q4 -22 21 -76q10 -33 40 -70q13 -17 19 -22q12 -13 29 -25q22 -20 66 -46l40 -13q25 -9 64 -9q35 0 51 7q43 17 53 18q74 24 107 59 l34 27q19 14 31 82q6 35 13 99l10 80q14 107 14 127q0 57 -2 75q-8 30 -12 81q-2 26 -3 46v33q0 25 14 90t14 63q0 95 -15 126q-2 19 -21 87q-12 39 -39 62q-33 17 -110 63q-47 33 -47 64q0 22 10 29q22 11 62 34q62 35 84 37q4 0 59 -10t68 -10q11 -2 40 14t49 16 q13 0 37 -8t27 -8q6 -2 28 2q26 4 29 4q19 2 48 -41.5t24 -71.5q-14 -78 -65 -77h-56q-31 -8 -40 -75q-18 -126 -19 -169q0 -66 19 -174q10 -60 9 -90q0 -10 -4.5 -56.5t-4.5 -68.5q0 -24 2 -59.5t2 -39.5v-30q-2 -10 -4 -29q-9 -64 -17 -84q-22 -53 -25 -65 q-10 -105 -18 -150q-14 -80 -96 -131q-27 -17 -137 -108q-14 -18 -58 -46q-23 -14 -35 -14q-10 0 -41 16.5t-41 16.5q-30 0 -84 -13q-20 -10 -30 -14q-21 -6 -43 3q-50 18 -63 20q-76 14 -88 16q-34 9 -56 24q-42 32 -93 40q-60 10 -116 53q-17 38 -62 95q-18 12 -44 117 q-11 46 -11 93q0 37 10 82q4 76 12 176q3 18 3 24v15q0 14 -4 37q-5 26 -7 53q-2 39 -1 49q0 104 22 266q6 22 6 50q0 24 -12 61q-18 40 -20 45q-17 30 -33 33q-14 2 -42.5 -4t-27.5 -6q-37 0 -51 38q-2 3 -10 42q-4 17 -4 29zM442 1585q-11 26 67 166q23 33 52 74 q9 6 39 75q6 25 57 72q78 71 100 80q8 3 29 4q32 2 63 -26q43 -39 51 -47q29 -30 49 -66q18 -31 40 -57q22 -22 28 -35q10 -23 21 -47q10 -9 24 -46q77 -112 74 -126q-8 -39 -28 -39q-41 0 -50 28q-22 8 -69 45q-19 22 -41 46q-14 17 -37 42q-18 20 -49.5 36t-37.5 25 q-11 15 -18 18q-3 3 -12 3q-10 0 -29 -6l-6 -2q-16 -5 -38 -12q-28 -10 -44 -40.5t-32 -38.5q-20 -10 -35 -28q-17 -20 -34.5 -30t-34.5 -31q-14 -18 -29.5 -22.5t-29.5 -20.5t-21 -16q-10 0 -19 22z" />
<glyph unicode="&#xdc;" horiz-adv-x="1521" d="M21 1418q0 30 22 69q19 33 47 41q21 2 42 5q18 3 26 3q24 0 84 -14q34 -8 51 -8q19 0 29 1q50 10 84 11q30 0 63.5 -12.5t42.5 -12.5q18 0 39 8.5t28 8.5q11 0 37 -22.5t38 -22.5q2 0 40 20q34 18 45 10q22 -17 23 -69q0 -80 -45 -80q-13 0 -19 2q-17 6 -22 6q-8 2 -17 2 q-7 0 -26 -12q-31 -15 -75 -53t-44 -91q2 -9 14 -55q9 -30 9 -55q0 -104 20 -238q4 -26 4 -40v-34q0 -16 -5 -92t-5 -112q0 -105 12 -170q4 -22 21 -76q10 -33 40 -70q13 -17 19 -22q12 -13 29 -25q22 -20 66 -46l40 -13q25 -9 64 -9q35 0 51 7q43 17 53 18q74 24 107 59 l34 27q19 14 31 82q6 35 13 99l10 80q14 107 14 127q0 57 -2 75q-8 30 -12 81q-2 26 -3 46v33q0 25 14 90t14 63q0 95 -15 126q-2 19 -21 87q-12 39 -39 62q-33 17 -110 63q-47 33 -47 64q0 22 10 29q22 11 62 34q62 35 84 37q4 0 59 -10t68 -10q11 -2 40 14t49 16 q13 0 37 -8t27 -8q6 -2 28 2q26 4 29 4q19 2 48 -41.5t24 -71.5q-14 -78 -65 -77h-56q-31 -8 -40 -75q-18 -126 -19 -169q0 -66 19 -174q10 -60 9 -90q0 -10 -4.5 -56.5t-4.5 -68.5q0 -24 2 -59.5t2 -39.5v-30q-2 -10 -4 -29q-9 -64 -17 -84q-22 -53 -25 -65 q-10 -105 -18 -150q-14 -80 -96 -131q-27 -17 -137 -108q-14 -18 -58 -46q-23 -14 -35 -14q-10 0 -41 16.5t-41 16.5q-30 0 -84 -13q-20 -10 -30 -14q-21 -6 -43 3q-50 18 -63 20q-76 14 -88 16q-34 9 -56 24q-42 32 -93 40q-60 10 -116 53q-17 38 -62 95q-18 12 -44 117 q-11 46 -11 93q0 37 10 82q4 76 12 176q3 18 3 24v15q0 14 -4 37q-5 26 -7 53q-2 39 -1 49q0 104 22 266q6 22 6 50q0 24 -12 61q-18 40 -20 45q-17 30 -33 33q-14 2 -42.5 -4t-27.5 -6q-37 0 -51 38q-2 3 -10 42q-4 17 -4 29zM354 1800q0 14 19 32q22 22 26 29q25 41 84 41 q11 2 41 -6.5t41 -7.5q8 0 54 -60q14 -18 14 -41.5t2.5 -47.5t2.5 -25q0 -26 -21.5 -55t-74.5 -31q-46 -2 -81 28q-47 31 -51 33q-55 43 -56 111zM950 1718q-4 10 1 42q5 39 5 40q0 25 4 35q11 28 47 69q18 10 50 11q37 0 65 -17l47 -34q10 -8 47 -66q4 -6 4 -27 q0 -37 -10 -46t-16 -44q-8 -29 -12 -37q-17 -25 -64 -24q-9 0 -20 4q-27 7 -76 28q-25 22 -33 29q-29 10 -39 37z" />
</font>
</defs>
</svg>
